<svg width="1181" height="80" viewBox="0 0 1181 80" fill="none" xmlns="http://www.w3.org/2000/svg">
<path d="M1 0H1131L1181 80H61L1 0Z" fill="#6196E0"/>
<mask id="mask0_14_485" style="mask-type:alpha" maskUnits="userSpaceOnUse" x="1" y="0" width="1180" height="80">
<path d="M1 0H1131L1181 80H61L1 0Z" fill="#6196E0"/>
</mask>
<g mask="url(#mask0_14_485)">
<path d="M104.854 38.259C104.164 37.269 103.594 36.519 103.104 35.729C100.984 32.309 101.804 29.8891 105.534 28.3791C106.334 28.0591 107.214 27.7991 107.874 27.2791C108.434 26.8391 108.934 26.109 109.074 25.419C109.134 25.109 108.264 24.289 107.794 24.269C107.104 24.239 106.274 24.579 105.714 25.019C105.234 25.399 105.044 26.149 104.634 26.889C103.674 24.819 104.314 23.4591 105.994 22.5291C107.604 21.6391 109.814 22.2291 110.824 23.7191C111.944 25.3691 111.524 26.7191 109.314 28.6291C112.024 30.4891 112.504 31.4591 111.484 32.9691C110.394 34.5591 108.544 34.8591 106.724 33.5891C107.134 33.4391 107.534 33.409 107.744 33.199C108.324 32.589 108.834 31.9091 109.364 31.2491C108.534 30.8591 107.674 30.0891 106.864 30.1491C104.504 30.2991 103.304 32.919 104.314 35.269C105.884 38.899 110.724 39.539 113.524 36.479C116.794 32.899 116.794 26.5691 113.524 23.1591C110.174 19.6691 104.384 19.4391 100.624 22.9391C97.8339 25.5491 95.2939 28.439 92.7839 31.329C90.0839 34.429 87.0839 37.139 83.1839 38.549C81.4039 39.189 79.3739 39.6391 77.5239 39.4591C73.7139 39.0891 71.0739 36.909 69.9939 32.769C69.7539 33.379 69.6439 33.6391 69.5439 33.8991C67.8639 38.1391 63.9539 40.249 59.4939 39.359C53.9139 38.249 50.0339 34.6891 46.4739 30.5591C44.0739 27.7691 41.6039 24.999 38.8439 22.579C35.0639 19.269 29.0739 19.8891 26.0039 23.5691C22.8939 27.2991 23.3439 33.829 26.9339 37.019C29.7439 39.519 34.2339 38.5591 35.6539 35.1591C36.6639 32.7291 35.1939 30.049 32.7439 30.109C31.9939 30.129 31.2639 30.9091 30.5239 31.3391C31.0239 31.9491 31.4839 32.5991 32.0339 33.1591C32.2839 33.4091 32.7339 33.4591 33.2239 33.6591C31.2439 34.8591 29.3539 34.5591 28.3939 32.8991C26.9839 30.4491 29.2139 29.709 30.6239 28.639C28.4339 26.829 27.9939 25.4791 29.0139 23.8491C30.0139 22.2391 32.3139 21.5891 33.9739 22.5691C35.6139 23.5291 36.2439 24.8991 35.2639 26.8791C34.8439 26.1391 34.6339 25.349 34.1139 24.949C33.5539 24.519 32.7139 24.279 31.9939 24.289C31.5739 24.289 30.7739 25.0491 30.8339 25.3191C30.9839 26.0091 31.3839 26.8091 31.9439 27.2091C32.8139 27.819 33.8939 28.1291 34.8839 28.5591C37.8439 29.8591 38.6939 32.2491 37.1539 35.0891C36.5739 36.1591 35.8439 37.1391 35.1439 38.2191C41.6639 37.5191 43.1139 35.8691 42.4339 30.8391C43.3339 31.9191 44.4839 33.1491 44.4739 34.3691C44.4739 35.6891 43.3739 36.9991 42.9039 37.9991C45.9439 38.4191 49.0239 38.839 52.0939 39.259V40.259C48.9539 40.689 45.8139 41.109 42.8239 41.519C45.2439 46.109 45.2039 46.679 42.1339 48.579C42.7539 43.319 41.0339 41.489 35.1739 41.389C35.7439 42.229 36.2939 42.959 36.7739 43.729C38.9039 47.159 38.1139 49.6091 34.4139 51.1191C33.5439 51.4691 32.6439 51.799 31.8639 52.299C30.9939 52.859 30.0339 53.8091 31.1739 54.6891C31.7839 55.1591 33.1539 54.9691 34.0139 54.6491C34.5639 54.4491 34.8139 53.4491 35.2539 52.709C35.9839 54.889 35.5339 56.1691 33.8639 56.9991C32.2639 57.7991 30.2539 57.329 29.1839 55.919C27.9739 54.319 28.3439 52.9191 30.2239 51.1191C29.4439 49.9291 28.2439 48.8591 28.1339 47.6791C28.0639 46.9191 29.4339 45.739 30.4139 45.239C31.1039 44.889 32.2139 45.3591 33.1339 45.4591C33.1039 45.6491 33.0839 45.849 33.0539 46.039C32.7739 46.109 32.3939 46.079 32.2339 46.259C31.6439 46.919 31.1139 47.649 30.5739 48.359C31.4339 48.699 32.3239 49.4091 33.1339 49.3191C35.4339 49.0691 36.5539 46.629 35.6239 44.329C34.0939 40.559 29.1639 39.889 26.3139 43.079C23.0739 46.709 23.1339 52.999 26.4339 56.389C29.8839 59.919 35.4739 60.089 39.3239 56.509C41.9639 54.059 44.1639 51.139 46.7939 48.669C49.5039 46.119 52.2239 43.379 55.4239 41.579C61.7739 38.029 66.8439 39.929 69.9639 46.359C72.6239 40.329 77.3739 38.449 83.5339 41.039C87.2039 42.589 90.1139 45.1391 92.7239 48.1191C95.3939 51.1591 98.0739 54.219 101.064 56.919C104.764 60.259 110.794 59.6091 113.884 55.8991C117.044 52.0991 116.504 45.3891 112.774 42.3091C110.034 40.0491 105.764 40.9791 104.334 44.1491C103.394 46.2391 104.174 48.5491 106.144 49.2191C107.354 49.6291 108.744 49.8491 109.264 48.3091C109.744 46.8691 108.464 46.5291 107.414 46.1891C107.204 46.1191 106.994 46.0291 106.654 45.8991C108.544 44.6391 110.504 44.9291 111.484 46.5691C112.924 48.9891 110.754 49.7691 109.314 50.8191C111.554 52.8191 111.934 54.1791 110.774 55.8191C109.704 57.3391 107.584 57.8391 105.934 56.959C104.304 56.0891 103.884 54.6991 104.704 52.7191C105.034 53.3391 105.194 54.089 105.654 54.419C106.294 54.869 107.144 55.169 107.924 55.209C108.314 55.229 109.134 54.429 109.064 54.169C108.894 53.479 108.484 52.699 107.914 52.289C107.114 51.709 106.114 51.399 105.174 51.009C101.954 49.659 101.104 47.2591 102.814 44.2091C103.324 43.2991 103.924 42.4491 104.554 41.4691C98.9239 41.3891 97.0139 43.4491 97.8339 49.2191C96.7839 47.8991 95.4939 46.999 95.5339 46.169C95.6139 44.449 96.4039 42.7591 96.7739 41.4991C94.0139 41.1191 90.9039 40.6791 87.7939 40.2491C87.7939 39.9091 87.7939 39.5791 87.7939 39.239C90.9239 38.8291 94.0439 38.409 97.1039 38.009C94.5539 33.909 94.6439 32.7991 97.7739 30.9291C97.0039 36.1291 98.3239 37.549 104.834 38.259H104.854ZM262.514 45.889C263.944 44.329 265.184 42.3991 266.924 41.2191C269.684 39.3391 272.854 39.6891 275.884 40.8491C279.904 42.3991 283.004 45.1491 285.804 48.3491C288.414 51.3291 291.054 54.349 294.004 56.979C297.734 60.309 303.754 59.609 306.804 55.859C309.944 51.999 309.354 45.309 305.614 42.289C302.574 39.829 297.784 41.3391 296.904 45.0291C296.424 47.0491 297.504 49.069 299.484 49.289C300.354 49.389 301.314 48.6591 302.234 48.3091C301.664 47.6191 301.114 46.8991 300.494 46.2491C300.314 46.0591 299.954 46.0491 299.524 45.9091C301.404 44.6491 303.294 44.969 304.374 46.549C305.414 48.059 304.894 49.069 302.204 50.829C304.374 52.799 304.774 54.129 303.684 55.759C302.624 57.349 300.354 57.8591 298.684 56.8791C297.144 55.9791 296.814 54.829 297.624 52.829C297.924 53.389 298.074 54.049 298.484 54.329C299.144 54.779 299.954 55.1791 300.724 55.209C301.144 55.229 302.004 54.329 301.934 54.019C301.784 53.339 301.274 52.589 300.694 52.199C299.804 51.609 298.724 51.3191 297.744 50.8691C295.004 49.6291 294.154 47.329 295.514 44.639C296.084 43.519 296.844 42.4991 297.524 41.4391C297.434 41.2691 297.344 41.0991 297.254 40.9291C295.404 41.6291 293.114 41.8791 291.824 43.1491C290.654 44.2991 290.564 46.5591 289.974 48.3991C289.534 47.7991 288.284 46.8491 288.344 45.9991C288.474 44.3291 289.334 42.7191 289.744 41.4991C286.924 41.1091 283.794 40.6791 280.664 40.2491C280.664 39.9191 280.664 39.5891 280.664 39.2491C283.794 38.8291 286.914 38.4091 289.954 37.9991C287.434 33.6691 287.484 32.9191 290.594 30.9591C290.164 36.3391 291.554 37.7891 297.644 38.1791C297.034 37.2791 296.434 36.479 295.924 35.639C293.914 32.339 294.754 29.8591 298.324 28.3991C299.194 28.0491 300.134 27.759 300.854 27.199C301.394 26.769 301.784 25.979 301.914 25.289C301.964 25.019 301.164 24.269 300.754 24.269C300.044 24.269 299.234 24.5391 298.644 24.9591C298.144 25.3091 297.914 26.019 297.434 26.759C296.924 24.289 297.434 23.089 299.124 22.389C300.764 21.709 302.784 22.309 303.724 23.769C304.774 25.389 304.354 26.7391 302.204 28.6591C304.934 30.4491 305.434 31.4391 304.364 32.9591C303.234 34.5691 301.404 34.8591 299.674 33.5991C299.984 33.4591 300.274 33.409 300.444 33.239C301.074 32.5991 301.664 31.909 302.264 31.239C301.284 30.879 300.234 30.089 299.334 30.239C297.054 30.609 296.154 33.379 297.354 35.639C299.224 39.129 303.994 39.409 306.654 36.169C309.734 32.429 309.554 26.2891 306.264 23.0291C302.794 19.5991 297.154 19.469 293.364 23.039C290.584 25.659 288.064 28.5591 285.544 31.4391C282.884 34.4791 279.934 37.149 276.104 38.509C274.264 39.159 272.164 39.5691 270.244 39.3991C266.464 39.0691 263.954 36.7991 262.864 32.8391C260.484 38.8191 256.054 40.8491 250.244 38.8191C245.944 37.3191 242.694 34.419 239.754 31.039C237.194 28.099 234.594 25.1591 231.704 22.5591C228.004 19.2391 221.954 19.879 218.874 23.579C215.704 27.399 216.244 34.0691 219.984 37.1591C222.604 39.3291 226.594 38.6291 228.244 35.7191C229.694 33.1491 228.294 30.0691 225.564 30.0891C224.854 30.0891 224.144 30.7791 223.424 31.1591C223.854 31.8091 224.224 32.5091 224.734 33.0891C225.014 33.3991 225.534 33.4791 226.084 33.7191C224.034 34.8391 222.144 34.4891 221.214 32.8491C219.824 30.3691 222.144 29.7091 223.514 28.6191C221.174 26.7491 220.774 25.399 221.984 23.669C223.034 22.169 225.184 21.6691 226.824 22.5291C228.464 23.3891 228.874 24.7791 228.004 26.7191C227.684 26.1191 227.534 25.369 227.074 25.049C226.434 24.609 225.574 24.329 224.794 24.299C224.414 24.289 223.624 25.0991 223.694 25.3691C223.874 26.0591 224.284 26.859 224.854 27.239C225.794 27.869 226.944 28.1891 227.994 28.6791C230.644 29.9091 231.484 32.1491 230.184 34.7491C229.594 35.9291 228.784 36.999 228.014 38.229C234.374 37.529 235.484 36.3391 235.054 30.9691C238.114 32.9191 238.164 33.659 235.684 37.989C238.734 38.4191 241.894 38.859 245.054 39.299C245.034 39.629 245.024 39.959 245.004 40.289C241.844 40.699 238.684 41.109 235.644 41.509C238.144 45.749 238.064 46.9391 234.964 48.4991C235.704 43.4791 233.124 40.849 228.144 41.609C228.654 42.329 229.174 43.0091 229.624 43.739C231.744 47.139 230.934 49.6391 227.264 51.1291C226.394 51.4791 225.504 51.8191 224.724 52.3191C223.824 52.8891 222.944 53.8591 224.054 54.709C224.654 55.169 226.014 54.9491 226.894 54.6291C227.424 54.4391 227.684 53.4891 228.184 52.6791C228.954 54.759 228.384 56.0791 226.784 56.9691C225.234 57.8291 223.124 57.4191 222.114 55.9691C221.684 55.3491 221.214 54.389 221.404 53.799C221.784 52.669 222.624 51.6991 223.044 51.0291C222.264 49.9191 221.044 48.9091 220.954 47.8091C220.894 46.9991 222.184 45.819 223.144 45.299C223.844 44.919 224.984 45.3391 225.924 45.3991C225.904 45.5991 225.894 45.809 225.874 46.009C225.614 46.089 225.254 46.089 225.094 46.269C224.494 46.929 223.964 47.659 223.404 48.359C224.334 48.699 225.324 49.429 226.174 49.289C228.664 48.879 229.574 45.919 228.104 43.579C226.064 40.329 221.634 40.1691 219.034 43.2491C215.854 47.0191 216.044 53.259 219.434 56.549C222.994 59.999 228.484 60.049 232.334 56.389C235.004 53.859 237.444 51.079 239.854 48.299C242.944 44.729 246.424 41.759 251.034 40.419C256.384 38.859 260.824 41.129 262.484 45.889H262.514ZM129.714 45.9691C129.214 46.1091 128.834 46.089 128.674 46.269C128.084 46.939 127.574 47.6691 127.024 48.3791C127.954 48.6991 128.944 49.419 129.794 49.269C132.204 48.859 133.124 46.049 131.784 43.729C129.834 40.339 125.264 40.119 122.614 43.269C119.504 46.969 119.644 53.1191 122.914 56.4091C126.394 59.9191 131.954 60.089 135.804 56.489C138.544 53.929 140.804 50.8691 143.554 48.3191C146.274 45.7891 149.064 43.1191 152.304 41.3991C158.484 38.1091 163.504 40.109 166.464 46.479C167.714 42.269 170.544 40.0491 174.754 40.0291C176.644 40.0191 178.634 40.549 180.394 41.269C184.224 42.839 187.084 45.699 189.764 48.799C192.214 51.639 194.734 54.4591 197.534 56.9391C201.264 60.2391 207.314 59.5791 210.354 55.8791C213.504 52.0391 212.944 45.359 209.204 42.299C206.324 39.939 201.774 41.1391 200.604 44.5591C199.924 46.5291 200.764 48.5891 202.594 49.2191C203.824 49.6491 205.254 49.799 205.654 48.289C205.794 47.789 204.524 46.889 203.864 46.199C203.724 46.049 203.444 46.039 203.104 45.919C204.934 44.619 206.804 44.919 207.914 46.519C208.944 48.0191 208.444 49.049 205.784 50.829C207.924 52.809 208.324 54.189 207.244 55.769C206.204 57.289 204.044 57.869 202.424 56.959C200.754 56.0191 200.114 54.6591 201.044 52.6291C201.464 53.3691 201.684 54.149 202.194 54.539C202.754 54.969 203.594 55.219 204.314 55.209C204.734 55.209 205.544 54.4491 205.484 54.1891C205.334 53.4991 204.944 52.689 204.384 52.289C203.524 51.679 202.444 51.3591 201.444 50.9291C198.464 49.6291 197.604 47.289 199.144 44.419C199.704 43.379 200.424 42.4291 201.064 41.4291C200.944 41.2191 200.814 41.009 200.694 40.799C198.714 41.689 196.364 42.1891 194.874 43.5991C193.864 44.5591 194.074 46.789 193.634 48.949C192.954 47.549 191.834 46.279 191.854 45.019C191.874 43.709 192.994 42.419 193.444 41.509C190.424 41.089 187.314 40.6491 184.204 40.2191C184.204 39.8891 184.204 39.5491 184.204 39.2191C187.334 38.8091 190.464 38.389 193.524 37.989C190.964 33.8491 191.054 32.709 194.164 30.979C193.054 36.279 195.354 37.5791 201.194 38.1891C200.584 37.2791 199.994 36.4791 199.474 35.6191C197.434 32.2691 198.234 29.8591 201.824 28.3791C202.694 28.0191 203.634 27.7491 204.364 27.1891C204.914 26.7591 205.324 25.989 205.474 25.299C205.534 25.029 204.744 24.269 204.334 24.259C203.624 24.239 202.774 24.4791 202.214 24.9091C201.694 25.3091 201.484 26.0991 201.044 26.8791C200.124 24.8991 200.664 23.519 202.314 22.549C203.904 21.619 206.104 22.139 207.164 23.609C208.304 25.189 207.914 26.5991 205.774 28.6791C208.414 30.3891 208.954 31.4991 207.854 32.9991C206.674 34.6091 204.844 34.849 203.214 33.509C203.604 33.379 204.034 33.3691 204.234 33.1491C204.794 32.5291 205.254 31.8291 205.754 31.1591C204.974 30.7891 204.194 30.0791 203.424 30.0991C201.124 30.1591 199.784 32.569 200.584 34.889C201.734 38.239 206.144 39.499 209.014 37.299C212.814 34.399 213.534 27.689 210.464 23.759C207.464 19.909 201.244 19.189 197.504 22.519C194.874 24.859 192.424 27.4591 190.154 30.1591C187.124 33.7491 183.854 37.0091 179.364 38.5991C177.594 39.2291 175.554 39.5491 173.704 39.3691C169.944 39.0091 167.504 36.7091 166.384 32.8091C164.174 38.6491 159.814 40.7491 154.164 38.9291C149.904 37.5491 146.624 34.789 143.694 31.479C141.014 28.449 138.354 25.3691 135.374 22.6591C131.674 19.2791 125.654 19.8091 122.524 23.4391C119.354 27.1191 119.694 33.6291 123.244 36.8991C125.894 39.3491 130.114 38.7391 131.814 35.6591C132.914 33.6591 132.364 31.2791 130.504 30.3991C129.274 29.8191 127.784 29.5091 127.104 31.0291C126.424 32.5591 127.834 32.939 128.964 33.289C129.144 33.349 129.294 33.489 129.484 33.609C127.824 34.859 126.024 34.589 124.864 32.979C123.784 31.479 124.294 30.4491 126.974 28.6491C124.724 26.5591 124.354 25.1791 125.614 23.5591C126.814 22.0191 129.104 21.579 130.664 22.699C132.094 23.719 132.674 25.039 131.634 26.769C131.174 25.999 130.904 24.9491 130.334 24.7491C129.484 24.4491 128.424 24.7591 127.454 24.8091C127.704 25.5891 127.734 26.6491 128.264 27.0891C129.124 27.7991 130.314 28.0891 131.374 28.5591C134.254 29.8391 135.104 32.1291 133.654 34.9291C133.074 36.0391 132.314 37.0591 131.584 38.2191C138.004 37.5291 139.394 36.029 138.664 30.759C139.514 31.559 140.824 32.4991 140.804 33.3991C140.764 35.0491 139.924 36.679 139.514 38.009C142.324 38.409 145.444 38.8391 148.564 39.2791C148.554 39.6091 148.544 39.9491 148.524 40.2791C145.384 40.6791 142.234 41.089 139.194 41.479C141.714 45.639 141.614 46.9591 138.484 48.4991C139.424 43.5191 137.124 41.129 131.644 41.489C132.244 42.3491 132.854 43.139 133.354 43.989C135.264 47.209 134.414 49.6191 130.934 51.0691C130.004 51.4591 128.934 51.729 128.234 52.389C127.714 52.879 127.694 53.8991 127.444 54.6891C128.414 54.7291 129.484 55.0191 130.334 54.7191C130.904 54.5191 131.184 53.4891 131.604 52.8091C132.404 54.6691 132.054 55.9491 130.544 56.8691C128.884 57.8691 126.624 57.3891 125.514 55.8191C124.374 54.1891 124.744 52.8491 126.904 50.8791C124.254 48.9691 123.804 48.039 124.804 46.549C125.874 44.959 127.774 44.6491 129.664 45.9591L129.714 45.9691ZM8.19388 52.729C8.68388 53.519 8.96388 54.5291 9.52388 54.7191C10.3939 55.0091 11.4439 54.739 12.4239 54.699C12.1739 53.909 12.1539 52.879 11.6239 52.389C10.9339 51.729 9.85387 51.459 8.92387 51.079C5.46387 49.649 4.61388 47.1991 6.52388 43.989C7.04388 43.1091 7.65388 42.2891 8.22388 41.4391C8.08388 41.2291 7.93388 41.009 7.79388 40.799C5.81388 41.709 3.47388 42.2291 1.99388 43.6591C1.00388 44.6191 1.25388 46.8491 0.913879 48.6491C0.34388 47.9191 -0.936119 47.0091 -0.896118 46.1591C-0.816116 44.4391 -0.0161209 42.7591 0.353882 41.489C-2.39612 41.1091 -5.50613 40.6691 -8.60612 40.239V39.2191C-5.47613 38.8091 -2.35612 38.3991 0.713882 37.9991C-1.91611 33.9791 -1.81612 32.7891 1.37389 30.8991C0.573883 36.0291 2.72388 38.289 8.27388 38.039C7.67388 37.179 7.05389 36.3891 6.54388 35.5291C4.62389 32.3091 5.45389 29.849 8.90388 28.419C9.77389 28.059 10.7139 27.789 11.4439 27.239C12.0039 26.819 12.4939 26.0591 12.6139 25.3791C12.6739 25.0591 11.7939 24.249 11.3239 24.239C10.6339 24.219 9.82388 24.579 9.25388 25.019C8.78387 25.389 8.60387 26.109 8.17387 26.889C7.28387 24.689 7.95387 23.3391 9.64388 22.4591C11.2139 21.6391 13.2739 22.199 14.3039 23.609C15.5039 25.259 15.1439 26.549 12.8939 28.669C15.5539 30.369 16.0939 31.479 15.0139 32.979C13.8539 34.589 12.0239 34.849 10.3239 33.509C10.7239 33.379 11.1439 33.3591 11.3439 33.1491C11.9139 32.5291 12.3939 31.839 12.9039 31.169C12.0539 30.799 11.1739 30.0491 10.3639 30.1191C7.86388 30.3291 6.73389 33.2691 8.07388 35.6791C10.0439 39.2191 14.9039 39.3391 17.5239 35.9091C20.4839 32.0191 20.1139 25.899 16.7139 22.789C13.1439 19.519 7.72388 19.529 3.96388 23.079C1.34388 25.549 -1.06612 28.269 -3.41612 31.009C-6.14613 34.179 -9.14613 37.009 -13.1161 38.449C-14.9561 39.119 -17.0561 39.579 -18.9661 39.419C-22.7361 39.089 -25.3361 36.8891 -26.4661 32.7491C-26.7761 33.5291 -26.8961 33.8591 -27.0261 34.1891C-28.5261 37.9991 -32.6261 40.1691 -36.6361 39.4091C-42.1461 38.3691 -46.0661 35.009 -49.6161 30.949C-52.2261 27.959 -54.8761 24.959 -57.8561 22.359C-61.5761 19.119 -67.7061 19.9991 -70.6261 23.8091C-73.6161 27.7091 -72.9461 34.239 -69.2461 37.199C-66.2661 39.579 -61.6061 38.179 -60.6161 34.609C-60.0661 32.629 -61.0861 30.449 -62.9761 30.2091C-63.8961 30.0891 -64.9261 30.8591 -65.9161 31.2191C-65.3161 31.8891 -64.7261 32.5691 -64.0961 33.2191C-63.9261 33.3891 -63.6361 33.439 -63.3261 33.579C-65.0261 34.829 -66.7361 34.6591 -67.8661 33.0991C-69.7361 30.5391 -67.1861 29.749 -65.7961 28.549C-67.9561 26.869 -68.3961 25.559 -67.4661 23.919C-66.5161 22.249 -64.2861 21.5491 -62.5561 22.4691C-60.8661 23.3591 -60.3261 24.7391 -61.1361 26.8991C-61.5761 26.0891 -61.7461 25.359 -62.1961 25.049C-62.8461 24.609 -63.6961 24.309 -64.4761 24.269C-64.8561 24.249 -65.6561 25.059 -65.5861 25.329C-65.4161 26.019 -65.0161 26.8291 -64.4461 27.2091C-63.5061 27.8391 -62.3561 28.159 -61.3061 28.639C-58.6561 29.859 -57.8161 32.0891 -59.1061 34.7091C-59.6961 35.8991 -60.4961 36.979 -61.1961 38.109C-61.0861 38.289 -60.9861 38.4791 -60.8761 38.6591C-58.8761 37.7791 -56.5261 37.2991 -55.0161 35.8991C-53.9961 34.9491 -54.1761 32.709 -53.7861 30.889C-53.2161 31.649 -51.9561 32.569 -52.0061 33.419C-52.1061 35.079 -52.9261 36.699 -53.3461 38.009C-50.4961 38.409 -47.3661 38.839 -44.2461 39.269C-44.2561 39.599 -44.2661 39.9191 -44.2761 40.2491C-47.4261 40.6691 -50.5861 41.0891 -53.6061 41.4991C-51.1261 45.8491 -51.1761 46.6291 -54.2061 48.4691C-53.8661 43.2191 -55.9761 41.0791 -61.1761 41.4991C-60.5961 42.3491 -59.9861 43.1491 -59.4761 43.9991C-57.5761 47.2191 -58.4161 49.6291 -61.9061 51.0691C-62.7761 51.4291 -63.7161 51.709 -64.4461 52.259C-64.9961 52.689 -65.4161 53.4591 -65.5761 54.1491C-65.6361 54.4191 -64.8661 55.1991 -64.4561 55.2191C-63.7361 55.2391 -62.9061 54.989 -62.3161 54.579C-61.8161 54.229 -61.5761 53.489 -61.1261 52.759C-60.5461 55.219 -60.9961 56.3091 -62.7361 57.0591C-64.3661 57.7691 -66.3961 57.189 -67.3461 55.739C-68.4061 54.139 -68.0161 52.859 -66.1761 51.109C-66.9761 49.929 -68.1861 48.859 -68.3161 47.669C-68.3961 46.919 -66.9961 45.7491 -66.0061 45.239C-65.3261 44.889 -64.2261 45.3591 -63.3161 45.4591C-63.6161 46.0891 -63.8161 46.1391 -64.0161 46.2091C-65.0461 46.5791 -66.4361 47.019 -65.7161 48.329C-65.3561 48.989 -63.7261 49.399 -62.8161 49.209C-60.6161 48.7491 -59.8061 46.1091 -60.9561 43.9091C-62.7961 40.3791 -67.5361 40.0591 -70.2461 43.2791C-73.3561 46.9791 -73.2161 53.089 -69.9461 56.419C-66.4761 59.949 -60.9261 60.129 -57.0561 56.509C-54.1061 53.749 -51.4861 50.6391 -48.7961 47.6191C-45.9061 44.3791 -42.5961 41.7591 -38.3861 40.4691C-34.1061 39.1591 -29.7761 40.4891 -27.7761 43.7091C-27.2561 44.5491 -26.9061 45.489 -26.4261 46.479C-24.2261 40.859 -19.8261 38.749 -14.2261 40.579C-12.9361 40.999 -11.5461 41.469 -10.5161 42.299C-7.99612 44.319 -5.55612 46.469 -3.25612 48.729C-0.526115 51.409 1.87389 54.449 4.71388 56.989C8.37389 60.259 14.4939 59.5591 17.5239 55.8491C20.6539 52.0091 20.0439 45.2991 16.2939 42.2791C13.6539 40.1491 9.65388 40.919 8.07388 43.859C6.99388 45.859 7.57388 48.289 9.41388 49.109C10.6539 49.659 12.1539 49.9791 12.8139 48.4391C13.4739 46.8991 12.0239 46.5591 10.9239 46.1791C10.7539 46.1191 10.5939 46.0091 10.3939 45.9091C12.0139 44.6391 13.8839 44.909 15.0239 46.509C16.0839 47.999 15.5839 49.059 12.9539 50.829C15.1839 53.009 15.5239 54.309 14.2639 55.959C13.1339 57.439 10.9939 57.879 9.39388 56.889C7.85387 55.939 7.27389 54.639 8.20389 52.739L8.19388 52.729ZM-74.7061 27.979C-73.6761 22.979 -70.8061 19.919 -65.9161 18.759C-61.0461 17.599 -56.9461 19.0791 -53.4061 22.4391C-49.4061 15.2391 -46.8461 14.2791 -43.0861 18.7791C-43.8661 18.7791 -44.4561 18.7791 -45.0361 18.7791C-48.4161 18.7291 -50.4461 20.609 -50.1261 24.019C-49.6461 29.019 -46.5461 32.4691 -42.4761 34.9691C-39.3361 36.8991 -35.8661 37.999 -32.1561 36.389C-30.0561 35.479 -28.7961 33.919 -28.6861 31.579C-28.5761 29.239 -29.7161 27.5391 -31.6661 26.4091C-34.0561 25.0291 -37.0061 26.6791 -36.8561 29.4291C-36.8061 30.3791 -35.9261 31.8891 -35.1761 32.0591C-34.1961 32.2791 -32.9661 31.439 -31.5461 30.949C-31.6861 31.619 -31.6161 32.8091 -32.1561 33.5591C-33.2461 35.0791 -34.9661 34.819 -36.5261 34.359C-38.7861 33.689 -39.8061 32.1791 -40.1561 29.1291C-41.2561 29.1991 -42.3861 29.3491 -43.4961 29.3191C-45.8161 29.2491 -47.2961 27.8891 -47.4461 25.8191C-47.6061 23.6491 -46.2861 21.789 -44.2261 21.269C-42.4961 20.839 -41.6961 21.4591 -41.4761 23.3191C-42.3161 23.1891 -43.3461 22.7091 -43.9661 23.0291C-44.6461 23.3791 -45.3361 24.4691 -45.3061 25.2191C-45.2861 25.9091 -44.3461 27.1391 -43.7861 27.1491C-42.3561 27.1791 -40.6461 27.049 -39.5161 26.289C-37.1861 24.709 -35.0261 23.0991 -31.9161 24.1491C-33.4561 18.5991 -32.0961 16.509 -27.2261 17.109C-32.0561 21.719 -28.8361 25.6991 -26.4461 29.5891C-24.1661 25.6591 -20.8361 21.6591 -25.8161 16.9991C-20.7261 16.7191 -19.5861 18.4691 -20.9961 24.1491C-18.0061 23.1691 -15.8161 24.5191 -13.6161 26.2091C-12.6561 26.949 -11.2161 27.3291 -9.99612 27.3391C-9.19612 27.3391 -8.03612 26.5491 -7.70612 25.8191C-7.42612 25.2091 -7.88612 23.8691 -8.46613 23.3991C-8.96613 22.9891 -10.0961 23.3191 -10.9461 23.3391C-11.1261 23.3391 -11.3061 23.429 -11.6261 23.519C-11.6061 22.029 -11.0061 21.2291 -9.60612 21.1591C-7.70612 21.0691 -5.78612 22.8491 -5.48611 24.9391C-5.19611 26.9891 -6.48613 28.9091 -8.57613 29.2191C-9.90613 29.4091 -11.2861 29.259 -12.6761 29.259C-13.6261 33.289 -16.0061 35.2791 -19.1861 34.5691C-21.0861 34.1491 -21.6261 33.059 -21.1861 30.609C-21.0561 30.649 -20.8761 30.649 -20.8061 30.739C-19.8661 31.969 -18.7961 33.0391 -17.1961 31.8791C-15.8161 30.8791 -15.7661 29.399 -16.4661 27.979C-17.2461 26.409 -18.4961 25.5291 -20.3561 26.0291C-22.3361 26.5591 -24.0861 28.609 -24.2961 30.769C-24.5061 32.979 -23.7261 35.0191 -21.7161 35.8391C-19.7961 36.6091 -17.4761 37.189 -15.4961 36.859C-9.70613 35.909 -5.86613 32.1591 -3.49612 26.9291C-2.95612 25.7391 -2.74612 24.2491 -2.87611 22.9391C-3.15611 20.1091 -4.87611 18.779 -7.73611 18.789C-8.36611 18.789 -9.00611 18.789 -9.65611 18.789C-6.83611 14.179 -3.78612 15.249 0.383881 22.259C8.05388 15.069 20.1439 18.349 21.7939 28.479C22.7239 23.009 25.5939 19.929 30.5039 18.769C35.3639 17.619 39.4739 19.0791 43.0039 22.4591C46.8639 15.3391 49.8139 14.2491 53.2539 18.8391C52.7039 18.8391 52.3239 18.8591 51.9539 18.8391C47.6339 18.6191 45.3339 21.4191 46.3939 25.5991C47.7939 31.0891 54.1839 36.689 59.8539 37.039C61.5639 37.149 63.4639 36.669 65.0439 35.949C67.1239 34.989 67.9639 33.009 67.6739 30.699C67.4039 28.499 66.1839 26.7991 64.0839 26.2491C63.0439 25.9791 61.3139 26.339 60.6639 27.079C59.9139 27.939 59.5539 29.6491 59.8439 30.7791C60.3939 32.9391 62.4039 32.7991 65.0339 30.7191C64.7239 31.7691 64.7039 33.389 64.0339 33.729C62.8239 34.349 61.1239 34.5991 59.8039 34.2791C57.3639 33.6891 56.2439 31.739 56.2739 29.139C55.0539 29.209 53.9139 29.379 52.7939 29.329C50.5039 29.229 49.0239 27.799 48.9339 25.729C48.8439 23.579 50.2539 21.6591 52.2839 21.2791C53.8939 20.9791 54.9839 21.4391 54.9939 23.3791C54.1439 23.1991 53.1939 22.6891 52.6239 22.9691C51.9139 23.3191 51.1439 24.289 51.0939 25.039C51.0539 25.729 51.9139 27.0891 52.3939 27.0991C53.8939 27.1291 55.6839 27.069 56.8639 26.299C59.2039 24.759 61.3539 23.1091 64.4739 24.1791C62.9539 18.6091 64.2939 16.549 69.2039 17.109C64.2839 21.709 67.5839 25.709 69.9339 29.639C72.1539 25.729 75.5939 21.7591 70.6239 17.0991C75.5439 16.5691 76.8439 18.5591 75.3639 24.2091C78.3939 23.1391 80.6139 24.4691 82.7639 26.2491C83.4539 26.8191 84.4739 27.3091 85.3239 27.2791C86.4339 27.2391 87.7239 26.8791 88.5239 26.1791C88.8939 25.8491 88.6139 24.039 88.0639 23.579C87.3939 23.019 86.1239 23.159 84.8639 22.9591C84.7239 21.5891 85.7439 21.019 87.3739 21.239C89.4839 21.519 91.0639 23.599 90.9139 25.759C90.7739 27.839 89.3039 29.239 87.0139 29.329C85.9439 29.369 84.8739 29.2191 83.7939 29.1491C82.6839 33.3291 80.3539 35.259 77.2239 34.579C75.3339 34.169 74.7639 33.0691 75.1639 30.6191C75.2939 30.6491 75.4939 30.6191 75.5539 30.7091C76.4939 31.909 77.5139 33.0491 79.1539 31.9091C80.5639 30.9191 80.6039 29.439 79.9339 28.019C79.1939 26.429 77.9039 25.479 76.0739 26.039C73.8939 26.709 72.5339 28.2591 72.1639 30.5291C71.7939 32.8291 72.5539 34.949 74.6439 35.829C76.5439 36.629 78.8739 37.1891 80.8539 36.8691C86.6539 35.9391 90.5139 32.1891 92.8739 26.9691C93.4639 25.6691 93.6039 23.9991 93.4339 22.5591C93.1339 20.0591 91.4539 18.8491 88.9139 18.8091C88.2139 18.7991 87.5239 18.8091 86.4739 18.8091C87.7239 17.1791 88.9939 15.9591 90.8539 16.1291C94.4339 16.4691 95.2939 19.6191 96.7439 22.4991C100.314 19.2091 104.364 17.6191 109.204 18.7491C114.194 19.9091 117.124 22.9791 118.114 28.1291C119.104 23.1091 121.924 19.9891 126.874 18.8191C131.744 17.6691 135.834 19.089 139.374 22.449C143.674 15.229 145.974 14.3691 149.754 18.8391C149.034 18.8391 148.524 18.8491 148.014 18.8391C144.144 18.7291 141.984 21.2691 142.704 25.1191C143.794 30.9991 151.054 37.189 157.044 37.109C158.624 37.089 160.334 36.539 161.744 35.789C163.604 34.799 164.374 32.9291 164.114 30.8091C163.834 28.5391 162.584 26.759 160.384 26.229C159.354 25.979 157.634 26.4191 157.004 27.1891C156.284 28.0691 156.044 29.7491 156.294 30.9291C156.634 32.5091 158.514 32.819 159.794 31.759C160.214 31.409 160.554 30.9591 160.984 30.4991C161.504 33.1391 160.884 34.2891 158.844 34.6491C155.664 35.2191 153.184 33.1091 152.584 29.2191C151.414 29.2691 150.214 29.429 149.024 29.359C146.794 29.229 145.344 27.699 145.294 25.609C145.244 23.439 146.934 21.409 149.034 21.229C150.604 21.089 151.444 21.8191 151.424 23.3091C150.424 23.2091 149.374 22.7791 148.744 23.1191C148.074 23.4891 147.414 24.6091 147.464 25.3491C147.504 26.0391 148.524 27.2491 149.054 27.2191C150.634 27.1291 152.464 26.9291 153.674 26.0591C155.834 24.5091 157.914 23.329 160.194 24.009C160.384 22.019 160.104 19.9091 160.914 18.3791C161.474 17.3391 163.574 17.119 164.984 16.539C165.094 16.719 165.194 16.8891 165.304 17.0691C165.034 17.5391 164.784 18.0191 164.474 18.4691C162.654 21.1391 162.404 23.759 164.474 26.479C165.244 27.489 165.704 28.729 166.274 29.789C168.474 25.839 171.984 21.899 167.124 17.269C171.784 16.339 173.374 18.769 171.674 24.289C174.944 23.039 177.154 24.8091 179.484 26.4691C180.364 27.0991 181.654 27.4591 182.734 27.3991C183.564 27.3591 184.704 26.6491 185.044 25.9291C185.334 25.3191 184.924 23.969 184.354 23.479C183.864 23.049 182.724 23.349 181.874 23.359C181.704 23.359 181.534 23.4691 181.234 23.5591C181.154 21.8691 181.964 21.1791 183.434 21.2191C185.424 21.2691 187.174 23.129 187.294 25.229C187.424 27.369 186.134 29.0491 183.964 29.3091C182.704 29.4591 181.404 29.3391 180.094 29.3391C179.294 33.2591 176.754 35.3491 173.554 34.5991C171.674 34.1591 171.064 32.8691 171.714 30.5291C172.074 30.9291 172.374 31.3091 172.724 31.6191C174.154 32.8891 176.104 32.5191 176.424 30.6791C176.624 29.5091 176.254 27.839 175.474 27.009C174.794 26.289 173.094 26.039 172.024 26.289C169.954 26.789 168.534 29.099 168.514 31.259C168.494 33.689 169.644 35.449 171.854 36.359C176.704 38.359 180.894 36.5091 184.454 33.4691C186.524 31.6991 188.244 29.2191 189.384 26.7191C191.514 22.0691 189.014 18.7191 183.944 18.8691C183.684 18.8691 183.434 18.8691 182.804 18.8691C184.184 17.1391 185.514 15.8591 187.484 16.1491C190.894 16.6491 191.744 19.689 193.124 22.539C196.704 19.259 200.744 17.6291 205.584 18.7491C210.554 19.8991 213.554 22.9091 214.494 28.1291C215.524 23.0791 218.394 19.9291 223.374 18.7791C228.164 17.6691 232.214 19.0791 235.834 22.4991C237.414 19.8291 238.164 16.229 241.954 16.199C243.364 16.189 244.784 17.459 246.194 18.139C246.104 18.369 246.014 18.599 245.924 18.829C245.394 18.829 244.864 18.839 244.334 18.829C240.644 18.749 238.524 21.149 239.074 24.789C240.024 31.009 247.744 37.3991 254.004 37.1591C257.284 37.0291 259.744 35.2991 260.434 32.6191C261.004 30.4091 260.034 27.8891 257.874 26.6891C257.004 26.2091 255.534 25.759 254.894 26.169C253.814 26.859 252.814 28.1391 252.484 29.3691C252.284 30.1291 253.254 31.899 253.934 32.039C255.004 32.249 256.274 31.469 257.464 31.109C257.974 32.909 257.434 34.0991 255.554 34.5691C252.354 35.3691 249.824 33.2991 248.984 29.1891C247.774 29.2391 246.554 29.409 245.354 29.329C243.144 29.169 241.714 27.569 241.734 25.479C241.744 23.319 243.544 21.309 245.594 21.199C247.094 21.119 247.824 21.8891 247.944 23.5291C247.104 23.2691 246.204 22.679 245.744 22.919C244.954 23.329 244.014 24.219 243.934 24.989C243.864 25.689 244.864 27.1791 245.354 27.1491C246.994 27.0791 248.914 26.909 250.174 26.019C252.354 24.469 254.424 23.3291 256.734 24.0291C256.844 22.0991 256.434 19.999 257.224 18.549C257.834 17.429 259.944 17.1291 261.384 16.4591C261.504 16.6391 261.624 16.829 261.734 17.009C261.604 17.299 261.514 17.6291 261.324 17.8791C259.034 20.8891 258.724 23.8691 261.254 26.9591C261.904 27.7591 262.204 28.839 262.674 29.829C264.924 25.769 268.474 21.869 263.364 17.139C263.594 16.959 263.814 16.7791 264.044 16.5991C265.464 17.1691 267.564 17.349 268.144 18.389C268.954 19.849 268.644 21.9391 268.834 23.9591C271.344 23.1491 273.694 24.6891 275.994 26.5291C276.584 26.9991 277.484 27.3991 278.184 27.3191C279.304 27.1891 280.584 26.8791 281.364 26.1591C281.734 25.8191 281.424 24.009 280.864 23.549C280.184 22.999 278.914 23.1991 277.814 23.0591C277.754 21.6891 278.564 20.919 280.274 21.239C282.404 21.639 283.864 23.5991 283.704 25.8491C283.554 27.9291 282.094 29.289 279.774 29.359C278.704 29.389 277.634 29.2291 276.564 29.1491C275.614 33.2991 273.204 35.3091 270.034 34.5891C268.124 34.1591 267.504 32.909 268.104 30.449C268.514 30.899 268.824 31.329 269.214 31.669C270.574 32.859 272.434 32.549 272.814 30.799C273.064 29.639 272.754 27.969 272.014 27.109C271.364 26.359 269.684 26.009 268.614 26.239C266.514 26.689 265.034 28.9591 264.934 31.0991C264.824 33.4391 266.044 35.4691 268.344 36.3791C273.294 38.3491 277.424 36.339 281.114 33.299C282.694 31.999 283.914 30.1791 285.044 28.4291C286.564 26.0691 287.124 23.459 285.664 20.829C284.314 18.399 281.904 18.8091 279.464 18.9091C280.404 17.1391 281.774 16.0291 283.574 16.1491C287.294 16.3991 288.144 19.6691 289.554 22.4591C290.274 21.909 290.934 21.3791 291.624 20.8791C296.154 17.6091 302.534 17.6591 306.834 20.8791C309.254 22.6991 310.064 25.379 310.994 28.019V32.359C309.944 35.939 307.824 38.559 304.024 39.789C307.834 41.059 309.914 43.6291 310.994 47.1191V51.459C310.104 54.119 309.334 56.819 306.914 58.6491C302.604 61.9191 296.284 62.019 291.734 58.789C290.994 58.269 290.284 57.7091 289.454 57.0891C288.474 59.9191 287.114 62.249 284.524 63.609H282.784C281.604 62.749 280.424 61.899 279.244 61.039C280.074 60.679 280.644 60.7291 281.214 60.7491C284.514 60.8791 286.424 59.1291 286.404 55.8191C286.404 54.6891 286.184 53.4691 285.694 52.4691C283.384 47.7091 279.914 44.2291 274.644 42.8091C272.234 42.1591 269.904 42.2591 267.714 43.4991C265.704 44.6391 264.724 46.419 264.954 48.729C265.184 51.029 266.514 52.599 268.614 53.449C270.244 54.109 271.944 53.329 272.754 51.639C273.494 50.099 273.424 48.5891 271.914 47.5991C270.264 46.5091 269.264 47.729 268.344 48.9291C268.304 48.979 268.134 48.9191 268.024 48.9091C267.574 46.6891 268.164 45.4491 269.894 44.9991C273.034 44.1891 275.464 46.1791 276.584 50.4091C277.824 50.3491 279.054 50.149 280.254 50.259C282.384 50.459 283.684 51.959 283.714 54.009C283.744 56.179 282.274 58.0491 280.224 58.3391C278.544 58.5791 277.624 57.879 277.604 55.959C277.904 56.079 278.064 56.1891 278.224 56.1891C279.074 56.2291 280.204 56.5891 280.714 56.1891C281.294 55.7391 281.754 54.3991 281.494 53.7791C281.184 53.0591 280.074 52.349 279.244 52.259C278.244 52.149 277.004 52.4291 276.174 52.9991C273.744 54.6391 271.494 56.5991 268.044 55.4091C270.004 60.6591 268.484 62.9591 263.494 62.4991C268.324 57.7991 265.114 53.8291 262.684 49.9091C262.074 51.0391 261.544 52.329 260.744 53.419C258.964 55.859 259.114 58.2391 260.634 60.6891C261.004 61.2891 261.384 61.889 261.784 62.539C257.084 62.919 255.974 61.229 257.204 55.489C254.354 56.289 252.224 55.0691 250.014 53.4691C248.854 52.6291 247.074 52.369 245.574 52.389C244.964 52.389 243.844 53.8691 243.914 54.5891C243.994 55.3691 245.084 56.1991 245.924 56.6791C246.304 56.8991 247.144 56.3091 247.924 56.0291C247.774 58.1191 246.674 58.659 244.974 58.289C243.084 57.879 241.614 55.8591 241.714 53.9391C241.814 51.9891 243.244 50.439 245.334 50.259C246.534 50.159 247.764 50.359 248.974 50.419C249.814 46.319 252.284 44.2591 255.504 44.9991C257.344 45.4191 257.934 46.6591 257.364 48.9391C255.144 46.7891 253.264 46.669 252.694 48.789C252.394 49.909 252.734 51.629 253.474 52.489C254.124 53.239 255.854 53.6491 256.884 53.3691C259.064 52.7791 260.324 50.9791 260.554 48.7191C260.784 46.5191 259.894 44.6191 257.914 43.6591C256.464 42.9591 254.744 42.429 253.164 42.479C247.124 42.669 240.444 48.4691 239.174 54.3491C238.324 58.3091 240.494 60.9291 244.494 60.7491C244.964 60.7291 245.434 60.689 245.914 60.669C245.994 60.819 246.074 60.9691 246.154 61.1191C245.054 61.9591 243.954 62.7891 242.864 63.6291H240.694C238.984 61.6091 237.274 59.579 235.484 57.459C232.254 60.529 228.124 61.9491 223.294 60.8091C218.364 59.6491 215.454 56.4991 214.524 51.4091C213.594 56.6291 210.604 59.6891 205.664 60.8391C200.844 61.9591 196.724 60.479 193.684 57.539C191.754 59.679 189.974 61.6491 188.184 63.6291H186.014C184.994 62.7591 183.964 61.899 182.514 60.669C189.144 60.969 191.684 57.5291 189.214 52.3391C186.714 47.0991 182.714 43.409 176.784 42.639C174.924 42.399 172.774 43.009 171.004 43.789C168.944 44.699 168.124 47.1191 168.634 49.3491C169.114 51.4891 170.464 52.9891 172.564 53.5691C174.374 54.0691 175.664 53.109 176.394 51.509C177.064 50.059 176.934 48.589 175.524 47.639C173.874 46.529 172.874 47.7291 171.924 48.8991C171.874 48.9591 171.674 48.8991 171.444 48.8791C171.114 47.0391 171.464 45.559 173.514 45.019C176.614 44.209 178.964 46.1591 180.204 50.4391C181.374 50.3691 182.524 50.1591 183.664 50.2491C185.814 50.4091 187.204 51.8591 187.304 53.8391C187.414 55.9791 185.984 57.8991 183.974 58.3191C182.204 58.6891 181.434 58.019 181.394 56.479C182.444 56.379 183.714 56.6091 184.394 56.0891C184.964 55.6491 185.324 53.8291 184.964 53.4991C184.194 52.7791 182.924 52.439 181.804 52.299C181.104 52.209 180.204 52.5991 179.604 53.0591C177.294 54.8291 174.994 56.5191 171.674 55.4391C173.534 60.7491 172.144 62.8591 166.984 62.5591C171.994 57.8491 168.564 53.819 166.294 49.859C165.704 50.939 165.174 52.2291 164.384 53.3091C162.544 55.8091 162.644 58.249 164.254 60.759C164.624 61.339 164.974 61.9291 165.384 62.5991C160.474 62.7491 159.344 61.0091 160.864 55.4391C157.744 56.4791 155.594 54.829 153.274 53.259C152.144 52.499 150.424 52.3191 148.994 52.3791C147.684 52.4391 147.074 53.6391 147.484 54.9691C147.894 56.2791 148.744 57.1091 150.264 56.5591C150.614 56.4291 150.924 56.189 151.464 55.889C151.384 58.029 150.364 58.5991 148.734 58.3191C146.744 57.9791 145.214 55.9691 145.304 53.8991C145.394 51.9191 146.784 50.409 148.904 50.239C150.094 50.139 151.314 50.3391 152.514 50.4091C153.304 46.3591 155.874 44.239 159.084 44.979C160.914 45.399 161.494 46.639 160.924 49.049C160.494 48.599 160.154 48.149 159.724 47.799C158.434 46.759 156.564 47.119 156.254 48.709C156.024 49.899 156.364 51.419 156.984 52.489C157.734 53.779 159.224 53.9891 160.644 53.3491C162.734 52.4091 163.984 50.7691 164.124 48.4991C164.264 46.2991 163.314 44.469 161.314 43.519C160.044 42.909 158.574 42.4691 157.184 42.4391C151.204 42.3091 143.724 48.619 142.664 54.509C141.964 58.439 144.224 60.9491 148.244 60.7191C148.684 60.6891 149.124 60.7191 150.214 60.7191C148.624 61.9591 147.554 62.779 146.494 63.609H144.324C142.574 61.599 140.824 59.5891 139.084 57.5991C132.204 64.2791 119.794 61.6591 118.064 51.4991C116.384 61.5591 104.074 64.3691 97.0839 57.6191C95.3339 59.6091 93.5739 61.609 91.8139 63.609H89.6439C88.5739 62.739 87.5039 61.869 86.1039 60.739C92.8239 60.829 95.3139 57.379 92.6639 52.079C90.1539 47.049 86.2639 43.4391 80.5039 42.6491C78.6939 42.3991 76.6239 42.8791 74.8839 43.5691C72.8539 44.3691 71.9339 46.299 72.0739 48.519C72.2139 50.819 73.4639 52.4391 75.5339 53.3791C77.2039 54.1291 78.8739 53.519 79.7639 51.859C80.5439 50.389 80.6339 48.8591 79.2139 47.7491C77.5139 46.4291 76.4639 47.7791 75.4339 48.9291C75.3839 48.9891 75.1839 48.9191 75.0239 48.8991C74.6739 47.0491 75.0139 45.399 77.1039 45.079C78.3039 44.889 79.9739 44.989 80.7939 45.699C82.2039 46.909 83.1139 48.6891 84.3539 50.4091C84.8439 50.3691 85.8439 50.1891 86.8439 50.2191C89.1539 50.2891 90.6139 51.609 90.8439 53.699C91.0639 55.669 89.8039 57.599 87.8739 58.239C86.0739 58.829 85.0839 58.1391 84.9939 56.5891C86.0539 56.4391 87.3239 56.6191 88.0039 56.0591C88.5639 55.5991 88.8639 53.779 88.4939 53.449C87.7039 52.749 86.4039 52.379 85.2939 52.329C84.4439 52.289 83.4139 52.7591 82.7339 53.3191C80.5939 55.1091 78.3539 56.359 75.3839 55.509C76.7239 61.129 75.4339 63.059 70.5739 62.459C75.6139 57.799 71.9939 53.8391 69.8339 49.8191C69.2539 50.9091 68.7839 52.159 68.0139 53.169C66.0339 55.799 66.1839 58.359 67.9239 60.989C68.2539 61.489 68.5539 62.0091 68.9239 62.6191C63.9539 62.6991 62.8239 60.9291 64.4239 55.4291C61.2939 56.479 59.1439 54.849 56.8139 53.289C55.6839 52.529 53.9639 52.369 52.5339 52.4291C51.9639 52.4491 50.9939 53.839 51.0439 54.549C51.0939 55.309 52.0039 56.2191 52.7739 56.6491C53.2339 56.909 54.1339 56.3591 54.9139 56.1491C54.9639 58.1091 53.8439 58.5791 52.2539 58.3191C50.2439 57.9991 48.7539 56.0191 48.8439 53.9091C48.9239 51.9191 50.3139 50.419 52.4339 50.259C53.6239 50.169 54.8439 50.369 56.0439 50.4291C56.8239 46.3791 59.3839 44.2691 62.6039 44.9991C64.4539 45.4191 65.0639 46.709 64.4639 49.079C64.0339 48.629 63.6939 48.1891 63.2739 47.8491C61.9839 46.8091 60.1239 47.139 59.8039 48.729C59.5639 49.909 59.9039 51.429 60.5039 52.509C61.2439 53.819 62.7439 54.0391 64.1539 53.3991C66.1339 52.5091 67.3939 50.9991 67.6139 48.7791C67.8339 46.5591 67.0139 44.6791 65.0439 43.6791C63.6739 42.9791 62.0339 42.479 60.5139 42.479C54.6139 42.459 47.4039 48.549 46.2539 54.299C45.4339 58.369 47.6639 60.9791 51.7639 60.7491C52.2039 60.7191 52.6539 60.7491 53.6739 60.7491C52.1939 61.9491 51.1539 62.7891 50.1239 63.6291H47.9539C46.1839 61.6491 44.4039 59.659 42.6339 57.6791C35.2239 64.799 23.0039 60.9391 21.5939 51.4391C20.6939 56.4791 17.8239 59.629 12.8639 60.789C8.00388 61.919 3.81388 60.539 0.713882 57.489C-1.18612 59.699 -2.87613 61.6591 -4.57613 63.6191H-6.74612C-7.83612 62.7791 -8.91612 61.9291 -10.3561 60.8091C-3.40613 60.5991 -1.11612 57.0491 -4.00612 51.6891C-6.60612 46.8691 -10.3961 43.3791 -15.9861 42.6491C-17.8561 42.4091 -19.9961 42.9391 -21.7861 43.6791C-23.8061 44.5191 -24.6461 46.5191 -24.4161 48.7191C-24.1761 50.9791 -22.8761 52.5991 -20.7561 53.4391C-19.0961 54.0991 -17.4361 53.3491 -16.6161 51.6491C-15.9161 50.2091 -15.9261 48.759 -17.2561 47.729C-18.9461 46.409 -20.0161 47.719 -21.0461 48.889C-21.0961 48.939 -21.2861 48.8691 -21.4361 48.8491C-21.7861 46.9991 -21.4761 45.349 -19.3561 45.049C-18.1561 44.879 -16.4861 44.9791 -15.6661 45.6891C-14.2761 46.8991 -13.3861 48.679 -12.1661 50.389C-11.6061 50.349 -10.5261 50.159 -9.46613 50.209C-7.21613 50.319 -5.71612 51.769 -5.58612 53.829C-5.45612 55.779 -6.85612 57.7391 -8.74612 58.2491C-10.5661 58.7391 -11.4461 58.0691 -11.5461 56.5991C-10.4161 56.3891 -9.17612 56.4691 -8.37611 55.9091C-7.86611 55.5491 -7.60612 53.769 -7.94612 53.489C-8.77612 52.799 -9.99612 52.4591 -11.1161 52.2791C-11.7461 52.1791 -12.5761 52.519 -13.1361 52.919C-15.5261 54.609 -17.7861 56.5791 -21.2161 55.4291C-19.4761 60.8091 -20.9661 63.019 -25.5061 62.489C-23.6728 58.9624 -24.0361 54.7724 -26.5961 49.919C-28.9961 53.869 -32.1561 57.869 -27.5861 62.789C-29.3861 62.439 -31.4961 62.1991 -32.0861 61.1191C-32.8861 59.6691 -32.5161 57.5691 -32.6561 55.6191C-35.0061 56.2691 -37.1461 55.069 -39.3461 53.459C-40.4961 52.6091 -42.2761 52.419 -43.7961 52.359C-44.3561 52.339 -45.4261 53.5391 -45.4261 54.1791C-45.4261 54.9991 -44.7461 56.109 -44.0261 56.539C-43.4761 56.869 -42.4161 56.319 -41.5161 56.1491C-41.5361 58.1691 -42.7161 58.619 -44.3961 58.269C-46.4061 57.849 -47.7561 55.8691 -47.5961 53.7191C-47.4461 51.7391 -46.0361 50.3391 -43.8661 50.2191C-42.6861 50.1591 -41.4961 50.349 -40.2261 50.4291C-40.3061 47.739 -39.1261 45.839 -36.6861 45.269C-35.3661 44.959 -33.6761 45.2391 -32.4761 45.8691C-31.8161 46.2191 -31.8161 47.8391 -31.5361 48.8491C-32.9961 48.1791 -34.0261 47.399 -35.0861 47.359C-35.6761 47.339 -36.8261 48.529 -36.8361 49.1791C-36.8561 50.3591 -36.5161 51.8591 -35.7461 52.6291C-35.0561 53.3091 -33.4461 53.6291 -32.4661 53.3391C-30.4061 52.7391 -29.1461 51.0691 -28.8661 48.8791C-28.5761 46.6691 -29.3661 44.749 -31.3161 43.729C-32.7361 42.989 -34.4561 42.4491 -36.0361 42.4591C-41.8461 42.4791 -48.7761 48.2491 -50.1361 53.9291C-51.1761 58.299 -48.9061 60.9791 -44.4161 60.6891C-44.0961 60.6691 -43.7761 60.6891 -42.8361 60.6891C-44.2761 61.9091 -45.2761 62.7591 -46.2761 63.5991H-48.4461C-50.2661 61.5991 -52.0861 59.5991 -53.9061 57.5991C-60.8461 64.3091 -73.1861 61.5191 -74.8961 51.4691C-75.1561 50.2991 -74.8461 47.229 -74.8461 47.229C-74.0061 43.309 -71.5161 41.2091 -67.5161 39.7791C-71.5861 38.3891 -74.0161 36.199 -74.8761 32.389C-74.8761 32.389 -75.0961 28.939 -74.8761 28.019L-74.7061 27.979ZM222.054 39.7191C217.824 38.4491 215.504 36.0591 214.534 32.3391C213.774 36.2991 211.154 38.3591 207.274 39.8091C211.334 41.1291 213.714 43.3591 214.604 47.1491C215.464 43.3291 217.924 41.1291 222.054 39.7191ZM110.754 39.759C114.924 41.139 117.324 43.3991 118.164 47.2491C118.964 43.3691 121.464 41.109 125.584 39.759C121.374 38.349 118.994 36.069 118.154 32.259C117.334 36.119 114.904 38.379 110.754 39.769V39.759ZM29.1539 39.759C25.0439 38.419 22.5639 36.1891 21.7339 32.3191C20.8639 36.1891 18.3839 38.3991 14.3039 39.7791C18.4539 41.1191 20.8539 43.3891 21.7339 47.2091C22.5739 43.3691 24.9939 41.149 29.1439 39.759H29.1539Z" fill="#7CB0FA"/>
<path d="M1052.85 38.259C1052.16 37.269 1051.59 36.519 1051.1 35.729C1048.98 32.309 1049.8 29.8891 1053.53 28.3791C1054.33 28.0591 1055.21 27.7991 1055.87 27.2791C1056.43 26.8391 1056.93 26.109 1057.07 25.419C1057.13 25.109 1056.26 24.289 1055.79 24.269C1055.1 24.239 1054.27 24.579 1053.71 25.019C1053.23 25.399 1053.04 26.149 1052.63 26.889C1051.67 24.819 1052.31 23.4591 1053.99 22.5291C1055.6 21.6391 1057.81 22.2291 1058.82 23.7191C1059.94 25.3691 1059.52 26.7191 1057.31 28.6291C1060.02 30.4891 1060.5 31.4591 1059.48 32.9691C1058.39 34.5591 1056.54 34.8591 1054.72 33.5891C1055.13 33.4391 1055.53 33.409 1055.74 33.199C1056.32 32.589 1056.83 31.9091 1057.36 31.2491C1056.53 30.8591 1055.67 30.0891 1054.86 30.1491C1052.5 30.2991 1051.3 32.919 1052.31 35.269C1053.88 38.899 1058.72 39.539 1061.52 36.479C1064.79 32.899 1064.79 26.5691 1061.52 23.1591C1058.17 19.6691 1052.38 19.4391 1048.62 22.9391C1045.83 25.5491 1043.29 28.439 1040.78 31.329C1038.08 34.429 1035.08 37.139 1031.18 38.549C1029.4 39.189 1027.37 39.6391 1025.52 39.4591C1021.71 39.0891 1019.07 36.909 1017.99 32.769C1017.75 33.379 1017.64 33.6391 1017.54 33.8991C1015.86 38.1391 1011.95 40.249 1007.49 39.359C1001.91 38.249 998.034 34.6891 994.474 30.5591C992.074 27.7691 989.604 24.999 986.844 22.579C983.064 19.269 977.074 19.8891 974.004 23.5691C970.894 27.2991 971.344 33.829 974.934 37.019C977.744 39.519 982.234 38.5591 983.654 35.1591C984.664 32.7291 983.194 30.049 980.744 30.109C979.994 30.129 979.264 30.9091 978.524 31.3391C979.024 31.9491 979.484 32.5991 980.034 33.1591C980.284 33.4091 980.734 33.4591 981.224 33.6591C979.244 34.8591 977.354 34.5591 976.394 32.8991C974.984 30.4491 977.214 29.709 978.624 28.639C976.434 26.829 975.994 25.4791 977.014 23.8491C978.014 22.2391 980.314 21.5891 981.974 22.5691C983.614 23.5291 984.244 24.8991 983.264 26.8791C982.844 26.1391 982.634 25.349 982.114 24.949C981.554 24.519 980.714 24.279 979.994 24.289C979.574 24.289 978.774 25.0491 978.834 25.3191C978.984 26.0091 979.384 26.8091 979.944 27.2091C980.814 27.819 981.894 28.1291 982.884 28.5591C985.844 29.8591 986.694 32.2491 985.154 35.0891C984.574 36.1591 983.844 37.1391 983.144 38.2191C989.664 37.5191 991.114 35.8691 990.434 30.8391C991.334 31.9191 992.484 33.1491 992.474 34.3691C992.474 35.6891 991.374 36.9991 990.904 37.9991C993.944 38.4191 997.024 38.839 1000.09 39.259V40.259C996.954 40.689 993.814 41.109 990.824 41.519C993.244 46.109 993.204 46.679 990.134 48.579C990.754 43.319 989.034 41.489 983.174 41.389C983.744 42.229 984.294 42.959 984.774 43.729C986.904 47.159 986.114 49.6091 982.414 51.1191C981.544 51.4691 980.644 51.799 979.864 52.299C978.994 52.859 978.034 53.8091 979.174 54.6891C979.784 55.1591 981.154 54.9691 982.014 54.6491C982.564 54.4491 982.814 53.4491 983.254 52.709C983.984 54.889 983.534 56.1691 981.864 56.9991C980.264 57.7991 978.254 57.329 977.184 55.919C975.974 54.319 976.344 52.9191 978.224 51.1191C977.444 49.9291 976.244 48.8591 976.134 47.6791C976.064 46.9191 977.434 45.739 978.414 45.239C979.104 44.889 980.214 45.3591 981.134 45.4591C981.104 45.6491 981.084 45.849 981.054 46.039C980.774 46.109 980.394 46.079 980.234 46.259C979.644 46.919 979.114 47.649 978.574 48.359C979.434 48.699 980.324 49.4091 981.134 49.3191C983.434 49.0691 984.554 46.629 983.624 44.329C982.094 40.559 977.164 39.889 974.314 43.079C971.074 46.709 971.134 52.999 974.434 56.389C977.884 59.919 983.474 60.089 987.324 56.509C989.964 54.059 992.164 51.139 994.794 48.669C997.504 46.119 1000.22 43.379 1003.42 41.579C1009.77 38.029 1014.84 39.929 1017.96 46.359C1020.62 40.329 1025.37 38.449 1031.53 41.039C1035.2 42.589 1038.11 45.1391 1040.72 48.1191C1043.39 51.1591 1046.07 54.219 1049.06 56.919C1052.76 60.259 1058.79 59.6091 1061.88 55.8991C1065.04 52.0991 1064.5 45.3891 1060.77 42.3091C1058.03 40.0491 1053.76 40.9791 1052.33 44.1491C1051.39 46.2391 1052.17 48.5491 1054.14 49.2191C1055.35 49.6291 1056.74 49.8491 1057.26 48.3091C1057.74 46.8691 1056.46 46.5291 1055.41 46.1891C1055.2 46.1191 1054.99 46.0291 1054.65 45.8991C1056.54 44.6391 1058.5 44.9291 1059.48 46.5691C1060.92 48.9891 1058.75 49.7691 1057.31 50.8191C1059.55 52.8191 1059.93 54.1791 1058.77 55.8191C1057.7 57.3391 1055.58 57.8391 1053.93 56.959C1052.3 56.0891 1051.88 54.6991 1052.7 52.7191C1053.03 53.3391 1053.19 54.089 1053.65 54.419C1054.29 54.869 1055.14 55.169 1055.92 55.209C1056.31 55.229 1057.13 54.429 1057.06 54.169C1056.89 53.479 1056.48 52.699 1055.91 52.289C1055.11 51.709 1054.11 51.399 1053.17 51.009C1049.95 49.659 1049.1 47.2591 1050.81 44.2091C1051.32 43.2991 1051.92 42.4491 1052.55 41.4691C1046.92 41.3891 1045.01 43.4491 1045.83 49.2191C1044.78 47.8991 1043.49 46.999 1043.53 46.169C1043.61 44.449 1044.4 42.7591 1044.77 41.4991C1042.01 41.1191 1038.9 40.6791 1035.79 40.2491C1035.79 39.9091 1035.79 39.5791 1035.79 39.239C1038.92 38.8291 1042.04 38.409 1045.1 38.009C1042.55 33.909 1042.64 32.7991 1045.77 30.9291C1045 36.1291 1046.32 37.549 1052.83 38.259H1052.85ZM1210.51 45.889C1211.94 44.329 1213.18 42.3991 1214.92 41.2191C1217.68 39.3391 1220.85 39.6891 1223.88 40.8491C1227.9 42.3991 1231 45.1491 1233.8 48.3491C1236.41 51.3291 1239.05 54.349 1242 56.979C1245.73 60.309 1251.75 59.609 1254.8 55.859C1257.94 51.999 1257.35 45.309 1253.61 42.289C1250.57 39.829 1245.78 41.3391 1244.9 45.0291C1244.42 47.0491 1245.5 49.069 1247.48 49.289C1248.35 49.389 1249.31 48.6591 1250.23 48.3091C1249.66 47.6191 1249.11 46.8991 1248.49 46.2491C1248.31 46.0591 1247.95 46.0491 1247.52 45.9091C1249.4 44.6491 1251.29 44.969 1252.37 46.549C1253.41 48.059 1252.89 49.069 1250.2 50.829C1252.37 52.799 1252.77 54.129 1251.68 55.759C1250.62 57.349 1248.35 57.8591 1246.68 56.8791C1245.14 55.9791 1244.81 54.829 1245.62 52.829C1245.92 53.389 1246.07 54.049 1246.48 54.329C1247.14 54.779 1247.95 55.1791 1248.72 55.209C1249.14 55.229 1250 54.329 1249.93 54.019C1249.78 53.339 1249.27 52.589 1248.69 52.199C1247.8 51.609 1246.72 51.3191 1245.74 50.8691C1243 49.6291 1242.15 47.329 1243.51 44.639C1244.08 43.519 1244.84 42.4991 1245.52 41.4391C1245.43 41.2691 1245.34 41.0991 1245.25 40.9291C1243.4 41.6291 1241.11 41.8791 1239.82 43.1491C1238.65 44.2991 1238.56 46.5591 1237.97 48.3991C1237.53 47.7991 1236.28 46.8491 1236.34 45.9991C1236.47 44.3291 1237.33 42.7191 1237.74 41.4991C1234.92 41.1091 1231.79 40.6791 1228.66 40.2491C1228.66 39.9191 1228.66 39.5891 1228.66 39.2491C1231.79 38.8291 1234.91 38.4091 1237.95 37.9991C1235.43 33.6691 1235.48 32.9191 1238.59 30.9591C1238.16 36.3391 1239.55 37.7891 1245.64 38.1791C1245.03 37.2791 1244.43 36.479 1243.92 35.639C1241.91 32.339 1242.75 29.8591 1246.32 28.3991C1247.19 28.0491 1248.13 27.759 1248.85 27.199C1249.39 26.769 1249.78 25.979 1249.91 25.289C1249.96 25.019 1249.16 24.269 1248.75 24.269C1248.04 24.269 1247.23 24.5391 1246.64 24.9591C1246.14 25.3091 1245.91 26.019 1245.43 26.759C1244.92 24.289 1245.43 23.089 1247.12 22.389C1248.76 21.709 1250.78 22.309 1251.72 23.769C1252.77 25.389 1252.35 26.7391 1250.2 28.6591C1252.93 30.4491 1253.43 31.4391 1252.36 32.9591C1251.23 34.5691 1249.4 34.8591 1247.67 33.5991C1247.98 33.4591 1248.27 33.409 1248.44 33.239C1249.07 32.5991 1249.66 31.909 1250.26 31.239C1249.28 30.879 1248.23 30.089 1247.33 30.239C1245.05 30.609 1244.15 33.379 1245.35 35.639C1247.22 39.129 1251.99 39.409 1254.65 36.169C1257.73 32.429 1257.55 26.2891 1254.26 23.0291C1250.79 19.5991 1245.15 19.469 1241.36 23.039C1238.58 25.659 1236.06 28.5591 1233.54 31.4391C1230.88 34.4791 1227.93 37.149 1224.1 38.509C1222.26 39.159 1220.16 39.5691 1218.24 39.3991C1214.46 39.0691 1211.95 36.7991 1210.86 32.8391C1208.48 38.8191 1204.05 40.8491 1198.24 38.8191C1193.94 37.3191 1190.69 34.419 1187.75 31.039C1185.19 28.099 1182.59 25.1591 1179.7 22.5591C1176 19.2391 1169.95 19.879 1166.87 23.579C1163.7 27.399 1164.24 34.0691 1167.98 37.1591C1170.6 39.3291 1174.59 38.6291 1176.24 35.7191C1177.69 33.1491 1176.29 30.0691 1173.56 30.0891C1172.85 30.0891 1172.14 30.7791 1171.42 31.1591C1171.85 31.8091 1172.22 32.5091 1172.73 33.0891C1173.01 33.3991 1173.53 33.4791 1174.08 33.7191C1172.03 34.8391 1170.14 34.4891 1169.21 32.8491C1167.82 30.3691 1170.14 29.7091 1171.51 28.6191C1169.17 26.7491 1168.77 25.399 1169.98 23.669C1171.03 22.169 1173.18 21.6691 1174.82 22.5291C1176.46 23.3891 1176.87 24.7791 1176 26.7191C1175.68 26.1191 1175.53 25.369 1175.07 25.049C1174.43 24.609 1173.57 24.329 1172.79 24.299C1172.41 24.289 1171.62 25.0991 1171.69 25.3691C1171.87 26.0591 1172.28 26.859 1172.85 27.239C1173.79 27.869 1174.94 28.1891 1175.99 28.6791C1178.64 29.9091 1179.48 32.1491 1178.18 34.7491C1177.59 35.9291 1176.78 36.999 1176.01 38.229C1182.37 37.529 1183.48 36.3391 1183.05 30.9691C1186.11 32.9191 1186.16 33.659 1183.68 37.989C1186.73 38.4191 1189.89 38.859 1193.05 39.299C1193.03 39.629 1193.02 39.959 1193 40.289C1189.84 40.699 1186.68 41.109 1183.64 41.509C1186.14 45.749 1186.06 46.9391 1182.96 48.4991C1183.7 43.4791 1181.12 40.849 1176.14 41.609C1176.65 42.329 1177.17 43.0091 1177.62 43.739C1179.74 47.139 1178.93 49.6391 1175.26 51.1291C1174.39 51.4791 1173.5 51.8191 1172.72 52.3191C1171.82 52.8891 1170.94 53.8591 1172.05 54.709C1172.65 55.169 1174.01 54.9491 1174.89 54.6291C1175.42 54.4391 1175.68 53.4891 1176.18 52.6791C1176.95 54.759 1176.38 56.0791 1174.78 56.9691C1173.23 57.8291 1171.12 57.4191 1170.11 55.9691C1169.68 55.3491 1169.21 54.389 1169.4 53.799C1169.78 52.669 1170.62 51.6991 1171.04 51.0291C1170.26 49.9191 1169.04 48.9091 1168.95 47.8091C1168.89 46.9991 1170.18 45.819 1171.14 45.299C1171.84 44.919 1172.98 45.3391 1173.92 45.3991C1173.9 45.5991 1173.89 45.809 1173.87 46.009C1173.61 46.089 1173.25 46.089 1173.09 46.269C1172.49 46.929 1171.96 47.659 1171.4 48.359C1172.33 48.699 1173.32 49.429 1174.17 49.289C1176.66 48.879 1177.57 45.919 1176.1 43.579C1174.06 40.329 1169.63 40.1691 1167.03 43.2491C1163.85 47.0191 1164.04 53.259 1167.43 56.549C1170.99 59.999 1176.48 60.049 1180.33 56.389C1183 53.859 1185.44 51.079 1187.85 48.299C1190.94 44.729 1194.42 41.759 1199.03 40.419C1204.38 38.859 1208.82 41.129 1210.48 45.889H1210.51ZM1077.71 45.9691C1077.21 46.1091 1076.83 46.089 1076.67 46.269C1076.08 46.939 1075.57 47.6691 1075.02 48.3791C1075.95 48.6991 1076.94 49.419 1077.79 49.269C1080.2 48.859 1081.12 46.049 1079.78 43.729C1077.83 40.339 1073.26 40.119 1070.61 43.269C1067.5 46.969 1067.64 53.1191 1070.91 56.4091C1074.39 59.9191 1079.95 60.089 1083.8 56.489C1086.54 53.929 1088.8 50.8691 1091.55 48.3191C1094.27 45.7891 1097.06 43.1191 1100.3 41.3991C1106.48 38.1091 1111.5 40.109 1114.46 46.479C1115.71 42.269 1118.54 40.0491 1122.75 40.0291C1124.64 40.0191 1126.63 40.549 1128.39 41.269C1132.22 42.839 1135.08 45.699 1137.76 48.799C1140.21 51.639 1142.73 54.4591 1145.53 56.9391C1149.26 60.2391 1155.31 59.5791 1158.35 55.8791C1161.5 52.0391 1160.94 45.359 1157.2 42.299C1154.32 39.939 1149.77 41.1391 1148.6 44.5591C1147.92 46.5291 1148.76 48.5891 1150.59 49.2191C1151.82 49.6491 1153.25 49.799 1153.65 48.289C1153.79 47.789 1152.52 46.889 1151.86 46.199C1151.72 46.049 1151.44 46.039 1151.1 45.919C1152.93 44.619 1154.8 44.919 1155.91 46.519C1156.94 48.0191 1156.44 49.049 1153.78 50.829C1155.92 52.809 1156.32 54.189 1155.24 55.769C1154.2 57.289 1152.04 57.869 1150.42 56.959C1148.75 56.0191 1148.11 54.6591 1149.04 52.6291C1149.46 53.3691 1149.68 54.149 1150.19 54.539C1150.75 54.969 1151.59 55.219 1152.31 55.209C1152.73 55.209 1153.54 54.4491 1153.48 54.1891C1153.33 53.4991 1152.94 52.689 1152.38 52.289C1151.52 51.679 1150.44 51.3591 1149.44 50.9291C1146.46 49.6291 1145.6 47.289 1147.14 44.419C1147.7 43.379 1148.42 42.4291 1149.06 41.4291C1148.94 41.2191 1148.81 41.009 1148.69 40.799C1146.71 41.689 1144.36 42.1891 1142.87 43.5991C1141.86 44.5591 1142.07 46.789 1141.63 48.949C1140.95 47.549 1139.83 46.279 1139.85 45.019C1139.87 43.709 1140.99 42.419 1141.44 41.509C1138.42 41.089 1135.31 40.6491 1132.2 40.2191C1132.2 39.8891 1132.2 39.5491 1132.2 39.2191C1135.33 38.8091 1138.46 38.389 1141.52 37.989C1138.96 33.8491 1139.05 32.709 1142.16 30.979C1141.05 36.279 1143.35 37.5791 1149.19 38.1891C1148.58 37.2791 1147.99 36.4791 1147.47 35.6191C1145.43 32.2691 1146.23 29.8591 1149.82 28.3791C1150.69 28.0191 1151.63 27.7491 1152.36 27.1891C1152.91 26.7591 1153.32 25.989 1153.47 25.299C1153.53 25.029 1152.74 24.269 1152.33 24.259C1151.62 24.239 1150.77 24.4791 1150.21 24.9091C1149.69 25.3091 1149.48 26.0991 1149.04 26.8791C1148.12 24.8991 1148.66 23.519 1150.31 22.549C1151.9 21.619 1154.1 22.139 1155.16 23.609C1156.3 25.189 1155.91 26.5991 1153.77 28.6791C1156.41 30.3891 1156.95 31.4991 1155.85 32.9991C1154.67 34.6091 1152.84 34.849 1151.21 33.509C1151.6 33.379 1152.03 33.3691 1152.23 33.1491C1152.79 32.5291 1153.25 31.8291 1153.75 31.1591C1152.97 30.7891 1152.19 30.0791 1151.42 30.0991C1149.12 30.1591 1147.78 32.569 1148.58 34.889C1149.73 38.239 1154.14 39.499 1157.01 37.299C1160.81 34.399 1161.53 27.689 1158.46 23.759C1155.46 19.909 1149.24 19.189 1145.5 22.519C1142.87 24.859 1140.42 27.4591 1138.15 30.1591C1135.12 33.7491 1131.85 37.0091 1127.36 38.5991C1125.59 39.2291 1123.55 39.5491 1121.7 39.3691C1117.94 39.0091 1115.5 36.7091 1114.38 32.8091C1112.17 38.6491 1107.81 40.7491 1102.16 38.9291C1097.9 37.5491 1094.62 34.789 1091.69 31.479C1089.01 28.449 1086.35 25.3691 1083.37 22.6591C1079.67 19.2791 1073.65 19.8091 1070.52 23.4391C1067.35 27.1191 1067.69 33.6291 1071.24 36.8991C1073.89 39.3491 1078.11 38.7391 1079.81 35.6591C1080.91 33.6591 1080.36 31.2791 1078.5 30.3991C1077.27 29.8191 1075.78 29.5091 1075.1 31.0291C1074.42 32.5591 1075.83 32.939 1076.96 33.289C1077.14 33.349 1077.29 33.489 1077.48 33.609C1075.82 34.859 1074.02 34.589 1072.86 32.979C1071.78 31.479 1072.29 30.4491 1074.97 28.6491C1072.72 26.5591 1072.35 25.1791 1073.61 23.5591C1074.81 22.0191 1077.1 21.579 1078.66 22.699C1080.09 23.719 1080.67 25.039 1079.63 26.769C1079.17 25.999 1078.9 24.9491 1078.33 24.7491C1077.48 24.4491 1076.42 24.7591 1075.45 24.8091C1075.7 25.5891 1075.73 26.6491 1076.26 27.0891C1077.12 27.7991 1078.31 28.0891 1079.37 28.5591C1082.25 29.8391 1083.1 32.1291 1081.65 34.9291C1081.07 36.0391 1080.31 37.0591 1079.58 38.2191C1086 37.5291 1087.39 36.029 1086.66 30.759C1087.51 31.559 1088.82 32.4991 1088.8 33.3991C1088.76 35.0491 1087.92 36.679 1087.51 38.009C1090.32 38.409 1093.44 38.8391 1096.56 39.2791C1096.55 39.6091 1096.54 39.9491 1096.52 40.2791C1093.38 40.6791 1090.23 41.089 1087.19 41.479C1089.71 45.639 1089.61 46.9591 1086.48 48.4991C1087.42 43.5191 1085.12 41.129 1079.64 41.489C1080.24 42.3491 1080.85 43.139 1081.35 43.989C1083.26 47.209 1082.41 49.6191 1078.93 51.0691C1078 51.4591 1076.93 51.729 1076.23 52.389C1075.71 52.879 1075.69 53.8991 1075.44 54.6891C1076.41 54.7291 1077.48 55.0191 1078.33 54.7191C1078.9 54.5191 1079.18 53.4891 1079.6 52.8091C1080.4 54.6691 1080.05 55.9491 1078.54 56.8691C1076.88 57.8691 1074.62 57.3891 1073.51 55.8191C1072.37 54.1891 1072.74 52.8491 1074.9 50.8791C1072.25 48.9691 1071.8 48.039 1072.8 46.549C1073.87 44.959 1075.77 44.6491 1077.66 45.9591L1077.71 45.9691ZM956.194 52.729C956.684 53.519 956.964 54.5291 957.524 54.7191C958.394 55.0091 959.444 54.739 960.424 54.699C960.174 53.909 960.154 52.879 959.624 52.389C958.934 51.729 957.854 51.459 956.924 51.079C953.464 49.649 952.614 47.1991 954.524 43.989C955.044 43.1091 955.654 42.2891 956.224 41.4391C956.084 41.2291 955.934 41.009 955.794 40.799C953.814 41.709 951.474 42.2291 949.994 43.6591C949.004 44.6191 949.254 46.8491 948.914 48.6491C948.344 47.9191 947.064 47.0091 947.104 46.1591C947.184 44.4391 947.984 42.7591 948.354 41.489C945.604 41.1091 942.494 40.6691 939.394 40.239V39.2191C942.524 38.8091 945.644 38.3991 948.714 37.9991C946.084 33.9791 946.184 32.7891 949.374 30.8991C948.574 36.0291 950.724 38.289 956.274 38.039C955.674 37.179 955.054 36.3891 954.544 35.5291C952.624 32.3091 953.454 29.849 956.904 28.419C957.774 28.059 958.714 27.789 959.444 27.239C960.004 26.819 960.494 26.0591 960.614 25.3791C960.674 25.0591 959.794 24.249 959.324 24.239C958.634 24.219 957.824 24.579 957.254 25.019C956.784 25.389 956.604 26.109 956.174 26.889C955.284 24.689 955.954 23.3391 957.644 22.4591C959.214 21.6391 961.274 22.199 962.304 23.609C963.504 25.259 963.144 26.549 960.894 28.669C963.554 30.369 964.094 31.479 963.014 32.979C961.854 34.589 960.024 34.849 958.324 33.509C958.724 33.379 959.144 33.3591 959.344 33.1491C959.914 32.5291 960.394 31.839 960.904 31.169C960.054 30.799 959.174 30.0491 958.364 30.1191C955.864 30.3291 954.734 33.2691 956.074 35.6791C958.044 39.2191 962.904 39.3391 965.524 35.9091C968.484 32.0191 968.114 25.899 964.714 22.789C961.144 19.519 955.724 19.529 951.964 23.079C949.344 25.549 946.934 28.269 944.584 31.009C941.854 34.179 938.854 37.009 934.884 38.449C933.044 39.119 930.944 39.579 929.034 39.419C925.264 39.089 922.664 36.8891 921.534 32.7491C921.224 33.5291 921.104 33.8591 920.974 34.1891C919.474 37.9991 915.374 40.1691 911.364 39.4091C905.854 38.3691 901.934 35.009 898.384 30.949C895.774 27.959 893.124 24.959 890.144 22.359C886.424 19.119 880.294 19.9991 877.374 23.8091C874.384 27.7091 875.054 34.239 878.754 37.199C881.734 39.579 886.394 38.179 887.384 34.609C887.934 32.629 886.914 30.449 885.024 30.2091C884.104 30.0891 883.074 30.8591 882.084 31.2191C882.684 31.8891 883.274 32.5691 883.904 33.2191C884.074 33.3891 884.364 33.439 884.674 33.579C882.974 34.829 881.264 34.6591 880.134 33.0991C878.264 30.5391 880.814 29.749 882.204 28.549C880.044 26.869 879.604 25.559 880.534 23.919C881.484 22.249 883.714 21.5491 885.444 22.4691C887.134 23.3591 887.674 24.7391 886.864 26.8991C886.424 26.0891 886.254 25.359 885.804 25.049C885.154 24.609 884.304 24.309 883.524 24.269C883.144 24.249 882.344 25.059 882.414 25.329C882.584 26.019 882.984 26.8291 883.554 27.2091C884.494 27.8391 885.644 28.159 886.694 28.639C889.344 29.859 890.184 32.0891 888.894 34.7091C888.304 35.8991 887.504 36.979 886.804 38.109C886.914 38.289 887.014 38.4791 887.124 38.6591C889.124 37.7791 891.474 37.2991 892.984 35.8991C894.004 34.9491 893.824 32.709 894.214 30.889C894.784 31.649 896.044 32.569 895.994 33.419C895.894 35.079 895.074 36.699 894.654 38.009C897.504 38.409 900.634 38.839 903.754 39.269C903.744 39.599 903.734 39.9191 903.724 40.2491C900.574 40.6691 897.414 41.0891 894.394 41.4991C896.874 45.8491 896.824 46.6291 893.794 48.4691C894.134 43.2191 892.024 41.0791 886.824 41.4991C887.404 42.3491 888.014 43.1491 888.524 43.9991C890.424 47.2191 889.584 49.6291 886.094 51.0691C885.224 51.4291 884.284 51.709 883.554 52.259C883.004 52.689 882.584 53.4591 882.424 54.1491C882.364 54.4191 883.134 55.1991 883.544 55.2191C884.264 55.2391 885.094 54.989 885.684 54.579C886.184 54.229 886.424 53.489 886.874 52.759C887.454 55.219 887.004 56.3091 885.264 57.0591C883.634 57.7691 881.604 57.189 880.654 55.739C879.594 54.139 879.984 52.859 881.824 51.109C881.024 49.929 879.814 48.859 879.684 47.669C879.604 46.919 881.004 45.7491 881.994 45.239C882.674 44.889 883.774 45.3591 884.684 45.4591C884.384 46.0891 884.184 46.1391 883.984 46.2091C882.954 46.5791 881.564 47.019 882.284 48.329C882.644 48.989 884.274 49.399 885.184 49.209C887.384 48.7491 888.194 46.1091 887.044 43.9091C885.204 40.3791 880.464 40.0591 877.754 43.2791C874.644 46.9791 874.784 53.089 878.054 56.419C881.524 59.949 887.074 60.129 890.944 56.509C893.894 53.749 896.514 50.6391 899.204 47.6191C902.094 44.3791 905.404 41.7591 909.614 40.4691C913.894 39.1591 918.224 40.4891 920.224 43.7091C920.744 44.5491 921.094 45.489 921.574 46.479C923.774 40.859 928.174 38.749 933.774 40.579C935.064 40.999 936.454 41.469 937.484 42.299C940.004 44.319 942.444 46.469 944.744 48.729C947.474 51.409 949.874 54.449 952.714 56.989C956.374 60.259 962.494 59.5591 965.524 55.8491C968.654 52.0091 968.044 45.2991 964.294 42.2791C961.654 40.1491 957.654 40.919 956.074 43.859C954.994 45.859 955.574 48.289 957.414 49.109C958.654 49.659 960.154 49.9791 960.814 48.4391C961.474 46.8991 960.024 46.5591 958.924 46.1791C958.754 46.1191 958.594 46.0091 958.394 45.9091C960.014 44.6391 961.884 44.909 963.024 46.509C964.084 47.999 963.584 49.059 960.954 50.829C963.184 53.009 963.524 54.309 962.264 55.959C961.134 57.439 958.994 57.879 957.394 56.889C955.854 55.939 955.274 54.639 956.204 52.739L956.194 52.729ZM873.294 27.979C874.324 22.979 877.194 19.919 882.084 18.759C886.954 17.599 891.054 19.0791 894.594 22.4391C898.594 15.2391 901.154 14.2791 904.914 18.7791C904.134 18.7791 903.544 18.7791 902.964 18.7791C899.584 18.7291 897.554 20.609 897.874 24.019C898.354 29.019 901.454 32.4691 905.524 34.9691C908.664 36.8991 912.134 37.999 915.844 36.389C917.944 35.479 919.204 33.919 919.314 31.579C919.424 29.239 918.284 27.5391 916.334 26.4091C913.944 25.0291 910.994 26.6791 911.144 29.4291C911.194 30.3791 912.074 31.8891 912.824 32.0591C913.804 32.2791 915.034 31.439 916.454 30.949C916.314 31.619 916.384 32.8091 915.844 33.5591C914.754 35.0791 913.034 34.819 911.474 34.359C909.214 33.689 908.194 32.1791 907.844 29.1291C906.744 29.1991 905.614 29.3491 904.504 29.3191C902.184 29.2491 900.704 27.8891 900.554 25.8191C900.394 23.6491 901.714 21.789 903.774 21.269C905.504 20.839 906.304 21.4591 906.524 23.3191C905.684 23.1891 904.654 22.7091 904.034 23.0291C903.354 23.3791 902.664 24.4691 902.694 25.2191C902.714 25.9091 903.654 27.1391 904.214 27.1491C905.644 27.1791 907.354 27.049 908.484 26.289C910.814 24.709 912.974 23.0991 916.084 24.1491C914.544 18.5991 915.904 16.509 920.774 17.109C915.944 21.719 919.164 25.6991 921.554 29.5891C923.834 25.6591 927.164 21.6591 922.184 16.9991C927.274 16.7191 928.414 18.4691 927.004 24.1491C929.994 23.1691 932.184 24.5191 934.384 26.2091C935.344 26.949 936.784 27.3291 938.004 27.3391C938.804 27.3391 939.964 26.5491 940.294 25.8191C940.574 25.2091 940.114 23.8691 939.534 23.3991C939.034 22.9891 937.904 23.3191 937.054 23.3391C936.874 23.3391 936.694 23.429 936.374 23.519C936.394 22.029 936.994 21.2291 938.394 21.1591C940.294 21.0691 942.214 22.8491 942.514 24.9391C942.804 26.9891 941.514 28.9091 939.424 29.2191C938.094 29.4091 936.714 29.259 935.324 29.259C934.374 33.289 931.994 35.2791 928.814 34.5691C926.914 34.1491 926.374 33.059 926.814 30.609C926.944 30.649 927.124 30.649 927.194 30.739C928.134 31.969 929.204 33.0391 930.804 31.8791C932.184 30.8791 932.234 29.399 931.534 27.979C930.754 26.409 929.504 25.5291 927.644 26.0291C925.664 26.5591 923.914 28.609 923.704 30.769C923.494 32.979 924.274 35.0191 926.284 35.8391C928.204 36.6091 930.524 37.189 932.504 36.859C938.294 35.909 942.134 32.1591 944.504 26.9291C945.044 25.7391 945.254 24.2491 945.124 22.9391C944.844 20.1091 943.124 18.779 940.264 18.789C939.634 18.789 938.994 18.789 938.344 18.789C941.164 14.179 944.214 15.249 948.384 22.259C956.054 15.069 968.144 18.349 969.794 28.479C970.724 23.009 973.594 19.929 978.504 18.769C983.364 17.619 987.474 19.0791 991.004 22.4591C994.864 15.3391 997.814 14.2491 1001.25 18.8391C1000.7 18.8391 1000.32 18.8591 999.954 18.8391C995.634 18.6191 993.334 21.4191 994.394 25.5991C995.794 31.0891 1002.18 36.689 1007.85 37.039C1009.56 37.149 1011.46 36.669 1013.04 35.949C1015.12 34.989 1015.96 33.009 1015.67 30.699C1015.4 28.499 1014.18 26.7991 1012.08 26.2491C1011.04 25.9791 1009.31 26.339 1008.66 27.079C1007.91 27.939 1007.55 29.6491 1007.84 30.7791C1008.39 32.9391 1010.4 32.7991 1013.03 30.7191C1012.72 31.7691 1012.7 33.389 1012.03 33.729C1010.82 34.349 1009.12 34.5991 1007.8 34.2791C1005.36 33.6891 1004.24 31.739 1004.27 29.139C1003.05 29.209 1001.91 29.379 1000.79 29.329C998.504 29.229 997.024 27.799 996.934 25.729C996.844 23.579 998.254 21.6591 1000.28 21.2791C1001.89 20.9791 1002.98 21.4391 1002.99 23.3791C1002.14 23.1991 1001.19 22.6891 1000.62 22.9691C999.914 23.3191 999.144 24.289 999.094 25.039C999.054 25.729 999.914 27.0891 1000.39 27.0991C1001.89 27.1291 1003.68 27.069 1004.86 26.299C1007.2 24.759 1009.35 23.1091 1012.47 24.1791C1010.95 18.6091 1012.29 16.549 1017.2 17.109C1012.28 21.709 1015.58 25.709 1017.93 29.639C1020.15 25.729 1023.59 21.7591 1018.62 17.0991C1023.54 16.5691 1024.84 18.5591 1023.36 24.2091C1026.39 23.1391 1028.61 24.4691 1030.76 26.2491C1031.45 26.8191 1032.47 27.3091 1033.32 27.2791C1034.43 27.2391 1035.72 26.8791 1036.52 26.1791C1036.89 25.8491 1036.61 24.039 1036.06 23.579C1035.39 23.019 1034.12 23.159 1032.86 22.9591C1032.72 21.5891 1033.74 21.019 1035.37 21.239C1037.48 21.519 1039.06 23.599 1038.91 25.759C1038.77 27.839 1037.3 29.239 1035.01 29.329C1033.94 29.369 1032.87 29.2191 1031.79 29.1491C1030.68 33.3291 1028.35 35.259 1025.22 34.579C1023.33 34.169 1022.76 33.0691 1023.16 30.6191C1023.29 30.6491 1023.49 30.6191 1023.55 30.7091C1024.49 31.909 1025.51 33.0491 1027.15 31.9091C1028.56 30.9191 1028.6 29.439 1027.93 28.019C1027.19 26.429 1025.9 25.479 1024.07 26.039C1021.89 26.709 1020.53 28.2591 1020.16 30.5291C1019.79 32.8291 1020.55 34.949 1022.64 35.829C1024.54 36.629 1026.87 37.1891 1028.85 36.8691C1034.65 35.9391 1038.51 32.1891 1040.87 26.9691C1041.46 25.6691 1041.6 23.9991 1041.43 22.5591C1041.13 20.0591 1039.45 18.8491 1036.91 18.8091C1036.21 18.7991 1035.52 18.8091 1034.47 18.8091C1035.72 17.1791 1036.99 15.9591 1038.85 16.1291C1042.43 16.4691 1043.29 19.6191 1044.74 22.4991C1048.31 19.2091 1052.36 17.6191 1057.2 18.7491C1062.19 19.9091 1065.12 22.9791 1066.11 28.1291C1067.1 23.1091 1069.92 19.9891 1074.87 18.8191C1079.74 17.6691 1083.83 19.089 1087.37 22.449C1091.67 15.229 1093.97 14.3691 1097.75 18.8391C1097.03 18.8391 1096.52 18.8491 1096.01 18.8391C1092.14 18.7291 1089.98 21.2691 1090.7 25.1191C1091.79 30.9991 1099.05 37.189 1105.04 37.109C1106.62 37.089 1108.33 36.539 1109.74 35.789C1111.6 34.799 1112.37 32.9291 1112.11 30.8091C1111.83 28.5391 1110.58 26.759 1108.38 26.229C1107.35 25.979 1105.63 26.4191 1105 27.1891C1104.28 28.0691 1104.04 29.7491 1104.29 30.9291C1104.63 32.5091 1106.51 32.819 1107.79 31.759C1108.21 31.409 1108.55 30.9591 1108.98 30.4991C1109.5 33.1391 1108.88 34.2891 1106.84 34.6491C1103.66 35.2191 1101.18 33.1091 1100.58 29.2191C1099.41 29.2691 1098.21 29.429 1097.02 29.359C1094.79 29.229 1093.34 27.699 1093.29 25.609C1093.24 23.439 1094.93 21.409 1097.03 21.229C1098.6 21.089 1099.44 21.8191 1099.42 23.3091C1098.42 23.2091 1097.37 22.7791 1096.74 23.1191C1096.07 23.4891 1095.41 24.6091 1095.46 25.3491C1095.5 26.0391 1096.52 27.2491 1097.05 27.2191C1098.63 27.1291 1100.46 26.9291 1101.67 26.0591C1103.83 24.5091 1105.91 23.329 1108.19 24.009C1108.38 22.019 1108.1 19.9091 1108.91 18.3791C1109.47 17.3391 1111.57 17.119 1112.98 16.539C1113.09 16.719 1113.19 16.8891 1113.3 17.0691C1113.03 17.5391 1112.78 18.0191 1112.47 18.4691C1110.65 21.1391 1110.4 23.759 1112.47 26.479C1113.24 27.489 1113.7 28.729 1114.27 29.789C1116.47 25.839 1119.98 21.899 1115.12 17.269C1119.78 16.339 1121.37 18.769 1119.67 24.289C1122.94 23.039 1125.15 24.8091 1127.48 26.4691C1128.36 27.0991 1129.65 27.4591 1130.73 27.3991C1131.56 27.3591 1132.7 26.6491 1133.04 25.9291C1133.33 25.3191 1132.92 23.969 1132.35 23.479C1131.86 23.049 1130.72 23.349 1129.87 23.359C1129.7 23.359 1129.53 23.4691 1129.23 23.5591C1129.15 21.8691 1129.96 21.1791 1131.43 21.2191C1133.42 21.2691 1135.17 23.129 1135.29 25.229C1135.42 27.369 1134.13 29.0491 1131.96 29.3091C1130.7 29.4591 1129.4 29.3391 1128.09 29.3391C1127.29 33.2591 1124.75 35.3491 1121.55 34.5991C1119.67 34.1591 1119.06 32.8691 1119.71 30.5291C1120.07 30.9291 1120.37 31.3091 1120.72 31.6191C1122.15 32.8891 1124.1 32.5191 1124.42 30.6791C1124.62 29.5091 1124.25 27.839 1123.47 27.009C1122.79 26.289 1121.09 26.039 1120.02 26.289C1117.95 26.789 1116.53 29.099 1116.51 31.259C1116.49 33.689 1117.64 35.449 1119.85 36.359C1124.7 38.359 1128.89 36.5091 1132.45 33.4691C1134.52 31.6991 1136.24 29.2191 1137.38 26.7191C1139.51 22.0691 1137.01 18.7191 1131.94 18.8691C1131.68 18.8691 1131.43 18.8691 1130.8 18.8691C1132.18 17.1391 1133.51 15.8591 1135.48 16.1491C1138.89 16.6491 1139.74 19.689 1141.12 22.539C1144.7 19.259 1148.74 17.6291 1153.58 18.7491C1158.55 19.8991 1161.55 22.9091 1162.49 28.1291C1163.52 23.0791 1166.39 19.9291 1171.37 18.7791C1176.16 17.6691 1180.21 19.0791 1183.83 22.4991C1185.41 19.8291 1186.16 16.229 1189.95 16.199C1191.36 16.189 1192.78 17.459 1194.19 18.139C1194.1 18.369 1194.01 18.599 1193.92 18.829C1193.39 18.829 1192.86 18.839 1192.33 18.829C1188.64 18.749 1186.52 21.149 1187.07 24.789C1188.02 31.009 1195.74 37.3991 1202 37.1591C1205.28 37.0291 1207.74 35.2991 1208.43 32.6191C1209 30.4091 1208.03 27.8891 1205.87 26.6891C1205 26.2091 1203.53 25.759 1202.89 26.169C1201.81 26.859 1200.81 28.1391 1200.48 29.3691C1200.28 30.1291 1201.25 31.899 1201.93 32.039C1203 32.249 1204.27 31.469 1205.46 31.109C1205.97 32.909 1205.43 34.0991 1203.55 34.5691C1200.35 35.3691 1197.82 33.2991 1196.98 29.1891C1195.77 29.2391 1194.55 29.409 1193.35 29.329C1191.14 29.169 1189.71 27.569 1189.73 25.479C1189.74 23.319 1191.54 21.309 1193.59 21.199C1195.09 21.119 1195.82 21.8891 1195.94 23.5291C1195.1 23.2691 1194.2 22.679 1193.74 22.919C1192.95 23.329 1192.01 24.219 1191.93 24.989C1191.86 25.689 1192.86 27.1791 1193.35 27.1491C1194.99 27.0791 1196.91 26.909 1198.17 26.019C1200.35 24.469 1202.42 23.3291 1204.73 24.0291C1204.84 22.0991 1204.43 19.999 1205.22 18.549C1205.83 17.429 1207.94 17.1291 1209.38 16.4591C1209.5 16.6391 1209.62 16.829 1209.73 17.009C1209.6 17.299 1209.51 17.6291 1209.32 17.8791C1207.03 20.8891 1206.72 23.8691 1209.25 26.9591C1209.9 27.7591 1210.2 28.839 1210.67 29.829C1212.92 25.769 1216.47 21.869 1211.36 17.139C1211.59 16.959 1211.81 16.7791 1212.04 16.5991C1213.46 17.1691 1215.56 17.349 1216.14 18.389C1216.95 19.849 1216.64 21.9391 1216.83 23.9591C1219.34 23.1491 1221.69 24.6891 1223.99 26.5291C1224.58 26.9991 1225.48 27.3991 1226.18 27.3191C1227.3 27.1891 1228.58 26.8791 1229.36 26.1591C1229.73 25.8191 1229.42 24.009 1228.86 23.549C1228.18 22.999 1226.91 23.1991 1225.81 23.0591C1225.75 21.6891 1226.56 20.919 1228.27 21.239C1230.4 21.639 1231.86 23.5991 1231.7 25.8491C1231.55 27.9291 1230.09 29.289 1227.77 29.359C1226.7 29.389 1225.63 29.2291 1224.56 29.1491C1223.61 33.2991 1221.2 35.3091 1218.03 34.5891C1216.12 34.1591 1215.5 32.909 1216.1 30.449C1216.51 30.899 1216.82 31.329 1217.21 31.669C1218.57 32.859 1220.43 32.549 1220.81 30.799C1221.06 29.639 1220.75 27.969 1220.01 27.109C1219.36 26.359 1217.68 26.009 1216.61 26.239C1214.51 26.689 1213.03 28.9591 1212.93 31.0991C1212.82 33.4391 1214.04 35.4691 1216.34 36.3791C1221.29 38.3491 1225.42 36.339 1229.11 33.299C1230.69 31.999 1231.91 30.1791 1233.04 28.4291C1234.56 26.0691 1235.12 23.459 1233.66 20.829C1232.31 18.399 1229.9 18.8091 1227.46 18.9091C1228.4 17.1391 1229.77 16.0291 1231.57 16.1491C1235.29 16.3991 1236.14 19.6691 1237.55 22.4591C1238.27 21.909 1238.93 21.3791 1239.62 20.8791C1244.15 17.6091 1250.53 17.6591 1254.83 20.8791C1257.25 22.6991 1258.06 25.379 1258.99 28.019V32.359C1257.94 35.939 1255.82 38.559 1252.02 39.789C1255.83 41.059 1257.91 43.6291 1258.99 47.1191V51.459C1258.1 54.119 1257.33 56.819 1254.91 58.6491C1250.6 61.9191 1244.28 62.019 1239.73 58.789C1238.99 58.269 1238.28 57.7091 1237.45 57.0891C1236.47 59.9191 1235.11 62.249 1232.52 63.609H1230.78C1229.6 62.749 1228.42 61.899 1227.24 61.039C1228.07 60.679 1228.64 60.7291 1229.21 60.7491C1232.51 60.8791 1234.42 59.1291 1234.4 55.8191C1234.4 54.6891 1234.18 53.4691 1233.69 52.4691C1231.38 47.7091 1227.91 44.2291 1222.64 42.8091C1220.23 42.1591 1217.9 42.2591 1215.71 43.4991C1213.7 44.6391 1212.72 46.419 1212.95 48.729C1213.18 51.029 1214.51 52.599 1216.61 53.449C1218.24 54.109 1219.94 53.329 1220.75 51.639C1221.49 50.099 1221.42 48.5891 1219.91 47.5991C1218.26 46.5091 1217.26 47.729 1216.34 48.9291C1216.3 48.979 1216.13 48.9191 1216.02 48.9091C1215.57 46.6891 1216.16 45.4491 1217.89 44.9991C1221.03 44.1891 1223.46 46.1791 1224.58 50.4091C1225.82 50.3491 1227.05 50.149 1228.25 50.259C1230.38 50.459 1231.68 51.959 1231.71 54.009C1231.74 56.179 1230.27 58.0491 1228.22 58.3391C1226.54 58.5791 1225.62 57.879 1225.6 55.959C1225.9 56.079 1226.06 56.1891 1226.22 56.1891C1227.07 56.2291 1228.2 56.5891 1228.71 56.1891C1229.29 55.7391 1229.75 54.3991 1229.49 53.7791C1229.18 53.0591 1228.07 52.349 1227.24 52.259C1226.24 52.149 1225 52.4291 1224.17 52.9991C1221.74 54.6391 1219.49 56.5991 1216.04 55.4091C1218 60.6591 1216.48 62.9591 1211.49 62.4991C1216.32 57.7991 1213.11 53.8291 1210.68 49.9091C1210.07 51.0391 1209.54 52.329 1208.74 53.419C1206.96 55.859 1207.11 58.2391 1208.63 60.6891C1209 61.2891 1209.38 61.889 1209.78 62.539C1205.08 62.919 1203.97 61.229 1205.2 55.489C1202.35 56.289 1200.22 55.0691 1198.01 53.4691C1196.85 52.6291 1195.07 52.369 1193.57 52.389C1192.96 52.389 1191.84 53.8691 1191.91 54.5891C1191.99 55.3691 1193.08 56.1991 1193.92 56.6791C1194.3 56.8991 1195.14 56.3091 1195.92 56.0291C1195.77 58.1191 1194.67 58.659 1192.97 58.289C1191.08 57.879 1189.61 55.8591 1189.71 53.9391C1189.81 51.9891 1191.24 50.439 1193.33 50.259C1194.53 50.159 1195.76 50.359 1196.97 50.419C1197.81 46.319 1200.28 44.2591 1203.5 44.9991C1205.34 45.4191 1205.93 46.6591 1205.36 48.9391C1203.14 46.7891 1201.26 46.669 1200.69 48.789C1200.39 49.909 1200.73 51.629 1201.47 52.489C1202.12 53.239 1203.85 53.6491 1204.88 53.3691C1207.06 52.7791 1208.32 50.9791 1208.55 48.7191C1208.78 46.5191 1207.89 44.6191 1205.91 43.6591C1204.46 42.9591 1202.74 42.429 1201.16 42.479C1195.12 42.669 1188.44 48.4691 1187.17 54.3491C1186.32 58.3091 1188.49 60.9291 1192.49 60.7491C1192.96 60.7291 1193.43 60.689 1193.91 60.669C1193.99 60.819 1194.07 60.9691 1194.15 61.1191C1193.05 61.9591 1191.95 62.7891 1190.86 63.6291H1188.69C1186.98 61.6091 1185.27 59.579 1183.48 57.459C1180.25 60.529 1176.12 61.9491 1171.29 60.8091C1166.36 59.6491 1163.45 56.4991 1162.52 51.4091C1161.59 56.6291 1158.6 59.6891 1153.66 60.8391C1148.84 61.9591 1144.72 60.479 1141.68 57.539C1139.75 59.679 1137.97 61.6491 1136.18 63.6291H1134.01C1132.99 62.7591 1131.96 61.899 1130.51 60.669C1137.14 60.969 1139.68 57.5291 1137.21 52.3391C1134.71 47.0991 1130.71 43.409 1124.78 42.639C1122.92 42.399 1120.77 43.009 1119 43.789C1116.94 44.699 1116.12 47.1191 1116.63 49.3491C1117.11 51.4891 1118.46 52.9891 1120.56 53.5691C1122.37 54.0691 1123.66 53.109 1124.39 51.509C1125.06 50.059 1124.93 48.589 1123.52 47.639C1121.87 46.529 1120.87 47.7291 1119.92 48.8991C1119.87 48.9591 1119.67 48.8991 1119.44 48.8791C1119.11 47.0391 1119.46 45.559 1121.51 45.019C1124.61 44.209 1126.96 46.1591 1128.2 50.4391C1129.37 50.3691 1130.52 50.1591 1131.66 50.2491C1133.81 50.4091 1135.2 51.8591 1135.3 53.8391C1135.41 55.9791 1133.98 57.8991 1131.97 58.3191C1130.2 58.6891 1129.43 58.019 1129.39 56.479C1130.44 56.379 1131.71 56.6091 1132.39 56.0891C1132.96 55.6491 1133.32 53.8291 1132.96 53.4991C1132.19 52.7791 1130.92 52.439 1129.8 52.299C1129.1 52.209 1128.2 52.5991 1127.6 53.0591C1125.29 54.8291 1122.99 56.5191 1119.67 55.4391C1121.53 60.7491 1120.14 62.8591 1114.98 62.5591C1119.99 57.8491 1116.56 53.819 1114.29 49.859C1113.7 50.939 1113.17 52.2291 1112.38 53.3091C1110.54 55.8091 1110.64 58.249 1112.25 60.759C1112.62 61.339 1112.97 61.9291 1113.38 62.5991C1108.47 62.7491 1107.34 61.0091 1108.86 55.4391C1105.74 56.4791 1103.59 54.829 1101.27 53.259C1100.14 52.499 1098.42 52.3191 1096.99 52.3791C1095.68 52.4391 1095.07 53.6391 1095.48 54.9691C1095.89 56.2791 1096.74 57.1091 1098.26 56.5591C1098.61 56.4291 1098.92 56.189 1099.46 55.889C1099.38 58.029 1098.36 58.5991 1096.73 58.3191C1094.74 57.9791 1093.21 55.9691 1093.3 53.8991C1093.39 51.9191 1094.78 50.409 1096.9 50.239C1098.09 50.139 1099.31 50.3391 1100.51 50.4091C1101.3 46.3591 1103.87 44.239 1107.08 44.979C1108.91 45.399 1109.49 46.639 1108.92 49.049C1108.49 48.599 1108.15 48.149 1107.72 47.799C1106.43 46.759 1104.56 47.119 1104.25 48.709C1104.02 49.899 1104.36 51.419 1104.98 52.489C1105.73 53.779 1107.22 53.9891 1108.64 53.3491C1110.73 52.4091 1111.98 50.7691 1112.12 48.4991C1112.26 46.2991 1111.31 44.469 1109.31 43.519C1108.04 42.909 1106.57 42.4691 1105.18 42.4391C1099.2 42.3091 1091.72 48.619 1090.66 54.509C1089.96 58.439 1092.22 60.9491 1096.24 60.7191C1096.68 60.6891 1097.12 60.7191 1098.21 60.7191C1096.62 61.9591 1095.55 62.779 1094.49 63.609H1092.32C1090.57 61.599 1088.82 59.5891 1087.08 57.5991C1080.2 64.2791 1067.79 61.6591 1066.06 51.4991C1064.38 61.5591 1052.07 64.3691 1045.08 57.6191C1043.33 59.6091 1041.57 61.609 1039.81 63.609H1037.64C1036.57 62.739 1035.5 61.869 1034.1 60.739C1040.82 60.829 1043.31 57.379 1040.66 52.079C1038.15 47.049 1034.26 43.4391 1028.5 42.6491C1026.69 42.3991 1024.62 42.8791 1022.88 43.5691C1020.85 44.3691 1019.93 46.299 1020.07 48.519C1020.21 50.819 1021.46 52.4391 1023.53 53.3791C1025.2 54.1291 1026.87 53.519 1027.76 51.859C1028.54 50.389 1028.63 48.8591 1027.21 47.7491C1025.51 46.4291 1024.46 47.7791 1023.43 48.9291C1023.38 48.9891 1023.18 48.9191 1023.02 48.8991C1022.67 47.0491 1023.01 45.399 1025.1 45.079C1026.3 44.889 1027.97 44.989 1028.79 45.699C1030.2 46.909 1031.11 48.6891 1032.35 50.4091C1032.84 50.3691 1033.84 50.1891 1034.84 50.2191C1037.15 50.2891 1038.61 51.609 1038.84 53.699C1039.06 55.669 1037.8 57.599 1035.87 58.239C1034.07 58.829 1033.08 58.1391 1032.99 56.5891C1034.05 56.4391 1035.32 56.6191 1036 56.0591C1036.56 55.5991 1036.86 53.779 1036.49 53.449C1035.7 52.749 1034.4 52.379 1033.29 52.329C1032.44 52.289 1031.41 52.7591 1030.73 53.3191C1028.59 55.1091 1026.35 56.359 1023.38 55.509C1024.72 61.129 1023.43 63.059 1018.57 62.459C1023.61 57.799 1019.99 53.8391 1017.83 49.8191C1017.25 50.9091 1016.78 52.159 1016.01 53.169C1014.03 55.799 1014.18 58.359 1015.92 60.989C1016.25 61.489 1016.55 62.0091 1016.92 62.6191C1011.95 62.6991 1010.82 60.9291 1012.42 55.4291C1009.29 56.479 1007.14 54.849 1004.81 53.289C1003.68 52.529 1001.96 52.369 1000.53 52.4291C999.964 52.4491 998.994 53.839 999.044 54.549C999.094 55.309 1000 56.2191 1000.77 56.6491C1001.23 56.909 1002.13 56.3591 1002.91 56.1491C1002.96 58.1091 1001.84 58.5791 1000.25 58.3191C998.244 57.9991 996.754 56.0191 996.844 53.9091C996.924 51.9191 998.314 50.419 1000.43 50.259C1001.62 50.169 1002.84 50.369 1004.04 50.4291C1004.82 46.3791 1007.38 44.2691 1010.6 44.9991C1012.45 45.4191 1013.06 46.709 1012.46 49.079C1012.03 48.629 1011.69 48.1891 1011.27 47.8491C1009.98 46.8091 1008.12 47.139 1007.8 48.729C1007.56 49.909 1007.9 51.429 1008.5 52.509C1009.24 53.819 1010.74 54.0391 1012.15 53.3991C1014.13 52.5091 1015.39 50.9991 1015.61 48.7791C1015.83 46.5591 1015.01 44.6791 1013.04 43.6791C1011.67 42.9791 1010.03 42.479 1008.51 42.479C1002.61 42.459 995.404 48.549 994.254 54.299C993.434 58.369 995.664 60.9791 999.764 60.7491C1000.2 60.7191 1000.65 60.7491 1001.67 60.7491C1000.19 61.9491 999.154 62.7891 998.124 63.6291H995.954C994.184 61.6491 992.404 59.659 990.634 57.6791C983.224 64.799 971.004 60.9391 969.594 51.4391C968.694 56.4791 965.824 59.629 960.864 60.789C956.004 61.919 951.814 60.539 948.714 57.489C946.814 59.699 945.124 61.6591 943.424 63.6191H941.254C940.164 62.7791 939.084 61.9291 937.644 60.8091C944.594 60.5991 946.884 57.0491 943.994 51.6891C941.394 46.8691 937.604 43.3791 932.014 42.6491C930.144 42.4091 928.004 42.9391 926.214 43.6791C924.194 44.5191 923.354 46.5191 923.584 48.7191C923.824 50.9791 925.124 52.5991 927.244 53.4391C928.904 54.0991 930.564 53.3491 931.384 51.6491C932.084 50.2091 932.074 48.759 930.744 47.729C929.054 46.409 927.984 47.719 926.954 48.889C926.904 48.939 926.714 48.8691 926.564 48.8491C926.214 46.9991 926.524 45.349 928.644 45.049C929.844 44.879 931.514 44.9791 932.334 45.6891C933.724 46.8991 934.614 48.679 935.834 50.389C936.394 50.349 937.474 50.159 938.534 50.209C940.784 50.319 942.284 51.769 942.414 53.829C942.544 55.779 941.144 57.7391 939.254 58.2491C937.434 58.7391 936.554 58.0691 936.454 56.5991C937.584 56.3891 938.824 56.4691 939.624 55.9091C940.134 55.5491 940.394 53.769 940.054 53.489C939.224 52.799 938.004 52.4591 936.884 52.2791C936.254 52.1791 935.424 52.519 934.864 52.919C932.474 54.609 930.214 56.5791 926.784 55.4291C928.524 60.8091 927.034 63.019 922.494 62.489C924.327 58.9624 923.964 54.7724 921.404 49.919C919.004 53.869 915.844 57.869 920.414 62.789C918.614 62.439 916.504 62.1991 915.914 61.1191C915.114 59.6691 915.484 57.5691 915.344 55.6191C912.994 56.2691 910.854 55.069 908.654 53.459C907.504 52.6091 905.724 52.419 904.204 52.359C903.644 52.339 902.574 53.5391 902.574 54.1791C902.574 54.9991 903.254 56.109 903.974 56.539C904.524 56.869 905.584 56.319 906.484 56.1491C906.464 58.1691 905.284 58.619 903.604 58.269C901.594 57.849 900.244 55.8691 900.404 53.7191C900.554 51.7391 901.964 50.3391 904.134 50.2191C905.314 50.1591 906.504 50.349 907.774 50.4291C907.694 47.739 908.874 45.839 911.314 45.269C912.634 44.959 914.324 45.2391 915.524 45.8691C916.184 46.2191 916.184 47.8391 916.464 48.8491C915.004 48.1791 913.974 47.399 912.914 47.359C912.324 47.339 911.174 48.529 911.164 49.1791C911.144 50.3591 911.484 51.8591 912.254 52.6291C912.944 53.3091 914.554 53.6291 915.534 53.3391C917.594 52.7391 918.854 51.0691 919.134 48.8791C919.424 46.6691 918.634 44.749 916.684 43.729C915.264 42.989 913.544 42.4491 911.964 42.4591C906.154 42.4791 899.224 48.2491 897.864 53.9291C896.824 58.299 899.094 60.9791 903.584 60.6891C903.904 60.6691 904.224 60.6891 905.164 60.6891C903.724 61.9091 902.724 62.7591 901.724 63.5991H899.554C897.734 61.5991 895.914 59.5991 894.094 57.5991C887.154 64.3091 874.814 61.5191 873.104 51.4691C872.844 50.2991 873.154 47.229 873.154 47.229C873.994 43.309 876.484 41.2091 880.484 39.7791C876.414 38.3891 873.984 36.199 873.124 32.389C873.124 32.389 872.904 28.939 873.124 28.019L873.294 27.979ZM1170.05 39.7191C1165.82 38.4491 1163.5 36.0591 1162.53 32.3391C1161.77 36.2991 1159.15 38.3591 1155.27 39.8091C1159.33 41.1291 1161.71 43.3591 1162.6 47.1491C1163.46 43.3291 1165.92 41.1291 1170.05 39.7191ZM1058.75 39.759C1062.92 41.139 1065.32 43.3991 1066.16 47.2491C1066.96 43.3691 1069.46 41.109 1073.58 39.759C1069.37 38.349 1066.99 36.069 1066.15 32.259C1065.33 36.119 1062.9 38.379 1058.75 39.769V39.759ZM977.154 39.759C973.044 38.419 970.564 36.1891 969.734 32.3191C968.864 36.1891 966.384 38.3991 962.304 39.7791C966.454 41.1191 968.854 43.3891 969.734 47.2091C970.574 43.3691 972.994 41.149 977.144 39.759H977.154Z" fill="#7CB0FA"/>
</g>
</svg>
