<svg width="412" height="80" viewBox="0 0 412 80" fill="none" xmlns="http://www.w3.org/2000/svg">
<path d="M-72 0H448L498 80H-12L-72 0Z" fill="#6196E0"/>
<path d="M546.854 38.259C546.164 37.269 545.594 36.519 545.104 35.729C542.984 32.309 543.804 29.8891 547.534 28.3791C548.334 28.0591 549.214 27.7991 549.874 27.2791C550.434 26.8391 550.934 26.109 551.074 25.419C551.134 25.109 550.264 24.289 549.794 24.269C549.104 24.239 548.274 24.579 547.714 25.019C547.234 25.399 547.044 26.149 546.634 26.889C545.674 24.819 546.314 23.4591 547.994 22.5291C549.604 21.6391 551.814 22.2291 552.824 23.7191C553.944 25.3691 553.524 26.7191 551.314 28.6291C554.024 30.4891 554.504 31.4591 553.484 32.9691C552.394 34.5591 550.544 34.8591 548.724 33.5891C549.134 33.4391 549.534 33.409 549.744 33.199C550.324 32.589 550.834 31.9091 551.364 31.2491C550.534 30.8591 549.674 30.0891 548.864 30.1491C546.504 30.2991 545.304 32.919 546.314 35.269C547.884 38.899 552.724 39.539 555.524 36.479C558.794 32.899 558.794 26.5691 555.524 23.1591C552.174 19.6691 546.384 19.4391 542.624 22.9391C539.834 25.5491 537.294 28.439 534.784 31.329C532.084 34.429 529.084 37.139 525.184 38.549C523.404 39.189 521.374 39.6391 519.524 39.4591C515.714 39.0891 513.074 36.909 511.994 32.769C511.754 33.379 511.644 33.6391 511.544 33.8991C509.864 38.1391 505.954 40.249 501.494 39.359C495.914 38.249 492.034 34.6891 488.474 30.5591C486.074 27.7691 483.604 24.999 480.844 22.579C477.064 19.269 471.074 19.8891 468.004 23.5691C464.894 27.2991 465.344 33.829 468.934 37.019C471.744 39.519 476.234 38.5591 477.654 35.1591C478.664 32.7291 477.194 30.049 474.744 30.109C473.994 30.129 473.264 30.9091 472.524 31.3391C473.024 31.9491 473.484 32.5991 474.034 33.1591C474.284 33.4091 474.734 33.4591 475.224 33.6591C473.244 34.8591 471.354 34.5591 470.394 32.8991C468.984 30.4491 471.214 29.709 472.624 28.639C470.434 26.829 469.994 25.4791 471.014 23.8491C472.014 22.2391 474.314 21.5891 475.974 22.5691C477.614 23.5291 478.244 24.8991 477.264 26.8791C476.844 26.1391 476.634 25.349 476.114 24.949C475.554 24.519 474.714 24.279 473.994 24.289C473.574 24.289 472.774 25.0491 472.834 25.3191C472.984 26.0091 473.384 26.8091 473.944 27.2091C474.814 27.819 475.894 28.1291 476.884 28.5591C479.844 29.8591 480.694 32.2491 479.154 35.0891C478.574 36.1591 477.844 37.1391 477.144 38.2191C483.664 37.5191 485.114 35.8691 484.434 30.8391C485.334 31.9191 486.484 33.1491 486.474 34.3691C486.474 35.6891 485.374 36.9991 484.904 37.9991C487.944 38.4191 491.024 38.839 494.094 39.259V40.259C490.954 40.689 487.814 41.109 484.824 41.519C487.244 46.109 487.204 46.679 484.134 48.579C484.754 43.319 483.034 41.489 477.174 41.389C477.744 42.229 478.294 42.959 478.774 43.729C480.904 47.159 480.114 49.6091 476.414 51.1191C475.544 51.4691 474.644 51.799 473.864 52.299C472.994 52.859 472.034 53.8091 473.174 54.6891C473.784 55.1591 475.154 54.9691 476.014 54.6491C476.564 54.4491 476.814 53.4491 477.254 52.709C477.984 54.889 477.534 56.1691 475.864 56.9991C474.264 57.7991 472.254 57.329 471.184 55.919C469.974 54.319 470.344 52.9191 472.224 51.1191C471.444 49.9291 470.244 48.8591 470.134 47.6791C470.064 46.9191 471.434 45.739 472.414 45.239C473.104 44.889 474.214 45.3591 475.134 45.4591C475.104 45.6491 475.084 45.849 475.054 46.039C474.774 46.109 474.394 46.079 474.234 46.259C473.644 46.919 473.114 47.649 472.574 48.359C473.434 48.699 474.324 49.4091 475.134 49.3191C477.434 49.0691 478.554 46.629 477.624 44.329C476.094 40.559 471.164 39.889 468.314 43.079C465.074 46.709 465.134 52.999 468.434 56.389C471.884 59.919 477.474 60.089 481.324 56.509C483.964 54.059 486.164 51.139 488.794 48.669C491.504 46.119 494.224 43.379 497.424 41.579C503.774 38.029 508.844 39.929 511.964 46.359C514.624 40.329 519.374 38.449 525.534 41.039C529.204 42.589 532.114 45.1391 534.724 48.1191C537.394 51.1591 540.074 54.219 543.064 56.919C546.764 60.259 552.794 59.6091 555.884 55.8991C559.044 52.0991 558.504 45.3891 554.774 42.3091C552.034 40.0491 547.764 40.9791 546.334 44.1491C545.394 46.2391 546.174 48.5491 548.144 49.2191C549.354 49.6291 550.744 49.8491 551.264 48.3091C551.744 46.8691 550.464 46.5291 549.414 46.1891C549.204 46.1191 548.994 46.0291 548.654 45.8991C550.544 44.6391 552.504 44.9291 553.484 46.5691C554.924 48.9891 552.754 49.7691 551.314 50.8191C553.554 52.8191 553.934 54.1791 552.774 55.8191C551.704 57.3391 549.584 57.8391 547.934 56.959C546.304 56.0891 545.884 54.6991 546.704 52.7191C547.034 53.3391 547.194 54.089 547.654 54.419C548.294 54.869 549.144 55.169 549.924 55.209C550.314 55.229 551.134 54.429 551.064 54.169C550.894 53.479 550.484 52.699 549.914 52.289C549.114 51.709 548.114 51.399 547.174 51.009C543.954 49.659 543.104 47.2591 544.814 44.2091C545.324 43.2991 545.924 42.4491 546.554 41.4691C540.924 41.3891 539.014 43.4491 539.834 49.2191C538.784 47.8991 537.494 46.999 537.534 46.169C537.614 44.449 538.404 42.7591 538.774 41.4991C536.014 41.1191 532.904 40.6791 529.794 40.2491C529.794 39.9091 529.794 39.5791 529.794 39.239C532.924 38.8291 536.044 38.409 539.104 38.009C536.554 33.909 536.644 32.7991 539.774 30.9291C539.004 36.1291 540.324 37.549 546.834 38.259H546.854ZM704.514 45.889C705.944 44.329 707.184 42.3991 708.924 41.2191C711.684 39.3391 714.854 39.6891 717.884 40.8491C721.904 42.3991 725.004 45.1491 727.804 48.3491C730.414 51.3291 733.054 54.349 736.004 56.979C739.734 60.309 745.754 59.609 748.804 55.859C751.944 51.999 751.354 45.309 747.614 42.289C744.574 39.829 739.784 41.3391 738.904 45.0291C738.424 47.0491 739.504 49.069 741.484 49.289C742.354 49.389 743.314 48.6591 744.234 48.3091C743.664 47.6191 743.114 46.8991 742.494 46.2491C742.314 46.0591 741.954 46.0491 741.524 45.9091C743.404 44.6491 745.294 44.969 746.374 46.549C747.414 48.059 746.894 49.069 744.204 50.829C746.374 52.799 746.774 54.129 745.684 55.759C744.624 57.349 742.354 57.8591 740.684 56.8791C739.144 55.9791 738.814 54.829 739.624 52.829C739.924 53.389 740.074 54.049 740.484 54.329C741.144 54.779 741.954 55.1791 742.724 55.209C743.144 55.229 744.004 54.329 743.934 54.019C743.784 53.339 743.274 52.589 742.694 52.199C741.804 51.609 740.724 51.3191 739.744 50.8691C737.004 49.6291 736.154 47.329 737.514 44.639C738.084 43.519 738.844 42.4991 739.524 41.4391C739.434 41.2691 739.344 41.0991 739.254 40.9291C737.404 41.6291 735.114 41.8791 733.824 43.1491C732.654 44.2991 732.564 46.5591 731.974 48.3991C731.534 47.7991 730.284 46.8491 730.344 45.9991C730.474 44.3291 731.334 42.7191 731.744 41.4991C728.924 41.1091 725.794 40.6791 722.664 40.2491C722.664 39.9191 722.664 39.5891 722.664 39.2491C725.794 38.8291 728.914 38.4091 731.954 37.9991C729.434 33.6691 729.484 32.9191 732.594 30.9591C732.164 36.3391 733.554 37.7891 739.644 38.1791C739.034 37.2791 738.434 36.479 737.924 35.639C735.914 32.339 736.754 29.8591 740.324 28.3991C741.194 28.0491 742.134 27.759 742.854 27.199C743.394 26.769 743.784 25.979 743.914 25.289C743.964 25.019 743.164 24.269 742.754 24.269C742.044 24.269 741.234 24.5391 740.644 24.9591C740.144 25.3091 739.914 26.019 739.434 26.759C738.924 24.289 739.434 23.089 741.124 22.389C742.764 21.709 744.784 22.309 745.724 23.769C746.774 25.389 746.354 26.7391 744.204 28.6591C746.934 30.4491 747.434 31.4391 746.364 32.9591C745.234 34.5691 743.404 34.8591 741.674 33.5991C741.984 33.4591 742.274 33.409 742.444 33.239C743.074 32.5991 743.664 31.909 744.264 31.239C743.284 30.879 742.234 30.089 741.334 30.239C739.054 30.609 738.154 33.379 739.354 35.639C741.224 39.129 745.994 39.409 748.654 36.169C751.734 32.429 751.554 26.2891 748.264 23.0291C744.794 19.5991 739.154 19.469 735.364 23.039C732.584 25.659 730.064 28.5591 727.544 31.4391C724.884 34.4791 721.934 37.149 718.104 38.509C716.264 39.159 714.164 39.5691 712.244 39.3991C708.464 39.0691 705.954 36.7991 704.864 32.8391C702.484 38.8191 698.054 40.8491 692.244 38.8191C687.944 37.3191 684.694 34.419 681.754 31.039C679.194 28.099 676.594 25.1591 673.704 22.5591C670.004 19.2391 663.954 19.879 660.874 23.579C657.704 27.399 658.244 34.0691 661.984 37.1591C664.604 39.3291 668.594 38.6291 670.244 35.7191C671.694 33.1491 670.294 30.0691 667.564 30.0891C666.854 30.0891 666.144 30.7791 665.424 31.1591C665.854 31.8091 666.224 32.5091 666.734 33.0891C667.014 33.3991 667.534 33.4791 668.084 33.7191C666.034 34.8391 664.144 34.4891 663.214 32.8491C661.824 30.3691 664.144 29.7091 665.514 28.6191C663.174 26.7491 662.774 25.399 663.984 23.669C665.034 22.169 667.184 21.6691 668.824 22.5291C670.464 23.3891 670.874 24.7791 670.004 26.7191C669.684 26.1191 669.534 25.369 669.074 25.049C668.434 24.609 667.574 24.329 666.794 24.299C666.414 24.289 665.624 25.0991 665.694 25.3691C665.874 26.0591 666.284 26.859 666.854 27.239C667.794 27.869 668.944 28.1891 669.994 28.6791C672.644 29.9091 673.484 32.1491 672.184 34.7491C671.594 35.9291 670.784 36.999 670.014 38.229C676.374 37.529 677.484 36.3391 677.054 30.9691C680.114 32.9191 680.164 33.659 677.684 37.989C680.734 38.4191 683.894 38.859 687.054 39.299C687.034 39.629 687.024 39.959 687.004 40.289C683.844 40.699 680.684 41.109 677.644 41.509C680.144 45.749 680.064 46.9391 676.964 48.4991C677.704 43.4791 675.124 40.849 670.144 41.609C670.654 42.329 671.174 43.0091 671.624 43.739C673.744 47.139 672.934 49.6391 669.264 51.1291C668.394 51.4791 667.504 51.8191 666.724 52.3191C665.824 52.8891 664.944 53.8591 666.054 54.709C666.654 55.169 668.014 54.9491 668.894 54.6291C669.424 54.4391 669.684 53.4891 670.184 52.6791C670.954 54.759 670.384 56.0791 668.784 56.9691C667.234 57.8291 665.124 57.4191 664.114 55.9691C663.684 55.3491 663.214 54.389 663.404 53.799C663.784 52.669 664.624 51.6991 665.044 51.0291C664.264 49.9191 663.044 48.9091 662.954 47.8091C662.894 46.9991 664.184 45.819 665.144 45.299C665.844 44.919 666.984 45.3391 667.924 45.3991C667.904 45.5991 667.894 45.809 667.874 46.009C667.614 46.089 667.254 46.089 667.094 46.269C666.494 46.929 665.964 47.659 665.404 48.359C666.334 48.699 667.324 49.429 668.174 49.289C670.664 48.879 671.574 45.919 670.104 43.579C668.064 40.329 663.634 40.1691 661.034 43.2491C657.854 47.0191 658.044 53.259 661.434 56.549C664.994 59.999 670.484 60.049 674.334 56.389C677.004 53.859 679.444 51.079 681.854 48.299C684.944 44.729 688.424 41.759 693.034 40.419C698.384 38.859 702.824 41.129 704.484 45.889H704.514ZM571.714 45.9691C571.214 46.1091 570.834 46.089 570.674 46.269C570.084 46.939 569.574 47.6691 569.024 48.3791C569.954 48.6991 570.944 49.419 571.794 49.269C574.204 48.859 575.124 46.049 573.784 43.729C571.834 40.339 567.264 40.119 564.614 43.269C561.504 46.969 561.644 53.1191 564.914 56.4091C568.394 59.9191 573.954 60.089 577.804 56.489C580.544 53.929 582.804 50.8691 585.554 48.3191C588.274 45.7891 591.064 43.1191 594.304 41.3991C600.484 38.1091 605.504 40.109 608.464 46.479C609.714 42.269 612.544 40.0491 616.754 40.0291C618.644 40.0191 620.634 40.549 622.394 41.269C626.224 42.839 629.084 45.699 631.764 48.799C634.214 51.639 636.734 54.4591 639.534 56.9391C643.264 60.2391 649.314 59.5791 652.354 55.8791C655.504 52.0391 654.944 45.359 651.204 42.299C648.324 39.939 643.774 41.1391 642.604 44.5591C641.924 46.5291 642.764 48.5891 644.594 49.2191C645.824 49.6491 647.254 49.799 647.654 48.289C647.794 47.789 646.524 46.889 645.864 46.199C645.724 46.049 645.444 46.039 645.104 45.919C646.934 44.619 648.804 44.919 649.914 46.519C650.944 48.0191 650.444 49.049 647.784 50.829C649.924 52.809 650.324 54.189 649.244 55.769C648.204 57.289 646.044 57.869 644.424 56.959C642.754 56.0191 642.114 54.6591 643.044 52.6291C643.464 53.3691 643.684 54.149 644.194 54.539C644.754 54.969 645.594 55.219 646.314 55.209C646.734 55.209 647.544 54.4491 647.484 54.1891C647.334 53.4991 646.944 52.689 646.384 52.289C645.524 51.679 644.444 51.3591 643.444 50.9291C640.464 49.6291 639.604 47.289 641.144 44.419C641.704 43.379 642.424 42.4291 643.064 41.4291C642.944 41.2191 642.814 41.009 642.694 40.799C640.714 41.689 638.364 42.1891 636.874 43.5991C635.864 44.5591 636.074 46.789 635.634 48.949C634.954 47.549 633.834 46.279 633.854 45.019C633.874 43.709 634.994 42.419 635.444 41.509C632.424 41.089 629.314 40.6491 626.204 40.2191C626.204 39.8891 626.204 39.5491 626.204 39.2191C629.334 38.8091 632.464 38.389 635.524 37.989C632.964 33.8491 633.054 32.709 636.164 30.979C635.054 36.279 637.354 37.5791 643.194 38.1891C642.584 37.2791 641.994 36.4791 641.474 35.6191C639.434 32.2691 640.234 29.8591 643.824 28.3791C644.694 28.0191 645.634 27.7491 646.364 27.1891C646.914 26.7591 647.324 25.989 647.474 25.299C647.534 25.029 646.744 24.269 646.334 24.259C645.624 24.239 644.774 24.4791 644.214 24.9091C643.694 25.3091 643.484 26.0991 643.044 26.8791C642.124 24.8991 642.664 23.519 644.314 22.549C645.904 21.619 648.104 22.139 649.164 23.609C650.304 25.189 649.914 26.5991 647.774 28.6791C650.414 30.3891 650.954 31.4991 649.854 32.9991C648.674 34.6091 646.844 34.849 645.214 33.509C645.604 33.379 646.034 33.3691 646.234 33.1491C646.794 32.5291 647.254 31.8291 647.754 31.1591C646.974 30.7891 646.194 30.0791 645.424 30.0991C643.124 30.1591 641.784 32.569 642.584 34.889C643.734 38.239 648.144 39.499 651.014 37.299C654.814 34.399 655.534 27.689 652.464 23.759C649.464 19.909 643.244 19.189 639.504 22.519C636.874 24.859 634.424 27.4591 632.154 30.1591C629.124 33.7491 625.854 37.0091 621.364 38.5991C619.594 39.2291 617.554 39.5491 615.704 39.3691C611.944 39.0091 609.504 36.7091 608.384 32.8091C606.174 38.6491 601.814 40.7491 596.164 38.9291C591.904 37.5491 588.624 34.789 585.694 31.479C583.014 28.449 580.354 25.3691 577.374 22.6591C573.674 19.2791 567.654 19.8091 564.524 23.4391C561.354 27.1191 561.694 33.6291 565.244 36.8991C567.894 39.3491 572.114 38.7391 573.814 35.6591C574.914 33.6591 574.364 31.2791 572.504 30.3991C571.274 29.8191 569.784 29.5091 569.104 31.0291C568.424 32.5591 569.834 32.939 570.964 33.289C571.144 33.349 571.294 33.489 571.484 33.609C569.824 34.859 568.024 34.589 566.864 32.979C565.784 31.479 566.294 30.4491 568.974 28.6491C566.724 26.5591 566.354 25.1791 567.614 23.5591C568.814 22.0191 571.104 21.579 572.664 22.699C574.094 23.719 574.674 25.039 573.634 26.769C573.174 25.999 572.904 24.9491 572.334 24.7491C571.484 24.4491 570.424 24.7591 569.454 24.8091C569.704 25.5891 569.734 26.6491 570.264 27.0891C571.124 27.7991 572.314 28.0891 573.374 28.5591C576.254 29.8391 577.104 32.1291 575.654 34.9291C575.074 36.0391 574.314 37.0591 573.584 38.2191C580.004 37.5291 581.394 36.029 580.664 30.759C581.514 31.559 582.824 32.4991 582.804 33.3991C582.764 35.0491 581.924 36.679 581.514 38.009C584.324 38.409 587.444 38.8391 590.564 39.2791C590.554 39.6091 590.544 39.9491 590.524 40.2791C587.384 40.6791 584.234 41.089 581.194 41.479C583.714 45.639 583.614 46.9591 580.484 48.4991C581.424 43.5191 579.124 41.129 573.644 41.489C574.244 42.3491 574.854 43.139 575.354 43.989C577.264 47.209 576.414 49.6191 572.934 51.0691C572.004 51.4591 570.934 51.729 570.234 52.389C569.714 52.879 569.694 53.8991 569.444 54.6891C570.414 54.7291 571.484 55.0191 572.334 54.7191C572.904 54.5191 573.184 53.4891 573.604 52.8091C574.404 54.6691 574.054 55.9491 572.544 56.8691C570.884 57.8691 568.624 57.3891 567.514 55.8191C566.374 54.1891 566.744 52.8491 568.904 50.8791C566.254 48.9691 565.804 48.039 566.804 46.549C567.874 44.959 569.774 44.6491 571.664 45.9591L571.714 45.9691ZM450.194 52.729C450.684 53.519 450.964 54.5291 451.524 54.7191C452.394 55.0091 453.444 54.739 454.424 54.699C454.174 53.909 454.154 52.879 453.624 52.389C452.934 51.729 451.854 51.459 450.924 51.079C447.464 49.649 446.614 47.1991 448.524 43.989C449.044 43.1091 449.654 42.2891 450.224 41.4391C450.084 41.2291 449.934 41.009 449.794 40.799C447.814 41.709 445.474 42.2291 443.994 43.6591C443.004 44.6191 443.254 46.8491 442.914 48.6491C442.344 47.9191 441.064 47.0091 441.104 46.1591C441.184 44.4391 441.984 42.7591 442.354 41.489C439.604 41.1091 436.494 40.6691 433.394 40.239V39.2191C436.524 38.8091 439.644 38.3991 442.714 37.9991C440.084 33.9791 440.184 32.7891 443.374 30.8991C442.574 36.0291 444.724 38.289 450.274 38.039C449.674 37.179 449.054 36.3891 448.544 35.5291C446.624 32.3091 447.454 29.849 450.904 28.419C451.774 28.059 452.714 27.789 453.444 27.239C454.004 26.819 454.494 26.0591 454.614 25.3791C454.674 25.0591 453.794 24.249 453.324 24.239C452.634 24.219 451.824 24.579 451.254 25.019C450.784 25.389 450.604 26.109 450.174 26.889C449.284 24.689 449.954 23.3391 451.644 22.4591C453.214 21.6391 455.274 22.199 456.304 23.609C457.504 25.259 457.144 26.549 454.894 28.669C457.554 30.369 458.094 31.479 457.014 32.979C455.854 34.589 454.024 34.849 452.324 33.509C452.724 33.379 453.144 33.3591 453.344 33.1491C453.914 32.5291 454.394 31.839 454.904 31.169C454.054 30.799 453.174 30.0491 452.364 30.1191C449.864 30.3291 448.734 33.2691 450.074 35.6791C452.044 39.2191 456.904 39.3391 459.524 35.9091C462.484 32.0191 462.114 25.899 458.714 22.789C455.144 19.519 449.724 19.529 445.964 23.079C443.344 25.549 440.934 28.269 438.584 31.009C435.854 34.179 432.854 37.009 428.884 38.449C427.044 39.119 424.944 39.579 423.034 39.419C419.264 39.089 416.664 36.8891 415.534 32.7491C415.224 33.5291 415.104 33.8591 414.974 34.1891C413.474 37.9991 409.374 40.1691 405.364 39.4091C399.854 38.3691 395.934 35.009 392.384 30.949C389.774 27.959 387.124 24.959 384.144 22.359C380.424 19.119 374.294 19.9991 371.374 23.8091C368.384 27.7091 369.054 34.239 372.754 37.199C375.734 39.579 380.394 38.179 381.384 34.609C381.934 32.629 380.914 30.449 379.024 30.2091C378.104 30.0891 377.074 30.8591 376.084 31.2191C376.684 31.8891 377.274 32.5691 377.904 33.2191C378.074 33.3891 378.364 33.439 378.674 33.579C376.974 34.829 375.264 34.6591 374.134 33.0991C372.264 30.5391 374.814 29.749 376.204 28.549C374.044 26.869 373.604 25.559 374.534 23.919C375.484 22.249 377.714 21.5491 379.444 22.4691C381.134 23.3591 381.674 24.7391 380.864 26.8991C380.424 26.0891 380.254 25.359 379.804 25.049C379.154 24.609 378.304 24.309 377.524 24.269C377.144 24.249 376.344 25.059 376.414 25.329C376.584 26.019 376.984 26.8291 377.554 27.2091C378.494 27.8391 379.644 28.159 380.694 28.639C383.344 29.859 384.184 32.0891 382.894 34.7091C382.304 35.8991 381.504 36.979 380.804 38.109C380.914 38.289 381.014 38.4791 381.124 38.6591C383.124 37.7791 385.474 37.2991 386.984 35.8991C388.004 34.9491 387.824 32.709 388.214 30.889C388.784 31.649 390.044 32.569 389.994 33.419C389.894 35.079 389.074 36.699 388.654 38.009C391.504 38.409 394.634 38.839 397.754 39.269C397.744 39.599 397.734 39.9191 397.724 40.2491C394.574 40.6691 391.414 41.0891 388.394 41.4991C390.874 45.8491 390.824 46.6291 387.794 48.4691C388.134 43.2191 386.024 41.0791 380.824 41.4991C381.404 42.3491 382.014 43.1491 382.524 43.9991C384.424 47.2191 383.584 49.6291 380.094 51.0691C379.224 51.4291 378.284 51.709 377.554 52.259C377.004 52.689 376.584 53.4591 376.424 54.1491C376.364 54.4191 377.134 55.1991 377.544 55.2191C378.264 55.2391 379.094 54.989 379.684 54.579C380.184 54.229 380.424 53.489 380.874 52.759C381.454 55.219 381.004 56.3091 379.264 57.0591C377.634 57.7691 375.604 57.189 374.654 55.739C373.594 54.139 373.984 52.859 375.824 51.109C375.024 49.929 373.814 48.859 373.684 47.669C373.604 46.919 375.004 45.7491 375.994 45.239C376.674 44.889 377.774 45.3591 378.684 45.4591C378.384 46.0891 378.184 46.1391 377.984 46.2091C376.954 46.5791 375.564 47.019 376.284 48.329C376.644 48.989 378.274 49.399 379.184 49.209C381.384 48.7491 382.194 46.1091 381.044 43.9091C379.204 40.3791 374.464 40.0591 371.754 43.2791C368.644 46.9791 368.784 53.089 372.054 56.419C375.524 59.949 381.074 60.129 384.944 56.509C387.894 53.749 390.514 50.6391 393.204 47.6191C396.094 44.3791 399.404 41.7591 403.614 40.4691C407.894 39.1591 412.224 40.4891 414.224 43.7091C414.744 44.5491 415.094 45.489 415.574 46.479C417.774 40.859 422.174 38.749 427.774 40.579C429.064 40.999 430.454 41.469 431.484 42.299C434.004 44.319 436.444 46.469 438.744 48.729C441.474 51.409 443.874 54.449 446.714 56.989C450.374 60.259 456.494 59.5591 459.524 55.8491C462.654 52.0091 462.044 45.2991 458.294 42.2791C455.654 40.1491 451.654 40.919 450.074 43.859C448.994 45.859 449.574 48.289 451.414 49.109C452.654 49.659 454.154 49.9791 454.814 48.4391C455.474 46.8991 454.024 46.5591 452.924 46.1791C452.754 46.1191 452.594 46.0091 452.394 45.9091C454.014 44.6391 455.884 44.909 457.024 46.509C458.084 47.999 457.584 49.059 454.954 50.829C457.184 53.009 457.524 54.309 456.264 55.959C455.134 57.439 452.994 57.879 451.394 56.889C449.854 55.939 449.274 54.639 450.204 52.739L450.194 52.729ZM367.294 27.979C368.324 22.979 371.194 19.919 376.084 18.759C380.954 17.599 385.054 19.0791 388.594 22.4391C392.594 15.2391 395.154 14.2791 398.914 18.7791C398.134 18.7791 397.544 18.7791 396.964 18.7791C393.584 18.7291 391.554 20.609 391.874 24.019C392.354 29.019 395.454 32.4691 399.524 34.9691C402.664 36.8991 406.134 37.999 409.844 36.389C411.944 35.479 413.204 33.919 413.314 31.579C413.424 29.239 412.284 27.5391 410.334 26.4091C407.944 25.0291 404.994 26.6791 405.144 29.4291C405.194 30.3791 406.074 31.8891 406.824 32.0591C407.804 32.2791 409.034 31.439 410.454 30.949C410.314 31.619 410.384 32.8091 409.844 33.5591C408.754 35.0791 407.034 34.819 405.474 34.359C403.214 33.689 402.194 32.1791 401.844 29.1291C400.744 29.1991 399.614 29.3491 398.504 29.3191C396.184 29.2491 394.704 27.8891 394.554 25.8191C394.394 23.6491 395.714 21.789 397.774 21.269C399.504 20.839 400.304 21.4591 400.524 23.3191C399.684 23.1891 398.654 22.7091 398.034 23.0291C397.354 23.3791 396.664 24.4691 396.694 25.2191C396.714 25.9091 397.654 27.1391 398.214 27.1491C399.644 27.1791 401.354 27.049 402.484 26.289C404.814 24.709 406.974 23.0991 410.084 24.1491C408.544 18.5991 409.904 16.509 414.774 17.109C409.944 21.719 413.164 25.6991 415.554 29.5891C417.834 25.6591 421.164 21.6591 416.184 16.9991C421.274 16.7191 422.414 18.4691 421.004 24.1491C423.994 23.1691 426.184 24.5191 428.384 26.2091C429.344 26.949 430.784 27.3291 432.004 27.3391C432.804 27.3391 433.964 26.5491 434.294 25.8191C434.574 25.2091 434.114 23.8691 433.534 23.3991C433.034 22.9891 431.904 23.3191 431.054 23.3391C430.874 23.3391 430.694 23.429 430.374 23.519C430.394 22.029 430.994 21.2291 432.394 21.1591C434.294 21.0691 436.214 22.8491 436.514 24.9391C436.804 26.9891 435.514 28.9091 433.424 29.2191C432.094 29.4091 430.714 29.259 429.324 29.259C428.374 33.289 425.994 35.2791 422.814 34.5691C420.914 34.1491 420.374 33.059 420.814 30.609C420.944 30.649 421.124 30.649 421.194 30.739C422.134 31.969 423.204 33.0391 424.804 31.8791C426.184 30.8791 426.234 29.399 425.534 27.979C424.754 26.409 423.504 25.5291 421.644 26.0291C419.664 26.5591 417.914 28.609 417.704 30.769C417.494 32.979 418.274 35.0191 420.284 35.8391C422.204 36.6091 424.524 37.189 426.504 36.859C432.294 35.909 436.134 32.1591 438.504 26.9291C439.044 25.7391 439.254 24.2491 439.124 22.9391C438.844 20.1091 437.124 18.779 434.264 18.789C433.634 18.789 432.994 18.789 432.344 18.789C435.164 14.179 438.214 15.249 442.384 22.259C450.054 15.069 462.144 18.349 463.794 28.479C464.724 23.009 467.594 19.929 472.504 18.769C477.364 17.619 481.474 19.0791 485.004 22.4591C488.864 15.3391 491.814 14.2491 495.254 18.8391C494.704 18.8391 494.324 18.8591 493.954 18.8391C489.634 18.6191 487.334 21.4191 488.394 25.5991C489.794 31.0891 496.184 36.689 501.854 37.039C503.564 37.149 505.464 36.669 507.044 35.949C509.124 34.989 509.964 33.009 509.674 30.699C509.404 28.499 508.184 26.7991 506.084 26.2491C505.044 25.9791 503.314 26.339 502.664 27.079C501.914 27.939 501.554 29.6491 501.844 30.7791C502.394 32.9391 504.404 32.7991 507.034 30.7191C506.724 31.7691 506.704 33.389 506.034 33.729C504.824 34.349 503.124 34.5991 501.804 34.2791C499.364 33.6891 498.244 31.739 498.274 29.139C497.054 29.209 495.914 29.379 494.794 29.329C492.504 29.229 491.024 27.799 490.934 25.729C490.844 23.579 492.254 21.6591 494.284 21.2791C495.894 20.9791 496.984 21.4391 496.994 23.3791C496.144 23.1991 495.194 22.6891 494.624 22.9691C493.914 23.3191 493.144 24.289 493.094 25.039C493.054 25.729 493.914 27.0891 494.394 27.0991C495.894 27.1291 497.684 27.069 498.864 26.299C501.204 24.759 503.354 23.1091 506.474 24.1791C504.954 18.6091 506.294 16.549 511.204 17.109C506.284 21.709 509.584 25.709 511.934 29.639C514.154 25.729 517.594 21.7591 512.624 17.0991C517.544 16.5691 518.844 18.5591 517.364 24.2091C520.394 23.1391 522.614 24.4691 524.764 26.2491C525.454 26.8191 526.474 27.3091 527.324 27.2791C528.434 27.2391 529.724 26.8791 530.524 26.1791C530.894 25.8491 530.614 24.039 530.064 23.579C529.394 23.019 528.124 23.159 526.864 22.9591C526.724 21.5891 527.744 21.019 529.374 21.239C531.484 21.519 533.064 23.599 532.914 25.759C532.774 27.839 531.304 29.239 529.014 29.329C527.944 29.369 526.874 29.2191 525.794 29.1491C524.684 33.3291 522.354 35.259 519.224 34.579C517.334 34.169 516.764 33.0691 517.164 30.6191C517.294 30.6491 517.494 30.6191 517.554 30.7091C518.494 31.909 519.514 33.0491 521.154 31.9091C522.564 30.9191 522.604 29.439 521.934 28.019C521.194 26.429 519.904 25.479 518.074 26.039C515.894 26.709 514.534 28.2591 514.164 30.5291C513.794 32.8291 514.554 34.949 516.644 35.829C518.544 36.629 520.874 37.1891 522.854 36.8691C528.654 35.9391 532.514 32.1891 534.874 26.9691C535.464 25.6691 535.604 23.9991 535.434 22.5591C535.134 20.0591 533.454 18.8491 530.914 18.8091C530.214 18.7991 529.524 18.8091 528.474 18.8091C529.724 17.1791 530.994 15.9591 532.854 16.1291C536.434 16.4691 537.294 19.6191 538.744 22.4991C542.314 19.2091 546.364 17.6191 551.204 18.7491C556.194 19.9091 559.124 22.9791 560.114 28.1291C561.104 23.1091 563.924 19.9891 568.874 18.8191C573.744 17.6691 577.834 19.089 581.374 22.449C585.674 15.229 587.974 14.3691 591.754 18.8391C591.034 18.8391 590.524 18.8491 590.014 18.8391C586.144 18.7291 583.984 21.2691 584.704 25.1191C585.794 30.9991 593.054 37.189 599.044 37.109C600.624 37.089 602.334 36.539 603.744 35.789C605.604 34.799 606.374 32.9291 606.114 30.8091C605.834 28.5391 604.584 26.759 602.384 26.229C601.354 25.979 599.634 26.4191 599.004 27.1891C598.284 28.0691 598.044 29.7491 598.294 30.9291C598.634 32.5091 600.514 32.819 601.794 31.759C602.214 31.409 602.554 30.9591 602.984 30.4991C603.504 33.1391 602.884 34.2891 600.844 34.6491C597.664 35.2191 595.184 33.1091 594.584 29.2191C593.414 29.2691 592.214 29.429 591.024 29.359C588.794 29.229 587.344 27.699 587.294 25.609C587.244 23.439 588.934 21.409 591.034 21.229C592.604 21.089 593.444 21.8191 593.424 23.3091C592.424 23.2091 591.374 22.7791 590.744 23.1191C590.074 23.4891 589.414 24.6091 589.464 25.3491C589.504 26.0391 590.524 27.2491 591.054 27.2191C592.634 27.1291 594.464 26.9291 595.674 26.0591C597.834 24.5091 599.914 23.329 602.194 24.009C602.384 22.019 602.104 19.9091 602.914 18.3791C603.474 17.3391 605.574 17.119 606.984 16.539C607.094 16.719 607.194 16.8891 607.304 17.0691C607.034 17.5391 606.784 18.0191 606.474 18.4691C604.654 21.1391 604.404 23.759 606.474 26.479C607.244 27.489 607.704 28.729 608.274 29.789C610.474 25.839 613.984 21.899 609.124 17.269C613.784 16.339 615.374 18.769 613.674 24.289C616.944 23.039 619.154 24.8091 621.484 26.4691C622.364 27.0991 623.654 27.4591 624.734 27.3991C625.564 27.3591 626.704 26.6491 627.044 25.9291C627.334 25.3191 626.924 23.969 626.354 23.479C625.864 23.049 624.724 23.349 623.874 23.359C623.704 23.359 623.534 23.4691 623.234 23.5591C623.154 21.8691 623.964 21.1791 625.434 21.2191C627.424 21.2691 629.174 23.129 629.294 25.229C629.424 27.369 628.134 29.0491 625.964 29.3091C624.704 29.4591 623.404 29.3391 622.094 29.3391C621.294 33.2591 618.754 35.3491 615.554 34.5991C613.674 34.1591 613.064 32.8691 613.714 30.5291C614.074 30.9291 614.374 31.3091 614.724 31.6191C616.154 32.8891 618.104 32.5191 618.424 30.6791C618.624 29.5091 618.254 27.839 617.474 27.009C616.794 26.289 615.094 26.039 614.024 26.289C611.954 26.789 610.534 29.099 610.514 31.259C610.494 33.689 611.644 35.449 613.854 36.359C618.704 38.359 622.894 36.5091 626.454 33.4691C628.524 31.6991 630.244 29.2191 631.384 26.7191C633.514 22.0691 631.014 18.7191 625.944 18.8691C625.684 18.8691 625.434 18.8691 624.804 18.8691C626.184 17.1391 627.514 15.8591 629.484 16.1491C632.894 16.6491 633.744 19.689 635.124 22.539C638.704 19.259 642.744 17.6291 647.584 18.7491C652.554 19.8991 655.554 22.9091 656.494 28.1291C657.524 23.0791 660.394 19.9291 665.374 18.7791C670.164 17.6691 674.214 19.0791 677.834 22.4991C679.414 19.8291 680.164 16.229 683.954 16.199C685.364 16.189 686.784 17.459 688.194 18.139C688.104 18.369 688.014 18.599 687.924 18.829C687.394 18.829 686.864 18.839 686.334 18.829C682.644 18.749 680.524 21.149 681.074 24.789C682.024 31.009 689.744 37.3991 696.004 37.1591C699.284 37.0291 701.744 35.2991 702.434 32.6191C703.004 30.4091 702.034 27.8891 699.874 26.6891C699.004 26.2091 697.534 25.759 696.894 26.169C695.814 26.859 694.814 28.1391 694.484 29.3691C694.284 30.1291 695.254 31.899 695.934 32.039C697.004 32.249 698.274 31.469 699.464 31.109C699.974 32.909 699.434 34.0991 697.554 34.5691C694.354 35.3691 691.824 33.2991 690.984 29.1891C689.774 29.2391 688.554 29.409 687.354 29.329C685.144 29.169 683.714 27.569 683.734 25.479C683.744 23.319 685.544 21.309 687.594 21.199C689.094 21.119 689.824 21.8891 689.944 23.5291C689.104 23.2691 688.204 22.679 687.744 22.919C686.954 23.329 686.014 24.219 685.934 24.989C685.864 25.689 686.864 27.1791 687.354 27.1491C688.994 27.0791 690.914 26.909 692.174 26.019C694.354 24.469 696.424 23.3291 698.734 24.0291C698.844 22.0991 698.434 19.999 699.224 18.549C699.834 17.429 701.944 17.1291 703.384 16.4591C703.504 16.6391 703.624 16.829 703.734 17.009C703.604 17.299 703.514 17.6291 703.324 17.8791C701.034 20.8891 700.724 23.8691 703.254 26.9591C703.904 27.7591 704.204 28.839 704.674 29.829C706.924 25.769 710.474 21.869 705.364 17.139C705.594 16.959 705.814 16.7791 706.044 16.5991C707.464 17.1691 709.564 17.349 710.144 18.389C710.954 19.849 710.644 21.9391 710.834 23.9591C713.344 23.1491 715.694 24.6891 717.994 26.5291C718.584 26.9991 719.484 27.3991 720.184 27.3191C721.304 27.1891 722.584 26.8791 723.364 26.1591C723.734 25.8191 723.424 24.009 722.864 23.549C722.184 22.999 720.914 23.1991 719.814 23.0591C719.754 21.6891 720.564 20.919 722.274 21.239C724.404 21.639 725.864 23.5991 725.704 25.8491C725.554 27.9291 724.094 29.289 721.774 29.359C720.704 29.389 719.634 29.2291 718.564 29.1491C717.614 33.2991 715.204 35.3091 712.034 34.5891C710.124 34.1591 709.504 32.909 710.104 30.449C710.514 30.899 710.824 31.329 711.214 31.669C712.574 32.859 714.434 32.549 714.814 30.799C715.064 29.639 714.754 27.969 714.014 27.109C713.364 26.359 711.684 26.009 710.614 26.239C708.514 26.689 707.034 28.9591 706.934 31.0991C706.824 33.4391 708.044 35.4691 710.344 36.3791C715.294 38.3491 719.424 36.339 723.114 33.299C724.694 31.999 725.914 30.1791 727.044 28.4291C728.564 26.0691 729.124 23.459 727.664 20.829C726.314 18.399 723.904 18.8091 721.464 18.9091C722.404 17.1391 723.774 16.0291 725.574 16.1491C729.294 16.3991 730.144 19.6691 731.554 22.4591C732.274 21.909 732.934 21.3791 733.624 20.8791C738.154 17.6091 744.534 17.6591 748.834 20.8791C751.254 22.6991 752.064 25.379 752.994 28.019V32.359C751.944 35.939 749.824 38.559 746.024 39.789C749.834 41.059 751.914 43.6291 752.994 47.1191V51.459C752.104 54.119 751.334 56.819 748.914 58.6491C744.604 61.9191 738.284 62.019 733.734 58.789C732.994 58.269 732.284 57.7091 731.454 57.0891C730.474 59.9191 729.114 62.249 726.524 63.609H724.784C723.604 62.749 722.424 61.899 721.244 61.039C722.074 60.679 722.644 60.7291 723.214 60.7491C726.514 60.8791 728.424 59.1291 728.404 55.8191C728.404 54.6891 728.184 53.4691 727.694 52.4691C725.384 47.7091 721.914 44.2291 716.644 42.8091C714.234 42.1591 711.904 42.2591 709.714 43.4991C707.704 44.6391 706.724 46.419 706.954 48.729C707.184 51.029 708.514 52.599 710.614 53.449C712.244 54.109 713.944 53.329 714.754 51.639C715.494 50.099 715.424 48.5891 713.914 47.5991C712.264 46.5091 711.264 47.729 710.344 48.9291C710.304 48.979 710.134 48.9191 710.024 48.9091C709.574 46.6891 710.164 45.4491 711.894 44.9991C715.034 44.1891 717.464 46.1791 718.584 50.4091C719.824 50.3491 721.054 50.149 722.254 50.259C724.384 50.459 725.684 51.959 725.714 54.009C725.744 56.179 724.274 58.0491 722.224 58.3391C720.544 58.5791 719.624 57.879 719.604 55.959C719.904 56.079 720.064 56.1891 720.224 56.1891C721.074 56.2291 722.204 56.5891 722.714 56.1891C723.294 55.7391 723.754 54.3991 723.494 53.7791C723.184 53.0591 722.074 52.349 721.244 52.259C720.244 52.149 719.004 52.4291 718.174 52.9991C715.744 54.6391 713.494 56.5991 710.044 55.4091C712.004 60.6591 710.484 62.9591 705.494 62.4991C710.324 57.7991 707.114 53.8291 704.684 49.9091C704.074 51.0391 703.544 52.329 702.744 53.419C700.964 55.859 701.114 58.2391 702.634 60.6891C703.004 61.2891 703.384 61.889 703.784 62.539C699.084 62.919 697.974 61.229 699.204 55.489C696.354 56.289 694.224 55.0691 692.014 53.4691C690.854 52.6291 689.074 52.369 687.574 52.389C686.964 52.389 685.844 53.8691 685.914 54.5891C685.994 55.3691 687.084 56.1991 687.924 56.6791C688.304 56.8991 689.144 56.3091 689.924 56.0291C689.774 58.1191 688.674 58.659 686.974 58.289C685.084 57.879 683.614 55.8591 683.714 53.9391C683.814 51.9891 685.244 50.439 687.334 50.259C688.534 50.159 689.764 50.359 690.974 50.419C691.814 46.319 694.284 44.2591 697.504 44.9991C699.344 45.4191 699.934 46.6591 699.364 48.9391C697.144 46.7891 695.264 46.669 694.694 48.789C694.394 49.909 694.734 51.629 695.474 52.489C696.124 53.239 697.854 53.6491 698.884 53.3691C701.064 52.7791 702.324 50.9791 702.554 48.7191C702.784 46.5191 701.894 44.6191 699.914 43.6591C698.464 42.9591 696.744 42.429 695.164 42.479C689.124 42.669 682.444 48.4691 681.174 54.3491C680.324 58.3091 682.494 60.9291 686.494 60.7491C686.964 60.7291 687.434 60.689 687.914 60.669C687.994 60.819 688.074 60.9691 688.154 61.1191C687.054 61.9591 685.954 62.7891 684.864 63.6291H682.694C680.984 61.6091 679.274 59.579 677.484 57.459C674.254 60.529 670.124 61.9491 665.294 60.8091C660.364 59.6491 657.454 56.4991 656.524 51.4091C655.594 56.6291 652.604 59.6891 647.664 60.8391C642.844 61.9591 638.724 60.479 635.684 57.539C633.754 59.679 631.974 61.6491 630.184 63.6291H628.014C626.994 62.7591 625.964 61.899 624.514 60.669C631.144 60.969 633.684 57.5291 631.214 52.3391C628.714 47.0991 624.714 43.409 618.784 42.639C616.924 42.399 614.774 43.009 613.004 43.789C610.944 44.699 610.124 47.1191 610.634 49.3491C611.114 51.4891 612.464 52.9891 614.564 53.5691C616.374 54.0691 617.664 53.109 618.394 51.509C619.064 50.059 618.934 48.589 617.524 47.639C615.874 46.529 614.874 47.7291 613.924 48.8991C613.874 48.9591 613.674 48.8991 613.444 48.8791C613.114 47.0391 613.464 45.559 615.514 45.019C618.614 44.209 620.964 46.1591 622.204 50.4391C623.374 50.3691 624.524 50.1591 625.664 50.2491C627.814 50.4091 629.204 51.8591 629.304 53.8391C629.414 55.9791 627.984 57.8991 625.974 58.3191C624.204 58.6891 623.434 58.019 623.394 56.479C624.444 56.379 625.714 56.6091 626.394 56.0891C626.964 55.6491 627.324 53.8291 626.964 53.4991C626.194 52.7791 624.924 52.439 623.804 52.299C623.104 52.209 622.204 52.5991 621.604 53.0591C619.294 54.8291 616.994 56.5191 613.674 55.4391C615.534 60.7491 614.144 62.8591 608.984 62.5591C613.994 57.8491 610.564 53.819 608.294 49.859C607.704 50.939 607.174 52.2291 606.384 53.3091C604.544 55.8091 604.644 58.249 606.254 60.759C606.624 61.339 606.974 61.9291 607.384 62.5991C602.474 62.7491 601.344 61.0091 602.864 55.4391C599.744 56.4791 597.594 54.829 595.274 53.259C594.144 52.499 592.424 52.3191 590.994 52.3791C589.684 52.4391 589.074 53.6391 589.484 54.9691C589.894 56.2791 590.744 57.1091 592.264 56.5591C592.614 56.4291 592.924 56.189 593.464 55.889C593.384 58.029 592.364 58.5991 590.734 58.3191C588.744 57.9791 587.214 55.9691 587.304 53.8991C587.394 51.9191 588.784 50.409 590.904 50.239C592.094 50.139 593.314 50.3391 594.514 50.4091C595.304 46.3591 597.874 44.239 601.084 44.979C602.914 45.399 603.494 46.639 602.924 49.049C602.494 48.599 602.154 48.149 601.724 47.799C600.434 46.759 598.564 47.119 598.254 48.709C598.024 49.899 598.364 51.419 598.984 52.489C599.734 53.779 601.224 53.9891 602.644 53.3491C604.734 52.4091 605.984 50.7691 606.124 48.4991C606.264 46.2991 605.314 44.469 603.314 43.519C602.044 42.909 600.574 42.4691 599.184 42.4391C593.204 42.3091 585.724 48.619 584.664 54.509C583.964 58.439 586.224 60.9491 590.244 60.7191C590.684 60.6891 591.124 60.7191 592.214 60.7191C590.624 61.9591 589.554 62.779 588.494 63.609H586.324C584.574 61.599 582.824 59.5891 581.084 57.5991C574.204 64.2791 561.794 61.6591 560.064 51.4991C558.384 61.5591 546.074 64.3691 539.084 57.6191C537.334 59.6091 535.574 61.609 533.814 63.609H531.644C530.574 62.739 529.504 61.869 528.104 60.739C534.824 60.829 537.314 57.379 534.664 52.079C532.154 47.049 528.264 43.4391 522.504 42.6491C520.694 42.3991 518.624 42.8791 516.884 43.5691C514.854 44.3691 513.934 46.299 514.074 48.519C514.214 50.819 515.464 52.4391 517.534 53.3791C519.204 54.1291 520.874 53.519 521.764 51.859C522.544 50.389 522.634 48.8591 521.214 47.7491C519.514 46.4291 518.464 47.7791 517.434 48.9291C517.384 48.9891 517.184 48.9191 517.024 48.8991C516.674 47.0491 517.014 45.399 519.104 45.079C520.304 44.889 521.974 44.989 522.794 45.699C524.204 46.909 525.114 48.6891 526.354 50.4091C526.844 50.3691 527.844 50.1891 528.844 50.2191C531.154 50.2891 532.614 51.609 532.844 53.699C533.064 55.669 531.804 57.599 529.874 58.239C528.074 58.829 527.084 58.1391 526.994 56.5891C528.054 56.4391 529.324 56.6191 530.004 56.0591C530.564 55.5991 530.864 53.779 530.494 53.449C529.704 52.749 528.404 52.379 527.294 52.329C526.444 52.289 525.414 52.7591 524.734 53.3191C522.594 55.1091 520.354 56.359 517.384 55.509C518.724 61.129 517.434 63.059 512.574 62.459C517.614 57.799 513.994 53.8391 511.834 49.8191C511.254 50.9091 510.784 52.159 510.014 53.169C508.034 55.799 508.184 58.359 509.924 60.989C510.254 61.489 510.554 62.0091 510.924 62.6191C505.954 62.6991 504.824 60.9291 506.424 55.4291C503.294 56.479 501.144 54.849 498.814 53.289C497.684 52.529 495.964 52.369 494.534 52.4291C493.964 52.4491 492.994 53.839 493.044 54.549C493.094 55.309 494.004 56.2191 494.774 56.6491C495.234 56.909 496.134 56.3591 496.914 56.1491C496.964 58.1091 495.844 58.5791 494.254 58.3191C492.244 57.9991 490.754 56.0191 490.844 53.9091C490.924 51.9191 492.314 50.419 494.434 50.259C495.624 50.169 496.844 50.369 498.044 50.4291C498.824 46.3791 501.384 44.2691 504.604 44.9991C506.454 45.4191 507.064 46.709 506.464 49.079C506.034 48.629 505.694 48.1891 505.274 47.8491C503.984 46.8091 502.124 47.139 501.804 48.729C501.564 49.909 501.904 51.429 502.504 52.509C503.244 53.819 504.744 54.0391 506.154 53.3991C508.134 52.5091 509.394 50.9991 509.614 48.7791C509.834 46.5591 509.014 44.6791 507.044 43.6791C505.674 42.9791 504.034 42.479 502.514 42.479C496.614 42.459 489.404 48.549 488.254 54.299C487.434 58.369 489.664 60.9791 493.764 60.7491C494.204 60.7191 494.654 60.7491 495.674 60.7491C494.194 61.9491 493.154 62.7891 492.124 63.6291H489.954C488.184 61.6491 486.404 59.659 484.634 57.6791C477.224 64.799 465.004 60.9391 463.594 51.4391C462.694 56.4791 459.824 59.629 454.864 60.789C450.004 61.919 445.814 60.539 442.714 57.489C440.814 59.699 439.124 61.6591 437.424 63.6191H435.254C434.164 62.7791 433.084 61.9291 431.644 60.8091C438.594 60.5991 440.884 57.0491 437.994 51.6891C435.394 46.8691 431.604 43.3791 426.014 42.6491C424.144 42.4091 422.004 42.9391 420.214 43.6791C418.194 44.5191 417.354 46.5191 417.584 48.7191C417.824 50.9791 419.124 52.5991 421.244 53.4391C422.904 54.0991 424.564 53.3491 425.384 51.6491C426.084 50.2091 426.074 48.759 424.744 47.729C423.054 46.409 421.984 47.719 420.954 48.889C420.904 48.939 420.714 48.8691 420.564 48.8491C420.214 46.9991 420.524 45.349 422.644 45.049C423.844 44.879 425.514 44.9791 426.334 45.6891C427.724 46.8991 428.614 48.679 429.834 50.389C430.394 50.349 431.474 50.159 432.534 50.209C434.784 50.319 436.284 51.769 436.414 53.829C436.544 55.779 435.144 57.7391 433.254 58.2491C431.434 58.7391 430.554 58.0691 430.454 56.5991C431.584 56.3891 432.824 56.4691 433.624 55.9091C434.134 55.5491 434.394 53.769 434.054 53.489C433.224 52.799 432.004 52.4591 430.884 52.2791C430.254 52.1791 429.424 52.519 428.864 52.919C426.474 54.609 424.214 56.5791 420.784 55.4291C422.524 60.8091 421.034 63.019 416.494 62.489C418.327 58.9624 417.964 54.7724 415.404 49.919C413.004 53.869 409.844 57.869 414.414 62.789C412.614 62.439 410.504 62.1991 409.914 61.1191C409.114 59.6691 409.484 57.5691 409.344 55.6191C406.994 56.2691 404.854 55.069 402.654 53.459C401.504 52.6091 399.724 52.419 398.204 52.359C397.644 52.339 396.574 53.5391 396.574 54.1791C396.574 54.9991 397.254 56.109 397.974 56.539C398.524 56.869 399.584 56.319 400.484 56.1491C400.464 58.1691 399.284 58.619 397.604 58.269C395.594 57.849 394.244 55.8691 394.404 53.7191C394.554 51.7391 395.964 50.3391 398.134 50.2191C399.314 50.1591 400.504 50.349 401.774 50.4291C401.694 47.739 402.874 45.839 405.314 45.269C406.634 44.959 408.324 45.2391 409.524 45.8691C410.184 46.2191 410.184 47.8391 410.464 48.8491C409.004 48.1791 407.974 47.399 406.914 47.359C406.324 47.339 405.174 48.529 405.164 49.1791C405.144 50.3591 405.484 51.8591 406.254 52.6291C406.944 53.3091 408.554 53.6291 409.534 53.3391C411.594 52.7391 412.854 51.0691 413.134 48.8791C413.424 46.6691 412.634 44.749 410.684 43.729C409.264 42.989 407.544 42.4491 405.964 42.4591C400.154 42.4791 393.224 48.2491 391.864 53.9291C390.824 58.299 393.094 60.9791 397.584 60.6891C397.904 60.6691 398.224 60.6891 399.164 60.6891C397.724 61.9091 396.724 62.7591 395.724 63.5991H393.554C391.734 61.5991 389.914 59.5991 388.094 57.5991C381.154 64.3091 368.814 61.5191 367.104 51.4691C366.844 50.2991 367.154 47.229 367.154 47.229C367.994 43.309 370.484 41.2091 374.484 39.7791C370.414 38.3891 367.984 36.199 367.124 32.389C367.124 32.389 366.904 28.939 367.124 28.019L367.294 27.979ZM664.054 39.7191C659.824 38.4491 657.504 36.0591 656.534 32.3391C655.774 36.2991 653.154 38.3591 649.274 39.8091C653.334 41.1291 655.714 43.3591 656.604 47.1491C657.464 43.3291 659.924 41.1291 664.054 39.7191ZM552.754 39.759C556.924 41.139 559.324 43.3991 560.164 47.2491C560.964 43.3691 563.464 41.109 567.584 39.759C563.374 38.349 560.994 36.069 560.154 32.259C559.334 36.119 556.904 38.379 552.754 39.769V39.759ZM471.154 39.759C467.044 38.419 464.564 36.1891 463.734 32.3191C462.864 36.1891 460.384 38.3991 456.304 39.7791C460.454 41.1191 462.854 43.3891 463.734 47.2091C464.574 43.3691 466.994 41.149 471.144 39.759H471.154Z" fill="#7CB0FA"/>
<path d="M-162.146 38.259C-162.836 37.269 -163.406 36.519 -163.896 35.729C-166.016 32.309 -165.196 29.8891 -161.466 28.3791C-160.666 28.0591 -159.786 27.7991 -159.126 27.2791C-158.566 26.8391 -158.066 26.109 -157.926 25.419C-157.866 25.109 -158.736 24.289 -159.206 24.269C-159.896 24.239 -160.726 24.579 -161.286 25.019C-161.766 25.399 -161.956 26.149 -162.366 26.889C-163.326 24.819 -162.686 23.4591 -161.006 22.5291C-159.396 21.6391 -157.186 22.2291 -156.176 23.7191C-155.056 25.3691 -155.476 26.7191 -157.686 28.6291C-154.976 30.4891 -154.496 31.4591 -155.516 32.9691C-156.606 34.5591 -158.456 34.8591 -160.276 33.5891C-159.866 33.4391 -159.466 33.409 -159.256 33.199C-158.676 32.589 -158.166 31.9091 -157.636 31.2491C-158.466 30.8591 -159.326 30.0891 -160.136 30.1491C-162.496 30.2991 -163.696 32.919 -162.686 35.269C-161.116 38.899 -156.276 39.539 -153.476 36.479C-150.206 32.899 -150.206 26.5691 -153.476 23.1591C-156.826 19.6691 -162.616 19.4391 -166.376 22.9391C-169.166 25.5491 -171.706 28.439 -174.216 31.329C-176.916 34.429 -179.916 37.139 -183.816 38.549C-185.596 39.189 -187.626 39.6391 -189.476 39.4591C-193.286 39.0891 -195.926 36.909 -197.006 32.769C-197.246 33.379 -197.356 33.6391 -197.456 33.8991C-199.136 38.1391 -203.046 40.249 -207.506 39.359C-213.086 38.249 -216.966 34.6891 -220.526 30.5591C-222.926 27.7691 -225.396 24.999 -228.156 22.579C-231.936 19.269 -237.926 19.8891 -240.996 23.5691C-244.106 27.2991 -243.656 33.829 -240.066 37.019C-237.256 39.519 -232.766 38.5591 -231.346 35.1591C-230.336 32.7291 -231.806 30.049 -234.256 30.109C-235.006 30.129 -235.736 30.9091 -236.476 31.3391C-235.976 31.9491 -235.516 32.5991 -234.966 33.1591C-234.716 33.4091 -234.266 33.4591 -233.776 33.6591C-235.756 34.8591 -237.646 34.5591 -238.606 32.8991C-240.016 30.4491 -237.786 29.709 -236.376 28.639C-238.566 26.829 -239.006 25.4791 -237.986 23.8491C-236.986 22.2391 -234.686 21.5891 -233.026 22.5691C-231.386 23.5291 -230.756 24.8991 -231.736 26.8791C-232.156 26.1391 -232.366 25.349 -232.886 24.949C-233.446 24.519 -234.286 24.279 -235.006 24.289C-235.426 24.289 -236.226 25.0491 -236.166 25.3191C-236.016 26.0091 -235.616 26.8091 -235.056 27.2091C-234.186 27.819 -233.106 28.1291 -232.116 28.5591C-229.156 29.8591 -228.306 32.2491 -229.846 35.0891C-230.426 36.1591 -231.156 37.1391 -231.856 38.2191C-225.336 37.5191 -223.886 35.8691 -224.566 30.8391C-223.666 31.9191 -222.516 33.1491 -222.526 34.3691C-222.526 35.6891 -223.626 36.9991 -224.096 37.9991C-221.056 38.4191 -217.976 38.839 -214.906 39.259V40.259C-218.046 40.689 -221.186 41.109 -224.176 41.519C-221.756 46.109 -221.796 46.679 -224.866 48.579C-224.246 43.319 -225.966 41.489 -231.826 41.389C-231.256 42.229 -230.706 42.959 -230.226 43.729C-228.096 47.159 -228.886 49.6091 -232.586 51.1191C-233.456 51.4691 -234.356 51.799 -235.136 52.299C-236.006 52.859 -236.966 53.8091 -235.826 54.6891C-235.216 55.1591 -233.846 54.9691 -232.986 54.6491C-232.436 54.4491 -232.186 53.4491 -231.746 52.709C-231.016 54.889 -231.466 56.1691 -233.136 56.9991C-234.736 57.7991 -236.746 57.329 -237.816 55.919C-239.026 54.319 -238.656 52.9191 -236.776 51.1191C-237.556 49.9291 -238.756 48.8591 -238.866 47.6791C-238.936 46.9191 -237.566 45.739 -236.586 45.239C-235.896 44.889 -234.786 45.3591 -233.866 45.4591C-233.896 45.6491 -233.916 45.849 -233.946 46.039C-234.226 46.109 -234.606 46.079 -234.766 46.259C-235.356 46.919 -235.886 47.649 -236.426 48.359C-235.566 48.699 -234.676 49.4091 -233.866 49.3191C-231.566 49.0691 -230.446 46.629 -231.376 44.329C-232.906 40.559 -237.836 39.889 -240.686 43.079C-243.926 46.709 -243.866 52.999 -240.566 56.389C-237.116 59.919 -231.526 60.089 -227.676 56.509C-225.036 54.059 -222.836 51.139 -220.206 48.669C-217.496 46.119 -214.776 43.379 -211.576 41.579C-205.226 38.029 -200.156 39.929 -197.036 46.359C-194.376 40.329 -189.626 38.449 -183.466 41.039C-179.796 42.589 -176.886 45.1391 -174.276 48.1191C-171.606 51.1591 -168.926 54.219 -165.936 56.919C-162.236 60.259 -156.206 59.6091 -153.116 55.8991C-149.956 52.0991 -150.496 45.3891 -154.226 42.3091C-156.966 40.0491 -161.236 40.9791 -162.666 44.1491C-163.606 46.2391 -162.826 48.5491 -160.856 49.2191C-159.646 49.6291 -158.256 49.8491 -157.736 48.3091C-157.256 46.8691 -158.536 46.5291 -159.586 46.1891C-159.796 46.1191 -160.006 46.0291 -160.346 45.8991C-158.456 44.6391 -156.496 44.9291 -155.516 46.5691C-154.076 48.9891 -156.246 49.7691 -157.686 50.8191C-155.446 52.8191 -155.066 54.1791 -156.226 55.8191C-157.296 57.3391 -159.416 57.8391 -161.066 56.959C-162.696 56.0891 -163.116 54.6991 -162.296 52.7191C-161.966 53.3391 -161.806 54.089 -161.346 54.419C-160.706 54.869 -159.856 55.169 -159.076 55.209C-158.686 55.229 -157.866 54.429 -157.936 54.169C-158.106 53.479 -158.516 52.699 -159.086 52.289C-159.886 51.709 -160.886 51.399 -161.826 51.009C-165.046 49.659 -165.896 47.2591 -164.186 44.2091C-163.676 43.2991 -163.076 42.4491 -162.446 41.4691C-168.076 41.3891 -169.986 43.4491 -169.166 49.2191C-170.216 47.8991 -171.506 46.999 -171.466 46.169C-171.386 44.449 -170.596 42.7591 -170.226 41.4991C-172.986 41.1191 -176.096 40.6791 -179.206 40.2491C-179.206 39.9091 -179.206 39.5791 -179.206 39.239C-176.076 38.8291 -172.956 38.409 -169.896 38.009C-172.446 33.909 -172.356 32.7991 -169.226 30.9291C-169.996 36.1291 -168.676 37.549 -162.166 38.259H-162.146ZM-4.48615 45.889C-3.05615 44.329 -1.81613 42.3991 -0.0761414 41.2191C2.68387 39.3391 5.85388 39.6891 8.88388 40.8491C12.9039 42.3991 16.0039 45.1491 18.8039 48.3491C21.4138 51.3291 24.0539 54.349 27.0039 56.979C30.7339 60.309 36.7539 59.609 39.8039 55.859C42.9439 51.999 42.3539 45.309 38.6139 42.289C35.5739 39.829 30.7838 41.3391 29.9038 45.0291C29.4238 47.0491 30.5038 49.069 32.4839 49.289C33.3539 49.389 34.3138 48.6591 35.2339 48.3091C34.6638 47.6191 34.1139 46.8991 33.4939 46.2491C33.3139 46.0591 32.9539 46.0491 32.5239 45.9091C34.4039 44.6491 36.2939 44.969 37.3739 46.549C38.4139 48.059 37.8939 49.069 35.2039 50.829C37.3739 52.799 37.7739 54.129 36.6839 55.759C35.6239 57.349 33.3539 57.8591 31.6839 56.8791C30.1439 55.9791 29.8139 54.829 30.6239 52.829C30.9239 53.389 31.0739 54.049 31.4839 54.329C32.1439 54.779 32.9539 55.1791 33.7238 55.209C34.1439 55.229 35.0039 54.329 34.9339 54.019C34.7839 53.339 34.2739 52.589 33.6939 52.199C32.8039 51.609 31.7239 51.3191 30.7439 50.8691C28.0039 49.6291 27.1539 47.329 28.5139 44.639C29.0839 43.519 29.8439 42.4991 30.5239 41.4391C30.4339 41.2691 30.3439 41.0991 30.2539 40.9291C28.4039 41.6291 26.1139 41.8791 24.8239 43.1491C23.6538 44.2991 23.5639 46.5591 22.9739 48.3991C22.5339 47.7991 21.2839 46.8491 21.3439 45.9991C21.4739 44.3291 22.3339 42.7191 22.7439 41.4991C19.9239 41.1091 16.7939 40.6791 13.6639 40.2491C13.6639 39.9191 13.6639 39.5891 13.6639 39.2491C16.7939 38.8291 19.9138 38.4091 22.9539 37.9991C20.4339 33.6691 20.4839 32.9191 23.5939 30.9591C23.1639 36.3391 24.5539 37.7891 30.6439 38.1791C30.0339 37.2791 29.4339 36.479 28.9239 35.639C26.9138 32.339 27.7539 29.8591 31.3239 28.3991C32.1939 28.0491 33.1339 27.759 33.8539 27.199C34.3939 26.769 34.7838 25.979 34.9138 25.289C34.9638 25.019 34.1639 24.269 33.7539 24.269C33.0439 24.269 32.2339 24.5391 31.6439 24.9591C31.1439 25.3091 30.9139 26.019 30.4339 26.759C29.9239 24.289 30.4339 23.089 32.1239 22.389C33.7639 21.709 35.7838 22.309 36.7238 23.769C37.7738 25.389 37.3539 26.7391 35.2039 28.6591C37.9339 30.4491 38.4339 31.4391 37.3639 32.9591C36.2339 34.5691 34.4039 34.8591 32.6739 33.5991C32.9839 33.4591 33.2739 33.409 33.4439 33.239C34.0739 32.5991 34.6639 31.909 35.2639 31.239C34.2839 30.879 33.2339 30.089 32.3339 30.239C30.0539 30.609 29.1538 33.379 30.3539 35.639C32.2238 39.129 36.9938 39.409 39.6538 36.169C42.7338 32.429 42.5539 26.2891 39.2639 23.0291C35.7939 19.5991 30.1539 19.469 26.3639 23.039C23.5839 25.659 21.0638 28.5591 18.5439 31.4391C15.8839 34.4791 12.9338 37.149 9.10385 38.509C7.26385 39.159 5.16388 39.5691 3.24387 39.3991C-0.536133 39.0691 -3.04614 36.7991 -4.13614 32.8391C-6.51614 38.8191 -10.9461 40.8491 -16.7561 38.8191C-21.0561 37.3191 -24.3061 34.419 -27.2461 31.039C-29.8061 28.099 -32.4061 25.1591 -35.2961 22.5591C-38.9962 19.2391 -45.0461 19.879 -48.1261 23.579C-51.2961 27.399 -50.7561 34.0691 -47.0161 37.1591C-44.3961 39.3291 -40.4061 38.6291 -38.7561 35.7191C-37.3061 33.1491 -38.7061 30.0691 -41.4361 30.0891C-42.1461 30.0891 -42.8561 30.7791 -43.5761 31.1591C-43.1461 31.8091 -42.7762 32.5091 -42.2661 33.0891C-41.9861 33.3991 -41.4661 33.4791 -40.9161 33.7191C-42.9661 34.8391 -44.8561 34.4891 -45.7861 32.8491C-47.1761 30.3691 -44.8561 29.7091 -43.4861 28.6191C-45.8261 26.7491 -46.2261 25.399 -45.0161 23.669C-43.9662 22.169 -41.8162 21.6691 -40.1761 22.5291C-38.5361 23.3891 -38.1261 24.7791 -38.9961 26.7191C-39.3161 26.1191 -39.4662 25.369 -39.9261 25.049C-40.5662 24.609 -41.4261 24.329 -42.2061 24.299C-42.5862 24.289 -43.3761 25.0991 -43.3061 25.3691C-43.1261 26.0591 -42.7162 26.859 -42.1461 27.239C-41.2061 27.869 -40.0561 28.1891 -39.0061 28.6791C-36.3561 29.9091 -35.5161 32.1491 -36.8161 34.7491C-37.4061 35.9291 -38.2162 36.999 -38.9861 38.229C-32.6262 37.529 -31.5161 36.3391 -31.9461 30.9691C-28.8861 32.9191 -28.8361 33.659 -31.3161 37.989C-28.2661 38.4191 -25.1061 38.859 -21.9461 39.299C-21.9661 39.629 -21.9761 39.959 -21.9961 40.289C-25.1561 40.699 -28.3161 41.109 -31.3561 41.509C-28.8561 45.749 -28.9361 46.9391 -32.0361 48.4991C-31.2961 43.4791 -33.8761 40.849 -38.8561 41.609C-38.3461 42.329 -37.8261 43.0091 -37.3761 43.739C-35.2561 47.139 -36.0661 49.6391 -39.7361 51.1291C-40.6061 51.4791 -41.4961 51.8191 -42.2761 52.3191C-43.1761 52.8891 -44.0561 53.8591 -42.9461 54.709C-42.3461 55.169 -40.9861 54.9491 -40.1061 54.6291C-39.5761 54.4391 -39.3161 53.4891 -38.8161 52.6791C-38.0461 54.759 -38.6161 56.0791 -40.2161 56.9691C-41.7661 57.8291 -43.8761 57.4191 -44.8861 55.9691C-45.3161 55.3491 -45.7861 54.389 -45.5961 53.799C-45.2161 52.669 -44.3762 51.6991 -43.9561 51.0291C-44.7361 49.9191 -45.9561 48.9091 -46.0461 47.8091C-46.1061 46.9991 -44.8161 45.819 -43.8561 45.299C-43.1561 44.919 -42.0161 45.3391 -41.0761 45.3991C-41.0961 45.5991 -41.1061 45.809 -41.1261 46.009C-41.3861 46.089 -41.7461 46.089 -41.9061 46.269C-42.5061 46.929 -43.0361 47.659 -43.5961 48.359C-42.6661 48.699 -41.6761 49.429 -40.8261 49.289C-38.3362 48.879 -37.4261 45.919 -38.8961 43.579C-40.9362 40.329 -45.3661 40.1691 -47.9661 43.2491C-51.1461 47.0191 -50.9561 53.259 -47.5661 56.549C-44.0061 59.999 -38.5161 60.049 -34.6661 56.389C-31.9961 53.859 -29.5562 51.079 -27.1461 48.299C-24.0562 44.729 -20.5761 41.759 -15.9661 40.419C-10.6161 38.859 -6.17615 41.129 -4.51614 45.889H-4.48615ZM-137.286 45.9691C-137.786 46.1091 -138.166 46.089 -138.326 46.269C-138.916 46.939 -139.426 47.6691 -139.976 48.3791C-139.046 48.6991 -138.056 49.419 -137.206 49.269C-134.796 48.859 -133.876 46.049 -135.216 43.729C-137.166 40.339 -141.736 40.119 -144.386 43.269C-147.496 46.969 -147.356 53.1191 -144.086 56.4091C-140.606 59.9191 -135.046 60.089 -131.196 56.489C-128.456 53.929 -126.196 50.8691 -123.446 48.3191C-120.726 45.7891 -117.936 43.1191 -114.696 41.3991C-108.516 38.1091 -103.496 40.109 -100.536 46.479C-99.2861 42.269 -96.4561 40.0491 -92.2461 40.0291C-90.3561 40.0191 -88.3661 40.549 -86.6061 41.269C-82.7761 42.839 -79.9161 45.699 -77.2361 48.799C-74.7861 51.639 -72.2661 54.4591 -69.4661 56.9391C-65.7361 60.2391 -59.6862 59.5791 -56.6461 55.8791C-53.4962 52.0391 -54.0562 45.359 -57.7961 42.299C-60.6761 39.939 -65.2261 41.1391 -66.3961 44.5591C-67.0761 46.5291 -66.2361 48.5891 -64.4061 49.2191C-63.1761 49.6491 -61.7461 49.799 -61.3461 48.289C-61.2061 47.789 -62.4761 46.889 -63.1361 46.199C-63.2762 46.049 -63.5562 46.039 -63.8961 45.919C-62.0662 44.619 -60.1961 44.919 -59.0861 46.519C-58.0561 48.0191 -58.5561 49.049 -61.2161 50.829C-59.0761 52.809 -58.6761 54.189 -59.7561 55.769C-60.7961 57.289 -62.9561 57.869 -64.5761 56.959C-66.2462 56.0191 -66.8861 54.6591 -65.9561 52.6291C-65.5361 53.3691 -65.3161 54.149 -64.8061 54.539C-64.2461 54.969 -63.4061 55.219 -62.6861 55.209C-62.2661 55.209 -61.4561 54.4491 -61.5161 54.1891C-61.6661 53.4991 -62.0561 52.689 -62.6161 52.289C-63.4761 51.679 -64.5561 51.3591 -65.5561 50.9291C-68.5361 49.6291 -69.3961 47.289 -67.8561 44.419C-67.2961 43.379 -66.5761 42.4291 -65.9361 41.4291C-66.0561 41.2191 -66.1861 41.009 -66.3061 40.799C-68.2861 41.689 -70.6361 42.1891 -72.1261 43.5991C-73.1361 44.5591 -72.9261 46.789 -73.3661 48.949C-74.0461 47.549 -75.1661 46.279 -75.1461 45.019C-75.1262 43.709 -74.0061 42.419 -73.5561 41.509C-76.5761 41.089 -79.6862 40.6491 -82.7961 40.2191C-82.7961 39.8891 -82.7961 39.5491 -82.7961 39.2191C-79.6661 38.8091 -76.5361 38.389 -73.4761 37.989C-76.0361 33.8491 -75.9461 32.709 -72.8361 30.979C-73.9461 36.279 -71.6461 37.5791 -65.8061 38.1891C-66.4161 37.2791 -67.0061 36.4791 -67.5261 35.6191C-69.5661 32.2691 -68.7661 29.8591 -65.1761 28.3791C-64.3062 28.0191 -63.3661 27.7491 -62.6361 27.1891C-62.0862 26.7591 -61.6761 25.989 -61.5261 25.299C-61.4661 25.029 -62.2561 24.269 -62.6661 24.259C-63.3761 24.239 -64.2261 24.4791 -64.7861 24.9091C-65.3061 25.3091 -65.5161 26.0991 -65.9561 26.8791C-66.8762 24.8991 -66.3361 23.519 -64.6861 22.549C-63.0961 21.619 -60.8961 22.139 -59.8361 23.609C-58.6961 25.189 -59.0861 26.5991 -61.2261 28.6791C-58.5861 30.3891 -58.0461 31.4991 -59.1461 32.9991C-60.3261 34.6091 -62.1561 34.849 -63.7861 33.509C-63.3961 33.379 -62.9662 33.3691 -62.7661 33.1491C-62.2061 32.5291 -61.7461 31.8291 -61.2461 31.1591C-62.0261 30.7891 -62.8062 30.0791 -63.5761 30.0991C-65.8761 30.1591 -67.2161 32.569 -66.4161 34.889C-65.2661 38.239 -60.8561 39.499 -57.9861 37.299C-54.1862 34.399 -53.4661 27.689 -56.5361 23.759C-59.5361 19.909 -65.7561 19.189 -69.4961 22.519C-72.1261 24.859 -74.5761 27.4591 -76.8461 30.1591C-79.8761 33.7491 -83.1461 37.0091 -87.6361 38.5991C-89.4061 39.2291 -91.4461 39.5491 -93.2961 39.3691C-97.0561 39.0091 -99.4961 36.7091 -100.616 32.8091C-102.826 38.6491 -107.186 40.7491 -112.836 38.9291C-117.096 37.5491 -120.376 34.789 -123.306 31.479C-125.986 28.449 -128.646 25.3691 -131.626 22.6591C-135.326 19.2791 -141.346 19.8091 -144.476 23.4391C-147.646 27.1191 -147.306 33.6291 -143.756 36.8991C-141.106 39.3491 -136.886 38.7391 -135.186 35.6591C-134.086 33.6591 -134.636 31.2791 -136.496 30.3991C-137.726 29.8191 -139.216 29.5091 -139.896 31.0291C-140.576 32.5591 -139.166 32.939 -138.036 33.289C-137.856 33.349 -137.706 33.489 -137.516 33.609C-139.176 34.859 -140.976 34.589 -142.136 32.979C-143.216 31.479 -142.706 30.4491 -140.026 28.6491C-142.276 26.5591 -142.646 25.1791 -141.386 23.5591C-140.186 22.0191 -137.896 21.579 -136.336 22.699C-134.906 23.719 -134.326 25.039 -135.366 26.769C-135.826 25.999 -136.096 24.9491 -136.666 24.7491C-137.516 24.4491 -138.576 24.7591 -139.546 24.8091C-139.296 25.5891 -139.266 26.6491 -138.736 27.0891C-137.876 27.7991 -136.686 28.0891 -135.626 28.5591C-132.746 29.8391 -131.896 32.1291 -133.346 34.9291C-133.926 36.0391 -134.686 37.0591 -135.416 38.2191C-128.996 37.5291 -127.606 36.029 -128.336 30.759C-127.486 31.559 -126.176 32.4991 -126.196 33.3991C-126.236 35.0491 -127.076 36.679 -127.486 38.009C-124.676 38.409 -121.556 38.8391 -118.436 39.2791C-118.446 39.6091 -118.456 39.9491 -118.476 40.2791C-121.616 40.6791 -124.766 41.089 -127.806 41.479C-125.286 45.639 -125.386 46.9591 -128.516 48.4991C-127.576 43.5191 -129.876 41.129 -135.356 41.489C-134.756 42.3491 -134.146 43.139 -133.646 43.989C-131.736 47.209 -132.586 49.6191 -136.066 51.0691C-136.996 51.4591 -138.066 51.729 -138.766 52.389C-139.286 52.879 -139.306 53.8991 -139.556 54.6891C-138.586 54.7291 -137.516 55.0191 -136.666 54.7191C-136.096 54.5191 -135.816 53.4891 -135.396 52.8091C-134.596 54.6691 -134.946 55.9491 -136.456 56.8691C-138.116 57.8691 -140.376 57.3891 -141.486 55.8191C-142.626 54.1891 -142.256 52.8491 -140.096 50.8791C-142.746 48.9691 -143.196 48.039 -142.196 46.549C-141.126 44.959 -139.226 44.6491 -137.336 45.9591L-137.286 45.9691ZM-258.806 52.729C-258.316 53.519 -258.036 54.5291 -257.476 54.7191C-256.606 55.0091 -255.556 54.739 -254.576 54.699C-254.826 53.909 -254.846 52.879 -255.376 52.389C-256.066 51.729 -257.146 51.459 -258.076 51.079C-261.536 49.649 -262.386 47.1991 -260.476 43.989C-259.956 43.1091 -259.346 42.2891 -258.776 41.4391C-258.916 41.2291 -259.066 41.009 -259.206 40.799C-261.186 41.709 -263.526 42.2291 -265.006 43.6591C-265.996 44.6191 -265.746 46.8491 -266.086 48.6491C-266.656 47.9191 -267.936 47.0091 -267.896 46.1591C-267.816 44.4391 -267.016 42.7591 -266.646 41.489C-269.396 41.1091 -272.506 40.6691 -275.606 40.239V39.2191C-272.476 38.8091 -269.356 38.3991 -266.286 37.9991C-268.916 33.9791 -268.816 32.7891 -265.626 30.8991C-266.426 36.0291 -264.276 38.289 -258.726 38.039C-259.326 37.179 -259.946 36.3891 -260.456 35.5291C-262.376 32.3091 -261.546 29.849 -258.096 28.419C-257.226 28.059 -256.286 27.789 -255.556 27.239C-254.996 26.819 -254.506 26.0591 -254.386 25.3791C-254.326 25.0591 -255.206 24.249 -255.676 24.239C-256.366 24.219 -257.176 24.579 -257.746 25.019C-258.216 25.389 -258.396 26.109 -258.826 26.889C-259.716 24.689 -259.046 23.3391 -257.356 22.4591C-255.786 21.6391 -253.726 22.199 -252.696 23.609C-251.496 25.259 -251.856 26.549 -254.106 28.669C-251.446 30.369 -250.906 31.479 -251.986 32.979C-253.146 34.589 -254.976 34.849 -256.676 33.509C-256.276 33.379 -255.856 33.3591 -255.656 33.1491C-255.086 32.5291 -254.606 31.839 -254.096 31.169C-254.946 30.799 -255.826 30.0491 -256.636 30.1191C-259.136 30.3291 -260.266 33.2691 -258.926 35.6791C-256.956 39.2191 -252.096 39.3391 -249.476 35.9091C-246.516 32.0191 -246.886 25.899 -250.286 22.789C-253.856 19.519 -259.276 19.529 -263.036 23.079C-265.656 25.549 -268.066 28.269 -270.416 31.009C-273.146 34.179 -276.146 37.009 -280.116 38.449C-281.956 39.119 -284.056 39.579 -285.966 39.419C-289.736 39.089 -292.336 36.8891 -293.466 32.7491C-293.776 33.5291 -293.896 33.8591 -294.026 34.1891C-295.526 37.9991 -299.626 40.1691 -303.636 39.4091C-309.146 38.3691 -313.066 35.009 -316.616 30.949C-319.226 27.959 -321.876 24.959 -324.856 22.359C-328.576 19.119 -334.706 19.9991 -337.626 23.8091C-340.616 27.7091 -339.946 34.239 -336.246 37.199C-333.266 39.579 -328.606 38.179 -327.616 34.609C-327.066 32.629 -328.086 30.449 -329.976 30.2091C-330.896 30.0891 -331.926 30.8591 -332.916 31.2191C-332.316 31.8891 -331.726 32.5691 -331.096 33.2191C-330.926 33.3891 -330.636 33.439 -330.326 33.579C-332.026 34.829 -333.736 34.6591 -334.866 33.0991C-336.736 30.5391 -334.186 29.749 -332.796 28.549C-334.956 26.869 -335.396 25.559 -334.466 23.919C-333.516 22.249 -331.286 21.5491 -329.556 22.4691C-327.866 23.3591 -327.326 24.7391 -328.136 26.8991C-328.576 26.0891 -328.746 25.359 -329.196 25.049C-329.846 24.609 -330.696 24.309 -331.476 24.269C-331.856 24.249 -332.656 25.059 -332.586 25.329C-332.416 26.019 -332.016 26.8291 -331.446 27.2091C-330.506 27.8391 -329.356 28.159 -328.306 28.639C-325.656 29.859 -324.816 32.0891 -326.106 34.7091C-326.696 35.8991 -327.496 36.979 -328.196 38.109C-328.086 38.289 -327.986 38.4791 -327.876 38.6591C-325.876 37.7791 -323.526 37.2991 -322.016 35.8991C-320.996 34.9491 -321.176 32.709 -320.786 30.889C-320.216 31.649 -318.956 32.569 -319.006 33.419C-319.106 35.079 -319.926 36.699 -320.346 38.009C-317.496 38.409 -314.366 38.839 -311.246 39.269C-311.256 39.599 -311.266 39.9191 -311.276 40.2491C-314.426 40.6691 -317.586 41.0891 -320.606 41.4991C-318.126 45.8491 -318.176 46.6291 -321.206 48.4691C-320.866 43.2191 -322.976 41.0791 -328.176 41.4991C-327.596 42.3491 -326.986 43.1491 -326.476 43.9991C-324.576 47.2191 -325.416 49.6291 -328.906 51.0691C-329.776 51.4291 -330.716 51.709 -331.446 52.259C-331.996 52.689 -332.416 53.4591 -332.576 54.1491C-332.636 54.4191 -331.866 55.1991 -331.456 55.2191C-330.736 55.2391 -329.906 54.989 -329.316 54.579C-328.816 54.229 -328.576 53.489 -328.126 52.759C-327.546 55.219 -327.996 56.3091 -329.736 57.0591C-331.366 57.7691 -333.396 57.189 -334.346 55.739C-335.406 54.139 -335.016 52.859 -333.176 51.109C-333.976 49.929 -335.186 48.859 -335.316 47.669C-335.396 46.919 -333.996 45.7491 -333.006 45.239C-332.326 44.889 -331.226 45.3591 -330.316 45.4591C-330.616 46.0891 -330.816 46.1391 -331.016 46.2091C-332.046 46.5791 -333.436 47.019 -332.716 48.329C-332.356 48.989 -330.726 49.399 -329.816 49.209C-327.616 48.7491 -326.806 46.1091 -327.956 43.9091C-329.796 40.3791 -334.536 40.0591 -337.246 43.2791C-340.356 46.9791 -340.216 53.089 -336.946 56.419C-333.476 59.949 -327.926 60.129 -324.056 56.509C-321.106 53.749 -318.486 50.6391 -315.796 47.6191C-312.906 44.3791 -309.596 41.7591 -305.386 40.4691C-301.106 39.1591 -296.776 40.4891 -294.776 43.7091C-294.256 44.5491 -293.906 45.489 -293.426 46.479C-291.226 40.859 -286.826 38.749 -281.226 40.579C-279.936 40.999 -278.546 41.469 -277.516 42.299C-274.996 44.319 -272.556 46.469 -270.256 48.729C-267.526 51.409 -265.126 54.449 -262.286 56.989C-258.626 60.259 -252.506 59.5591 -249.476 55.8491C-246.346 52.0091 -246.956 45.2991 -250.706 42.2791C-253.346 40.1491 -257.346 40.919 -258.926 43.859C-260.006 45.859 -259.426 48.289 -257.586 49.109C-256.346 49.659 -254.846 49.9791 -254.186 48.4391C-253.526 46.8991 -254.976 46.5591 -256.076 46.1791C-256.246 46.1191 -256.406 46.0091 -256.606 45.9091C-254.986 44.6391 -253.116 44.909 -251.976 46.509C-250.916 47.999 -251.416 49.059 -254.046 50.829C-251.816 53.009 -251.476 54.309 -252.736 55.959C-253.866 57.439 -256.006 57.879 -257.606 56.889C-259.146 55.939 -259.726 54.639 -258.796 52.739L-258.806 52.729ZM-341.706 27.979C-340.676 22.979 -337.806 19.919 -332.916 18.759C-328.046 17.599 -323.946 19.0791 -320.406 22.4391C-316.406 15.2391 -313.846 14.2791 -310.086 18.7791C-310.866 18.7791 -311.456 18.7791 -312.036 18.7791C-315.416 18.7291 -317.446 20.609 -317.126 24.019C-316.646 29.019 -313.546 32.4691 -309.476 34.9691C-306.336 36.8991 -302.866 37.999 -299.156 36.389C-297.056 35.479 -295.796 33.919 -295.686 31.579C-295.576 29.239 -296.716 27.5391 -298.666 26.4091C-301.056 25.0291 -304.006 26.6791 -303.856 29.4291C-303.806 30.3791 -302.926 31.8891 -302.176 32.0591C-301.196 32.2791 -299.966 31.439 -298.546 30.949C-298.686 31.619 -298.616 32.8091 -299.156 33.5591C-300.246 35.0791 -301.966 34.819 -303.526 34.359C-305.786 33.689 -306.806 32.1791 -307.156 29.1291C-308.256 29.1991 -309.386 29.3491 -310.496 29.3191C-312.816 29.2491 -314.296 27.8891 -314.446 25.8191C-314.606 23.6491 -313.286 21.789 -311.226 21.269C-309.496 20.839 -308.696 21.4591 -308.476 23.3191C-309.316 23.1891 -310.346 22.7091 -310.966 23.0291C-311.646 23.3791 -312.336 24.4691 -312.306 25.2191C-312.286 25.9091 -311.346 27.1391 -310.786 27.1491C-309.356 27.1791 -307.646 27.049 -306.516 26.289C-304.186 24.709 -302.026 23.0991 -298.916 24.1491C-300.456 18.5991 -299.096 16.509 -294.226 17.109C-299.056 21.719 -295.836 25.6991 -293.446 29.5891C-291.166 25.6591 -287.836 21.6591 -292.816 16.9991C-287.726 16.7191 -286.586 18.4691 -287.996 24.1491C-285.006 23.1691 -282.816 24.5191 -280.616 26.2091C-279.656 26.949 -278.216 27.3291 -276.996 27.3391C-276.196 27.3391 -275.036 26.5491 -274.706 25.8191C-274.426 25.2091 -274.886 23.8691 -275.466 23.3991C-275.966 22.9891 -277.096 23.3191 -277.946 23.3391C-278.126 23.3391 -278.306 23.429 -278.626 23.519C-278.606 22.029 -278.006 21.2291 -276.606 21.1591C-274.706 21.0691 -272.786 22.8491 -272.486 24.9391C-272.196 26.9891 -273.486 28.9091 -275.576 29.2191C-276.906 29.4091 -278.286 29.259 -279.676 29.259C-280.626 33.289 -283.006 35.2791 -286.186 34.5691C-288.086 34.1491 -288.626 33.059 -288.186 30.609C-288.056 30.649 -287.876 30.649 -287.806 30.739C-286.866 31.969 -285.796 33.0391 -284.196 31.8791C-282.816 30.8791 -282.766 29.399 -283.466 27.979C-284.246 26.409 -285.496 25.5291 -287.356 26.0291C-289.336 26.5591 -291.086 28.609 -291.296 30.769C-291.506 32.979 -290.726 35.0191 -288.716 35.8391C-286.796 36.6091 -284.476 37.189 -282.496 36.859C-276.706 35.909 -272.866 32.1591 -270.496 26.9291C-269.956 25.7391 -269.746 24.2491 -269.876 22.9391C-270.156 20.1091 -271.876 18.779 -274.736 18.789C-275.366 18.789 -276.006 18.789 -276.656 18.789C-273.836 14.179 -270.786 15.249 -266.616 22.259C-258.946 15.069 -246.856 18.349 -245.206 28.479C-244.276 23.009 -241.406 19.929 -236.496 18.769C-231.636 17.619 -227.526 19.0791 -223.996 22.4591C-220.136 15.3391 -217.186 14.2491 -213.746 18.8391C-214.296 18.8391 -214.676 18.8591 -215.046 18.8391C-219.366 18.6191 -221.666 21.4191 -220.606 25.5991C-219.206 31.0891 -212.816 36.689 -207.146 37.039C-205.436 37.149 -203.536 36.669 -201.956 35.949C-199.876 34.989 -199.036 33.009 -199.326 30.699C-199.596 28.499 -200.816 26.7991 -202.916 26.2491C-203.956 25.9791 -205.686 26.339 -206.336 27.079C-207.086 27.939 -207.446 29.6491 -207.156 30.7791C-206.606 32.9391 -204.596 32.7991 -201.966 30.7191C-202.276 31.7691 -202.296 33.389 -202.966 33.729C-204.176 34.349 -205.876 34.5991 -207.196 34.2791C-209.636 33.6891 -210.756 31.739 -210.726 29.139C-211.946 29.209 -213.086 29.379 -214.206 29.329C-216.496 29.229 -217.976 27.799 -218.066 25.729C-218.156 23.579 -216.746 21.6591 -214.716 21.2791C-213.106 20.9791 -212.016 21.4391 -212.006 23.3791C-212.856 23.1991 -213.806 22.6891 -214.376 22.9691C-215.086 23.3191 -215.856 24.289 -215.906 25.039C-215.946 25.729 -215.086 27.0891 -214.606 27.0991C-213.106 27.1291 -211.316 27.069 -210.136 26.299C-207.796 24.759 -205.646 23.1091 -202.526 24.1791C-204.046 18.6091 -202.706 16.549 -197.796 17.109C-202.716 21.709 -199.416 25.709 -197.066 29.639C-194.846 25.729 -191.406 21.7591 -196.376 17.0991C-191.456 16.5691 -190.156 18.5591 -191.636 24.2091C-188.606 23.1391 -186.386 24.4691 -184.236 26.2491C-183.546 26.8191 -182.526 27.3091 -181.676 27.2791C-180.566 27.2391 -179.276 26.8791 -178.476 26.1791C-178.106 25.8491 -178.386 24.039 -178.936 23.579C-179.606 23.019 -180.876 23.159 -182.136 22.9591C-182.276 21.5891 -181.256 21.019 -179.626 21.239C-177.516 21.519 -175.936 23.599 -176.086 25.759C-176.226 27.839 -177.696 29.239 -179.986 29.329C-181.056 29.369 -182.126 29.2191 -183.206 29.1491C-184.316 33.3291 -186.646 35.259 -189.776 34.579C-191.666 34.169 -192.236 33.0691 -191.836 30.6191C-191.706 30.6491 -191.506 30.6191 -191.446 30.7091C-190.506 31.909 -189.486 33.0491 -187.846 31.9091C-186.436 30.9191 -186.396 29.439 -187.066 28.019C-187.806 26.429 -189.096 25.479 -190.926 26.039C-193.106 26.709 -194.466 28.2591 -194.836 30.5291C-195.206 32.8291 -194.446 34.949 -192.356 35.829C-190.456 36.629 -188.126 37.1891 -186.146 36.8691C-180.346 35.9391 -176.486 32.1891 -174.126 26.9691C-173.536 25.6691 -173.396 23.9991 -173.566 22.5591C-173.866 20.0591 -175.546 18.8491 -178.086 18.8091C-178.786 18.7991 -179.476 18.8091 -180.526 18.8091C-179.276 17.1791 -178.006 15.9591 -176.146 16.1291C-172.566 16.4691 -171.706 19.6191 -170.256 22.4991C-166.686 19.2091 -162.636 17.6191 -157.796 18.7491C-152.806 19.9091 -149.876 22.9791 -148.886 28.1291C-147.896 23.1091 -145.076 19.9891 -140.126 18.8191C-135.256 17.6691 -131.166 19.089 -127.626 22.449C-123.326 15.229 -121.026 14.3691 -117.246 18.8391C-117.966 18.8391 -118.476 18.8491 -118.986 18.8391C-122.856 18.7291 -125.016 21.2691 -124.296 25.1191C-123.206 30.9991 -115.946 37.189 -109.956 37.109C-108.376 37.089 -106.666 36.539 -105.256 35.789C-103.396 34.799 -102.626 32.9291 -102.886 30.8091C-103.166 28.5391 -104.416 26.759 -106.616 26.229C-107.646 25.979 -109.366 26.4191 -109.996 27.1891C-110.716 28.0691 -110.956 29.7491 -110.706 30.9291C-110.366 32.5091 -108.486 32.819 -107.206 31.759C-106.786 31.409 -106.446 30.9591 -106.016 30.4991C-105.496 33.1391 -106.116 34.2891 -108.156 34.6491C-111.336 35.2191 -113.816 33.1091 -114.416 29.2191C-115.586 29.2691 -116.786 29.429 -117.976 29.359C-120.206 29.229 -121.656 27.699 -121.706 25.609C-121.756 23.439 -120.066 21.409 -117.966 21.229C-116.396 21.089 -115.556 21.8191 -115.576 23.3091C-116.576 23.2091 -117.626 22.7791 -118.256 23.1191C-118.926 23.4891 -119.586 24.6091 -119.536 25.3491C-119.496 26.0391 -118.476 27.2491 -117.946 27.2191C-116.366 27.1291 -114.536 26.9291 -113.326 26.0591C-111.166 24.5091 -109.086 23.329 -106.806 24.009C-106.616 22.019 -106.896 19.9091 -106.086 18.3791C-105.526 17.3391 -103.426 17.119 -102.016 16.539C-101.906 16.719 -101.806 16.8891 -101.696 17.0691C-101.966 17.5391 -102.216 18.0191 -102.526 18.4691C-104.346 21.1391 -104.596 23.759 -102.526 26.479C-101.756 27.489 -101.296 28.729 -100.726 29.789C-98.5261 25.839 -95.0161 21.899 -99.8761 17.269C-95.2161 16.339 -93.6261 18.769 -95.3261 24.289C-92.0561 23.039 -89.8461 24.8091 -87.5161 26.4691C-86.6361 27.0991 -85.3461 27.4591 -84.2661 27.3991C-83.4362 27.3591 -82.2961 26.6491 -81.9561 25.9291C-81.6661 25.3191 -82.0761 23.969 -82.6461 23.479C-83.1361 23.049 -84.2761 23.349 -85.1261 23.359C-85.2961 23.359 -85.4662 23.4691 -85.7661 23.5591C-85.8461 21.8691 -85.0361 21.1791 -83.5661 21.2191C-81.5761 21.2691 -79.8261 23.129 -79.7061 25.229C-79.5761 27.369 -80.8661 29.0491 -83.0361 29.3091C-84.2961 29.4591 -85.5961 29.3391 -86.9061 29.3391C-87.7061 33.2591 -90.2461 35.3491 -93.4461 34.5991C-95.3261 34.1591 -95.9361 32.8691 -95.2861 30.5291C-94.9261 30.9291 -94.6261 31.3091 -94.2761 31.6191C-92.8461 32.8891 -90.8961 32.5191 -90.5761 30.6791C-90.3761 29.5091 -90.7461 27.839 -91.5261 27.009C-92.2061 26.289 -93.9061 26.039 -94.9761 26.289C-97.0461 26.789 -98.4661 29.099 -98.4861 31.259C-98.5061 33.689 -97.3561 35.449 -95.1461 36.359C-90.2961 38.359 -86.1061 36.5091 -82.5461 33.4691C-80.4761 31.6991 -78.7561 29.2191 -77.6161 26.7191C-75.4861 22.0691 -77.9861 18.7191 -83.0561 18.8691C-83.3161 18.8691 -83.5661 18.8691 -84.1961 18.8691C-82.8161 17.1391 -81.4861 15.8591 -79.5161 16.1491C-76.1061 16.6491 -75.2561 19.689 -73.8761 22.539C-70.2961 19.259 -66.2561 17.6291 -61.4161 18.7491C-56.4461 19.8991 -53.4461 22.9091 -52.5061 28.1291C-51.4761 23.0791 -48.6061 19.9291 -43.6261 18.7791C-38.8361 17.6691 -34.7861 19.0791 -31.1661 22.4991C-29.5862 19.8291 -28.8362 16.229 -25.0461 16.199C-23.6361 16.189 -22.2161 17.459 -20.8061 18.139C-20.8961 18.369 -20.9861 18.599 -21.0761 18.829C-21.6061 18.829 -22.1361 18.839 -22.6661 18.829C-26.3561 18.749 -28.4761 21.149 -27.9261 24.789C-26.9761 31.009 -19.2561 37.3991 -12.9961 37.1591C-9.71613 37.0291 -7.25613 35.2991 -6.56613 32.6191C-5.99612 30.4091 -6.96613 27.8891 -9.12613 26.6891C-9.99612 26.2091 -11.4661 25.759 -12.1061 26.169C-13.1861 26.859 -14.1862 28.1391 -14.5161 29.3691C-14.7162 30.1291 -13.7461 31.899 -13.0661 32.039C-11.9961 32.249 -10.7261 31.469 -9.53613 31.109C-9.02612 32.909 -9.56613 34.0991 -11.4461 34.5691C-14.6461 35.3691 -17.1761 33.2991 -18.0161 29.1891C-19.2261 29.2391 -20.4461 29.409 -21.6461 29.329C-23.8561 29.169 -25.2861 27.569 -25.2661 25.479C-25.2561 23.319 -23.4561 21.309 -21.4061 21.199C-19.9061 21.119 -19.1761 21.8891 -19.0561 23.5291C-19.8961 23.2691 -20.7961 22.679 -21.2561 22.919C-22.0461 23.329 -22.9861 24.219 -23.0661 24.989C-23.1361 25.689 -22.1361 27.1791 -21.6461 27.1491C-20.0061 27.0791 -18.0862 26.909 -16.8261 26.019C-14.6461 24.469 -12.5761 23.3291 -10.2661 24.0291C-10.1562 22.0991 -10.5661 19.999 -9.77612 18.549C-9.16614 17.429 -7.05612 17.1291 -5.61612 16.4591C-5.49612 16.6391 -5.37613 16.829 -5.26614 17.009C-5.39615 17.299 -5.48615 17.6291 -5.67615 17.8791C-7.96616 20.8891 -8.27612 23.8691 -5.74612 26.9591C-5.09613 27.7591 -4.79614 28.839 -4.32614 29.829C-2.07614 25.769 1.47385 21.869 -3.63614 17.139C-3.40613 16.959 -3.18616 16.7791 -2.95615 16.5991C-1.53613 17.1691 0.563873 17.349 1.14386 18.389C1.95386 19.849 1.64386 21.9391 1.83386 23.9591C4.34387 23.1491 6.69388 24.6891 8.99387 26.5291C9.58386 26.9991 10.4839 27.3991 11.1839 27.3191C12.3039 27.1891 13.5839 26.8791 14.3639 26.1591C14.7339 25.8191 14.4239 24.009 13.8639 23.549C13.1839 22.999 11.9139 23.1991 10.8139 23.0591C10.7539 21.6891 11.5639 20.919 13.2739 21.239C15.4039 21.639 16.8639 23.5991 16.7039 25.8491C16.5539 27.9291 15.0939 29.289 12.7739 29.359C11.7039 29.389 10.6339 29.2291 9.56387 29.1491C8.61386 33.2991 6.20389 35.3091 3.03387 34.5891C1.12387 34.1591 0.503845 32.909 1.10385 30.449C1.51385 30.899 1.82385 31.329 2.21387 31.669C3.57385 32.859 5.43387 32.549 5.81387 30.799C6.06387 29.639 5.75385 27.969 5.01385 27.109C4.36386 26.359 2.68387 26.009 1.61386 26.239C-0.486145 26.689 -1.96613 28.9591 -2.06613 31.0991C-2.17612 33.4391 -0.956116 35.4691 1.34387 36.3791C6.29388 38.3491 10.4239 36.339 14.1139 33.299C15.6938 31.999 16.9138 30.1791 18.0439 28.4291C19.5638 26.0691 20.1239 23.459 18.6639 20.829C17.3139 18.399 14.9039 18.8091 12.4639 18.9091C13.4039 17.1391 14.7739 16.0291 16.5739 16.1491C20.2939 16.3991 21.1439 19.6691 22.5539 22.4591C23.2739 21.909 23.9339 21.3791 24.6239 20.8791C29.1539 17.6091 35.5339 17.6591 39.8339 20.8791C42.2539 22.6991 43.0639 25.379 43.9939 28.019V32.359C42.9439 35.939 40.8239 38.559 37.0239 39.789C40.8339 41.059 42.9139 43.6291 43.9939 47.1191V51.459C43.1039 54.119 42.3339 56.819 39.9138 58.6491C35.6039 61.9191 29.2838 62.019 24.7339 58.789C23.9939 58.269 23.2838 57.7091 22.4539 57.0891C21.4738 59.9191 20.1139 62.249 17.5239 63.609H15.7839C14.6039 62.749 13.4239 61.899 12.2439 61.039C13.0739 60.679 13.6439 60.7291 14.2139 60.7491C17.5139 60.8791 19.4239 59.1291 19.4039 55.8191C19.4039 54.6891 19.1839 53.4691 18.6939 52.4691C16.3839 47.7091 12.9138 44.2291 7.64386 42.8091C5.23386 42.1591 2.90387 42.2591 0.713867 43.4991C-1.29614 44.6391 -2.27615 46.419 -2.04614 48.729C-1.81613 51.029 -0.486145 52.599 1.61386 53.449C3.24387 54.109 4.94388 53.329 5.75388 51.639C6.49387 50.099 6.42389 48.5891 4.91388 47.5991C3.26389 46.5091 2.26389 47.729 1.34387 48.9291C1.30386 48.979 1.13385 48.9191 1.02386 48.9091C0.573853 46.6891 1.16385 45.4491 2.89386 44.9991C6.03387 44.1891 8.46387 46.1791 9.58386 50.4091C10.8239 50.3491 12.0539 50.149 13.2539 50.259C15.3839 50.459 16.6839 51.959 16.7139 54.009C16.7439 56.179 15.2739 58.0491 13.2239 58.3391C11.5439 58.5791 10.6238 57.879 10.6039 55.959C10.9038 56.079 11.0639 56.1891 11.2239 56.1891C12.0739 56.2291 13.2039 56.5891 13.7139 56.1891C14.2939 55.7391 14.7539 54.3991 14.4939 53.7791C14.1839 53.0591 13.0739 52.349 12.2439 52.259C11.2439 52.149 10.0038 52.4291 9.17386 52.9991C6.74387 54.6391 4.49387 56.5991 1.04385 55.4091C3.00385 60.6591 1.48386 62.9591 -3.50613 62.4991C1.32385 57.7991 -1.88614 53.8291 -4.31613 49.9091C-4.92612 51.0391 -5.45615 52.329 -6.25613 53.419C-8.03613 55.859 -7.88611 58.2391 -6.36612 60.6891C-5.99612 61.2891 -5.61612 61.889 -5.21613 62.539C-9.91614 62.919 -11.0262 61.229 -9.79614 55.489C-12.6461 56.289 -14.7762 55.0691 -16.9861 53.4691C-18.1461 52.6291 -19.9261 52.369 -21.4261 52.389C-22.0361 52.389 -23.1561 53.8691 -23.0861 54.5891C-23.0061 55.3691 -21.9161 56.1991 -21.0761 56.6791C-20.6961 56.8991 -19.8561 56.3091 -19.0761 56.0291C-19.2261 58.1191 -20.3261 58.659 -22.0261 58.289C-23.9161 57.879 -25.3861 55.8591 -25.2861 53.9391C-25.1861 51.9891 -23.7561 50.439 -21.6661 50.259C-20.4661 50.159 -19.2361 50.359 -18.0261 50.419C-17.1861 46.319 -14.7161 44.2591 -11.4961 44.9991C-9.65613 45.4191 -9.06613 46.6591 -9.63614 48.9391C-11.8561 46.7891 -13.7361 46.669 -14.3061 48.789C-14.6061 49.909 -14.2661 51.629 -13.5261 52.489C-12.8761 53.239 -11.1461 53.6491 -10.1161 53.3691C-7.93613 52.7791 -6.67615 50.9791 -6.44614 48.7191C-6.21613 46.5191 -7.10611 44.6191 -9.08612 43.6591C-10.5361 42.9591 -12.2561 42.429 -13.8361 42.479C-19.8761 42.669 -26.5562 48.4691 -27.8261 54.3491C-28.6761 58.3091 -26.5061 60.9291 -22.5061 60.7491C-22.0361 60.7291 -21.5661 60.689 -21.0861 60.669C-21.0061 60.819 -20.9261 60.9691 -20.8461 61.1191C-21.9461 61.9591 -23.0461 62.7891 -24.1361 63.6291H-26.3061C-28.0161 61.6091 -29.7261 59.579 -31.5161 57.459C-34.7462 60.529 -38.8762 61.9491 -43.7061 60.8091C-48.6361 59.6491 -51.5461 56.4991 -52.4761 51.4091C-53.4061 56.6291 -56.3961 59.6891 -61.3361 60.8391C-66.1561 61.9591 -70.2761 60.479 -73.3161 57.539C-75.2461 59.679 -77.0261 61.6491 -78.8161 63.6291H-80.9861C-82.0061 62.7591 -83.0361 61.899 -84.4861 60.669C-77.8561 60.969 -75.3161 57.5291 -77.7861 52.3391C-80.2861 47.0991 -84.2861 43.409 -90.2161 42.639C-92.0761 42.399 -94.2261 43.009 -95.9961 43.789C-98.0561 44.699 -98.8761 47.1191 -98.3661 49.3491C-97.8861 51.4891 -96.5361 52.9891 -94.4361 53.5691C-92.6261 54.0691 -91.3361 53.109 -90.6061 51.509C-89.9361 50.059 -90.0661 48.589 -91.4761 47.639C-93.1261 46.529 -94.1261 47.7291 -95.0761 48.8991C-95.1261 48.9591 -95.3261 48.8991 -95.5561 48.8791C-95.8861 47.0391 -95.5361 45.559 -93.4861 45.019C-90.3861 44.209 -88.0361 46.1591 -86.7961 50.4391C-85.6261 50.3691 -84.4761 50.1591 -83.3361 50.2491C-81.1861 50.4091 -79.7961 51.8591 -79.6961 53.8391C-79.5862 55.9791 -81.0161 57.8991 -83.0261 58.3191C-84.7961 58.6891 -85.5661 58.019 -85.6061 56.479C-84.5562 56.379 -83.2861 56.6091 -82.6061 56.0891C-82.0361 55.6491 -81.6761 53.8291 -82.0361 53.4991C-82.8061 52.7791 -84.0761 52.439 -85.1961 52.299C-85.8961 52.209 -86.7961 52.5991 -87.3961 53.0591C-89.7061 54.8291 -92.0061 56.5191 -95.3261 55.4391C-93.4661 60.7491 -94.8561 62.8591 -100.016 62.5591C-95.0061 57.8491 -98.4361 53.819 -100.706 49.859C-101.296 50.939 -101.826 52.2291 -102.616 53.3091C-104.456 55.8091 -104.356 58.249 -102.746 60.759C-102.376 61.339 -102.026 61.9291 -101.616 62.5991C-106.526 62.7491 -107.656 61.0091 -106.136 55.4391C-109.256 56.4791 -111.406 54.829 -113.726 53.259C-114.856 52.499 -116.576 52.3191 -118.006 52.3791C-119.316 52.4391 -119.926 53.6391 -119.516 54.9691C-119.106 56.2791 -118.256 57.1091 -116.736 56.5591C-116.386 56.4291 -116.076 56.189 -115.536 55.889C-115.616 58.029 -116.636 58.5991 -118.266 58.3191C-120.256 57.9791 -121.786 55.9691 -121.696 53.8991C-121.606 51.9191 -120.216 50.409 -118.096 50.239C-116.906 50.139 -115.686 50.3391 -114.486 50.4091C-113.696 46.3591 -111.126 44.239 -107.916 44.979C-106.086 45.399 -105.506 46.639 -106.076 49.049C-106.506 48.599 -106.846 48.149 -107.276 47.799C-108.566 46.759 -110.436 47.119 -110.746 48.709C-110.976 49.899 -110.636 51.419 -110.016 52.489C-109.266 53.779 -107.776 53.9891 -106.356 53.3491C-104.266 52.4091 -103.016 50.7691 -102.876 48.4991C-102.736 46.2991 -103.686 44.469 -105.686 43.519C-106.956 42.909 -108.426 42.4691 -109.816 42.4391C-115.796 42.3091 -123.276 48.619 -124.336 54.509C-125.036 58.439 -122.776 60.9491 -118.756 60.7191C-118.316 60.6891 -117.876 60.7191 -116.786 60.7191C-118.376 61.9591 -119.446 62.779 -120.506 63.609H-122.676C-124.426 61.599 -126.176 59.5891 -127.916 57.5991C-134.796 64.2791 -147.206 61.6591 -148.936 51.4991C-150.616 61.5591 -162.926 64.3691 -169.916 57.6191C-171.666 59.6091 -173.426 61.609 -175.186 63.609H-177.356C-178.426 62.739 -179.496 61.869 -180.896 60.739C-174.176 60.829 -171.686 57.379 -174.336 52.079C-176.846 47.049 -180.736 43.4391 -186.496 42.6491C-188.306 42.3991 -190.376 42.8791 -192.116 43.5691C-194.146 44.3691 -195.066 46.299 -194.926 48.519C-194.786 50.819 -193.536 52.4391 -191.466 53.3791C-189.796 54.1291 -188.126 53.519 -187.236 51.859C-186.456 50.389 -186.366 48.8591 -187.786 47.7491C-189.486 46.4291 -190.536 47.7791 -191.566 48.9291C-191.616 48.9891 -191.816 48.9191 -191.976 48.8991C-192.326 47.0491 -191.986 45.399 -189.896 45.079C-188.696 44.889 -187.026 44.989 -186.206 45.699C-184.796 46.909 -183.886 48.6891 -182.646 50.4091C-182.156 50.3691 -181.156 50.1891 -180.156 50.2191C-177.846 50.2891 -176.386 51.609 -176.156 53.699C-175.936 55.669 -177.196 57.599 -179.126 58.239C-180.926 58.829 -181.916 58.1391 -182.006 56.5891C-180.946 56.4391 -179.676 56.6191 -178.996 56.0591C-178.436 55.5991 -178.136 53.779 -178.506 53.449C-179.296 52.749 -180.596 52.379 -181.706 52.329C-182.556 52.289 -183.586 52.7591 -184.266 53.3191C-186.406 55.1091 -188.646 56.359 -191.616 55.509C-190.276 61.129 -191.566 63.059 -196.426 62.459C-191.386 57.799 -195.006 53.8391 -197.166 49.8191C-197.746 50.9091 -198.216 52.159 -198.986 53.169C-200.966 55.799 -200.816 58.359 -199.076 60.989C-198.746 61.489 -198.446 62.0091 -198.076 62.6191C-203.046 62.6991 -204.176 60.9291 -202.576 55.4291C-205.706 56.479 -207.856 54.849 -210.186 53.289C-211.316 52.529 -213.036 52.369 -214.466 52.4291C-215.036 52.4491 -216.006 53.839 -215.956 54.549C-215.906 55.309 -214.996 56.2191 -214.226 56.6491C-213.766 56.909 -212.866 56.3591 -212.086 56.1491C-212.036 58.1091 -213.156 58.5791 -214.746 58.3191C-216.756 57.9991 -218.246 56.0191 -218.156 53.9091C-218.076 51.9191 -216.686 50.419 -214.566 50.259C-213.376 50.169 -212.156 50.369 -210.956 50.4291C-210.176 46.3791 -207.616 44.2691 -204.396 44.9991C-202.546 45.4191 -201.936 46.709 -202.536 49.079C-202.966 48.629 -203.306 48.1891 -203.726 47.8491C-205.016 46.8091 -206.876 47.139 -207.196 48.729C-207.436 49.909 -207.096 51.429 -206.496 52.509C-205.756 53.819 -204.256 54.0391 -202.846 53.3991C-200.866 52.5091 -199.606 50.9991 -199.386 48.7791C-199.166 46.5591 -199.986 44.6791 -201.956 43.6791C-203.326 42.9791 -204.966 42.479 -206.486 42.479C-212.386 42.459 -219.596 48.549 -220.746 54.299C-221.566 58.369 -219.336 60.9791 -215.236 60.7491C-214.796 60.7191 -214.346 60.7491 -213.326 60.7491C-214.806 61.9491 -215.846 62.7891 -216.876 63.6291H-219.046C-220.816 61.6491 -222.596 59.659 -224.366 57.6791C-231.776 64.799 -243.996 60.9391 -245.406 51.4391C-246.306 56.4791 -249.176 59.629 -254.136 60.789C-258.996 61.919 -263.186 60.539 -266.286 57.489C-268.186 59.699 -269.876 61.6591 -271.576 63.6191H-273.746C-274.836 62.7791 -275.916 61.9291 -277.356 60.8091C-270.406 60.5991 -268.116 57.0491 -271.006 51.6891C-273.606 46.8691 -277.396 43.3791 -282.986 42.6491C-284.856 42.4091 -286.996 42.9391 -288.786 43.6791C-290.806 44.5191 -291.646 46.5191 -291.416 48.7191C-291.176 50.9791 -289.876 52.5991 -287.756 53.4391C-286.096 54.0991 -284.436 53.3491 -283.616 51.6491C-282.916 50.2091 -282.926 48.759 -284.256 47.729C-285.946 46.409 -287.016 47.719 -288.046 48.889C-288.096 48.939 -288.286 48.8691 -288.436 48.8491C-288.786 46.9991 -288.476 45.349 -286.356 45.049C-285.156 44.879 -283.486 44.9791 -282.666 45.6891C-281.276 46.8991 -280.386 48.679 -279.166 50.389C-278.606 50.349 -277.526 50.159 -276.466 50.209C-274.216 50.319 -272.716 51.769 -272.586 53.829C-272.456 55.779 -273.856 57.7391 -275.746 58.2491C-277.566 58.7391 -278.446 58.0691 -278.546 56.5991C-277.416 56.3891 -276.176 56.4691 -275.376 55.9091C-274.866 55.5491 -274.606 53.769 -274.946 53.489C-275.776 52.799 -276.996 52.4591 -278.116 52.2791C-278.746 52.1791 -279.576 52.519 -280.136 52.919C-282.526 54.609 -284.786 56.5791 -288.216 55.4291C-286.476 60.8091 -287.966 63.019 -292.506 62.489C-290.673 58.9624 -291.036 54.7724 -293.596 49.919C-295.996 53.869 -299.156 57.869 -294.586 62.789C-296.386 62.439 -298.496 62.1991 -299.086 61.1191C-299.886 59.6691 -299.516 57.5691 -299.656 55.6191C-302.006 56.2691 -304.146 55.069 -306.346 53.459C-307.496 52.6091 -309.276 52.419 -310.796 52.359C-311.356 52.339 -312.426 53.5391 -312.426 54.1791C-312.426 54.9991 -311.746 56.109 -311.026 56.539C-310.476 56.869 -309.416 56.319 -308.516 56.1491C-308.536 58.1691 -309.716 58.619 -311.396 58.269C-313.406 57.849 -314.756 55.8691 -314.596 53.7191C-314.446 51.7391 -313.036 50.3391 -310.866 50.2191C-309.686 50.1591 -308.496 50.349 -307.226 50.4291C-307.306 47.739 -306.126 45.839 -303.686 45.269C-302.366 44.959 -300.676 45.2391 -299.476 45.8691C-298.816 46.2191 -298.816 47.8391 -298.536 48.8491C-299.996 48.1791 -301.026 47.399 -302.086 47.359C-302.676 47.339 -303.826 48.529 -303.836 49.1791C-303.856 50.3591 -303.516 51.8591 -302.746 52.6291C-302.056 53.3091 -300.446 53.6291 -299.466 53.3391C-297.406 52.7391 -296.146 51.0691 -295.866 48.8791C-295.576 46.6691 -296.366 44.749 -298.316 43.729C-299.736 42.989 -301.456 42.4491 -303.036 42.4591C-308.846 42.4791 -315.776 48.2491 -317.136 53.9291C-318.176 58.299 -315.906 60.9791 -311.416 60.6891C-311.096 60.6691 -310.776 60.6891 -309.836 60.6891C-311.276 61.9091 -312.276 62.7591 -313.276 63.5991H-315.446C-317.266 61.5991 -319.086 59.5991 -320.906 57.5991C-327.846 64.3091 -340.186 61.5191 -341.896 51.4691C-342.156 50.2991 -341.846 47.229 -341.846 47.229C-341.006 43.309 -338.516 41.2091 -334.516 39.7791C-338.586 38.3891 -341.016 36.199 -341.876 32.389C-341.876 32.389 -342.096 28.939 -341.876 28.019L-341.706 27.979ZM-44.9461 39.7191C-49.1761 38.4491 -51.4961 36.0591 -52.4661 32.3391C-53.2261 36.2991 -55.8461 38.3591 -59.7261 39.8091C-55.6661 41.1291 -53.2862 43.3591 -52.3961 47.1491C-51.5362 43.3291 -49.0761 41.1291 -44.9461 39.7191ZM-156.246 39.759C-152.076 41.139 -149.676 43.3991 -148.836 47.2491C-148.036 43.3691 -145.536 41.109 -141.416 39.759C-145.626 38.349 -148.006 36.069 -148.846 32.259C-149.666 36.119 -152.096 38.379 -156.246 39.769V39.759ZM-237.846 39.759C-241.956 38.419 -244.436 36.1891 -245.266 32.3191C-246.136 36.1891 -248.616 38.3991 -252.696 39.7791C-248.546 41.1191 -246.146 43.3891 -245.266 47.2091C-244.426 43.3691 -242.006 41.149 -237.856 39.759H-237.846Z" fill="#7CB0FA"/>
</svg>
