<svg width="386" height="48" viewBox="0 0 386 48" fill="none" xmlns="http://www.w3.org/2000/svg">
<path d="M179.854 22.259C179.164 21.269 178.594 20.519 178.104 19.729C175.984 16.309 176.804 13.8891 180.534 12.3791C181.334 12.0591 182.214 11.7991 182.874 11.2791C183.434 10.8391 183.934 10.109 184.074 9.41904C184.134 9.10904 183.264 8.28905 182.794 8.26905C182.104 8.23905 181.274 8.57905 180.714 9.01905C180.234 9.39905 180.044 10.149 179.634 10.889C178.674 8.81904 179.314 7.45906 180.994 6.52906C182.604 5.63906 184.814 6.22906 185.824 7.71906C186.944 9.36906 186.524 10.7191 184.314 12.6291C187.024 14.4891 187.504 15.4591 186.484 16.9691C185.394 18.5591 183.544 18.8591 181.724 17.5891C182.134 17.4391 182.534 17.409 182.744 17.199C183.324 16.589 183.834 15.9091 184.364 15.2491C183.534 14.8591 182.674 14.0891 181.864 14.1491C179.504 14.2991 178.304 16.919 179.314 19.269C180.884 22.899 185.724 23.539 188.524 20.479C191.794 16.899 191.794 10.5691 188.524 7.15906C185.174 3.66906 179.384 3.43906 175.624 6.93906C172.834 9.54906 170.294 12.439 167.784 15.329C165.084 18.429 162.084 21.139 158.184 22.549C156.404 23.189 154.374 23.6391 152.524 23.4591C148.714 23.0891 146.074 20.909 144.994 16.769C144.754 17.379 144.644 17.6391 144.544 17.8991C142.864 22.1391 138.954 24.249 134.494 23.359C128.914 22.249 125.034 18.6891 121.474 14.5591C119.074 11.7691 116.604 8.99905 113.844 6.57905C110.064 3.26905 104.074 3.88907 101.004 7.56907C97.8939 11.2991 98.3439 17.829 101.934 21.019C104.744 23.519 109.234 22.5591 110.654 19.1591C111.664 16.7291 110.194 14.049 107.744 14.109C106.994 14.129 106.264 14.9091 105.524 15.3391C106.024 15.9491 106.484 16.5991 107.034 17.1591C107.284 17.4091 107.734 17.4591 108.224 17.6591C106.244 18.8591 104.354 18.5591 103.394 16.8991C101.984 14.4491 104.214 13.709 105.624 12.639C103.434 10.829 102.994 9.47906 104.014 7.84906C105.014 6.23906 107.314 5.58907 108.974 6.56907C110.614 7.52907 111.244 8.89906 110.264 10.8791C109.844 10.1391 109.634 9.34904 109.114 8.94904C108.554 8.51904 107.714 8.27904 106.994 8.28904C106.574 8.28904 105.774 9.04907 105.834 9.31907C105.984 10.0091 106.384 10.8091 106.944 11.2091C107.814 11.819 108.894 12.1291 109.884 12.5591C112.844 13.8591 113.694 16.2491 112.154 19.0891C111.574 20.1591 110.844 21.1391 110.144 22.2191C116.664 21.5191 118.114 19.8691 117.434 14.8391C118.334 15.9191 119.484 17.1491 119.474 18.3691C119.474 19.6891 118.374 20.9991 117.904 21.9991C120.944 22.4191 124.024 22.839 127.094 23.259V24.259C123.954 24.689 120.814 25.109 117.824 25.519C120.244 30.109 120.204 30.679 117.134 32.579C117.754 27.319 116.034 25.489 110.174 25.389C110.744 26.229 111.294 26.959 111.774 27.729C113.904 31.159 113.114 33.6091 109.414 35.1191C108.544 35.4691 107.644 35.799 106.864 36.299C105.994 36.859 105.034 37.8091 106.174 38.6891C106.784 39.1591 108.154 38.9691 109.014 38.6491C109.564 38.4491 109.814 37.4491 110.254 36.709C110.984 38.889 110.534 40.1691 108.864 40.9991C107.264 41.7991 105.254 41.329 104.184 39.919C102.974 38.319 103.344 36.9191 105.224 35.1191C104.444 33.9291 103.244 32.8591 103.134 31.6791C103.064 30.9191 104.434 29.739 105.414 29.239C106.104 28.889 107.214 29.3591 108.134 29.4591C108.104 29.6491 108.084 29.849 108.054 30.039C107.774 30.109 107.394 30.079 107.234 30.259C106.644 30.919 106.114 31.649 105.574 32.359C106.434 32.699 107.324 33.4091 108.134 33.3191C110.434 33.0691 111.554 30.629 110.624 28.329C109.094 24.559 104.164 23.889 101.314 27.079C98.0739 30.709 98.1339 36.999 101.434 40.389C104.884 43.919 110.474 44.089 114.324 40.509C116.964 38.059 119.164 35.139 121.794 32.669C124.504 30.119 127.224 27.379 130.424 25.579C136.774 22.029 141.844 23.929 144.964 30.359C147.624 24.329 152.374 22.449 158.534 25.039C162.204 26.589 165.114 29.1391 167.724 32.1191C170.394 35.1591 173.074 38.219 176.064 40.919C179.764 44.259 185.794 43.6091 188.884 39.8991C192.044 36.0991 191.504 29.3891 187.774 26.3091C185.034 24.0491 180.764 24.9791 179.334 28.1491C178.394 30.2391 179.174 32.5491 181.144 33.2191C182.354 33.6291 183.744 33.8491 184.264 32.3091C184.744 30.8691 183.464 30.5291 182.414 30.1891C182.204 30.1191 181.994 30.0291 181.654 29.8991C183.544 28.6391 185.504 28.9291 186.484 30.5691C187.924 32.9891 185.754 33.7691 184.314 34.8191C186.554 36.8191 186.934 38.1791 185.774 39.8191C184.704 41.3391 182.584 41.8391 180.934 40.959C179.304 40.0891 178.884 38.6991 179.704 36.7191C180.034 37.3391 180.194 38.089 180.654 38.419C181.294 38.869 182.144 39.169 182.924 39.209C183.314 39.229 184.134 38.429 184.064 38.169C183.894 37.479 183.484 36.699 182.914 36.289C182.114 35.709 181.114 35.399 180.174 35.009C176.954 33.659 176.104 31.2591 177.814 28.2091C178.324 27.2991 178.924 26.4491 179.554 25.4691C173.924 25.3891 172.014 27.4491 172.834 33.2191C171.784 31.8991 170.494 30.999 170.534 30.169C170.614 28.449 171.404 26.7591 171.774 25.4991C169.014 25.1191 165.904 24.6791 162.794 24.2491C162.794 23.9091 162.794 23.5791 162.794 23.239C165.924 22.8291 169.044 22.409 172.104 22.009C169.554 17.909 169.644 16.7991 172.774 14.9291C172.004 20.1291 173.324 21.549 179.834 22.259H179.854ZM337.514 29.889C338.944 28.329 340.184 26.3991 341.924 25.2191C344.684 23.3391 347.854 23.6891 350.884 24.8491C354.904 26.3991 358.004 29.1491 360.804 32.3491C363.414 35.3291 366.054 38.349 369.004 40.979C372.734 44.309 378.754 43.609 381.804 39.859C384.944 35.999 384.354 29.309 380.614 26.289C377.574 23.829 372.784 25.3391 371.904 29.0291C371.424 31.0491 372.504 33.069 374.484 33.289C375.354 33.389 376.314 32.6591 377.234 32.3091C376.664 31.6191 376.114 30.8991 375.494 30.2491C375.314 30.0591 374.954 30.0491 374.524 29.9091C376.404 28.6491 378.294 28.969 379.374 30.549C380.414 32.059 379.894 33.069 377.204 34.829C379.374 36.799 379.774 38.129 378.684 39.759C377.624 41.349 375.354 41.8591 373.684 40.8791C372.144 39.9791 371.814 38.829 372.624 36.829C372.924 37.389 373.074 38.049 373.484 38.329C374.144 38.779 374.954 39.1791 375.724 39.209C376.144 39.229 377.004 38.329 376.934 38.019C376.784 37.339 376.274 36.589 375.694 36.199C374.804 35.609 373.724 35.3191 372.744 34.8691C370.004 33.6291 369.154 31.329 370.514 28.639C371.084 27.519 371.844 26.4991 372.524 25.4391C372.434 25.2691 372.344 25.0991 372.254 24.9291C370.404 25.6291 368.114 25.8791 366.824 27.1491C365.654 28.2991 365.564 30.5591 364.974 32.3991C364.534 31.7991 363.284 30.8491 363.344 29.9991C363.474 28.3291 364.334 26.7191 364.744 25.4991C361.924 25.1091 358.794 24.6791 355.664 24.2491C355.664 23.9191 355.664 23.5891 355.664 23.2491C358.794 22.8291 361.914 22.4091 364.954 21.9991C362.434 17.6691 362.484 16.9191 365.594 14.9591C365.164 20.3391 366.554 21.7891 372.644 22.1791C372.034 21.2791 371.434 20.479 370.924 19.639C368.914 16.339 369.754 13.8591 373.324 12.3991C374.194 12.0491 375.134 11.759 375.854 11.199C376.394 10.769 376.784 9.97904 376.914 9.28904C376.964 9.01904 376.164 8.26905 375.754 8.26905C375.044 8.26905 374.234 8.53905 373.644 8.95905C373.144 9.30905 372.914 10.019 372.434 10.759C371.924 8.28904 372.434 7.08904 374.124 6.38904C375.764 5.70904 377.784 6.30905 378.724 7.76905C379.774 9.38905 379.354 10.7391 377.204 12.6591C379.934 14.4491 380.434 15.4391 379.364 16.9591C378.234 18.5691 376.404 18.8591 374.674 17.5991C374.984 17.4591 375.274 17.409 375.444 17.239C376.074 16.5991 376.664 15.909 377.264 15.239C376.284 14.879 375.234 14.089 374.334 14.239C372.054 14.609 371.154 17.379 372.354 19.639C374.224 23.129 378.994 23.409 381.654 20.169C384.734 16.429 384.554 10.2891 381.264 7.02906C377.794 3.59906 372.154 3.46904 368.364 7.03904C365.584 9.65904 363.064 12.5591 360.544 15.4391C357.884 18.4791 354.934 21.149 351.104 22.509C349.264 23.159 347.164 23.5691 345.244 23.3991C341.464 23.0691 338.954 20.7991 337.864 16.8391C335.484 22.8191 331.054 24.8491 325.244 22.8191C320.944 21.3191 317.694 18.419 314.754 15.039C312.194 12.099 309.594 9.15906 306.704 6.55906C303.004 3.23906 296.954 3.87905 293.874 7.57905C290.704 11.399 291.244 18.0691 294.984 21.1591C297.604 23.3291 301.594 22.6291 303.244 19.7191C304.694 17.1491 303.294 14.0691 300.564 14.0891C299.854 14.0891 299.144 14.7791 298.424 15.1591C298.854 15.8091 299.224 16.5091 299.734 17.0891C300.014 17.3991 300.534 17.4791 301.084 17.7191C299.034 18.8391 297.144 18.4891 296.214 16.8491C294.824 14.3691 297.144 13.7091 298.514 12.6191C296.174 10.7491 295.774 9.39904 296.984 7.66904C298.034 6.16904 300.184 5.66906 301.824 6.52906C303.464 7.38906 303.874 8.77906 303.004 10.7191C302.684 10.1191 302.534 9.36905 302.074 9.04905C301.434 8.60905 300.574 8.32905 299.794 8.29905C299.414 8.28905 298.624 9.09905 298.694 9.36905C298.874 10.0591 299.284 10.859 299.854 11.239C300.794 11.869 301.944 12.1891 302.994 12.6791C305.644 13.9091 306.484 16.1491 305.184 18.7491C304.594 19.9291 303.784 20.999 303.014 22.229C309.374 21.529 310.484 20.3391 310.054 14.9691C313.114 16.9191 313.164 17.659 310.684 21.989C313.734 22.4191 316.894 22.859 320.054 23.299C320.034 23.629 320.024 23.959 320.004 24.289C316.844 24.699 313.684 25.109 310.644 25.509C313.144 29.749 313.064 30.9391 309.964 32.4991C310.704 27.4791 308.124 24.849 303.144 25.609C303.654 26.329 304.174 27.0091 304.624 27.739C306.744 31.139 305.934 33.6391 302.264 35.1291C301.394 35.4791 300.504 35.8191 299.724 36.3191C298.824 36.8891 297.944 37.8591 299.054 38.709C299.654 39.169 301.014 38.9491 301.894 38.6291C302.424 38.4391 302.684 37.4891 303.184 36.6791C303.954 38.759 303.384 40.0791 301.784 40.9691C300.234 41.8291 298.124 41.4191 297.114 39.9691C296.684 39.3491 296.214 38.389 296.404 37.799C296.784 36.669 297.624 35.6991 298.044 35.0291C297.264 33.9191 296.044 32.9091 295.954 31.8091C295.894 30.9991 297.184 29.819 298.144 29.299C298.844 28.919 299.984 29.3391 300.924 29.3991C300.904 29.5991 300.894 29.809 300.874 30.009C300.614 30.089 300.254 30.089 300.094 30.269C299.494 30.929 298.964 31.659 298.404 32.359C299.334 32.699 300.324 33.429 301.174 33.289C303.664 32.879 304.574 29.919 303.104 27.579C301.064 24.329 296.634 24.1691 294.034 27.2491C290.854 31.0191 291.044 37.259 294.434 40.549C297.994 43.999 303.484 44.049 307.334 40.389C310.004 37.859 312.444 35.079 314.854 32.299C317.944 28.729 321.424 25.759 326.034 24.419C331.384 22.859 335.824 25.129 337.484 29.889H337.514ZM204.714 29.9691C204.214 30.1091 203.834 30.089 203.674 30.269C203.084 30.939 202.574 31.6691 202.024 32.3791C202.954 32.6991 203.944 33.419 204.794 33.269C207.204 32.859 208.124 30.049 206.784 27.729C204.834 24.339 200.264 24.119 197.614 27.269C194.504 30.969 194.644 37.1191 197.914 40.4091C201.394 43.9191 206.954 44.089 210.804 40.489C213.544 37.929 215.804 34.8691 218.554 32.3191C221.274 29.7891 224.064 27.1191 227.304 25.3991C233.484 22.1091 238.504 24.109 241.464 30.479C242.714 26.269 245.544 24.0491 249.754 24.0291C251.644 24.0191 253.634 24.549 255.394 25.269C259.224 26.839 262.084 29.699 264.764 32.799C267.214 35.639 269.734 38.4591 272.534 40.9391C276.264 44.2391 282.314 43.5791 285.354 39.8791C288.504 36.0391 287.944 29.359 284.204 26.299C281.324 23.939 276.774 25.1391 275.604 28.5591C274.924 30.5291 275.764 32.5891 277.594 33.2191C278.824 33.6491 280.254 33.799 280.654 32.289C280.794 31.789 279.524 30.889 278.864 30.199C278.724 30.049 278.444 30.039 278.104 29.919C279.934 28.619 281.804 28.919 282.914 30.519C283.944 32.0191 283.444 33.049 280.784 34.829C282.924 36.809 283.324 38.189 282.244 39.769C281.204 41.289 279.044 41.869 277.424 40.959C275.754 40.0191 275.114 38.6591 276.044 36.6291C276.464 37.3691 276.684 38.149 277.194 38.539C277.754 38.969 278.594 39.219 279.314 39.209C279.734 39.209 280.544 38.4491 280.484 38.1891C280.334 37.4991 279.944 36.689 279.384 36.289C278.524 35.679 277.444 35.3591 276.444 34.9291C273.464 33.6291 272.604 31.289 274.144 28.419C274.704 27.379 275.424 26.4291 276.064 25.4291C275.944 25.2191 275.814 25.009 275.694 24.799C273.714 25.689 271.364 26.1891 269.874 27.5991C268.864 28.5591 269.074 30.789 268.634 32.949C267.954 31.549 266.834 30.279 266.854 29.019C266.874 27.709 267.994 26.419 268.444 25.509C265.424 25.089 262.314 24.6491 259.204 24.2191C259.204 23.8891 259.204 23.5491 259.204 23.2191C262.334 22.8091 265.464 22.389 268.524 21.989C265.964 17.8491 266.054 16.709 269.164 14.979C268.054 20.279 270.354 21.5791 276.194 22.1891C275.584 21.2791 274.994 20.4791 274.474 19.6191C272.434 16.2691 273.234 13.8591 276.824 12.3791C277.694 12.0191 278.634 11.7491 279.364 11.1891C279.914 10.7591 280.324 9.98905 280.474 9.29905C280.534 9.02905 279.744 8.26904 279.334 8.25904C278.624 8.23904 277.774 8.47906 277.214 8.90906C276.694 9.30906 276.484 10.0991 276.044 10.8791C275.124 8.89906 275.664 7.51905 277.314 6.54905C278.904 5.61905 281.104 6.13904 282.164 7.60904C283.304 9.18904 282.914 10.5991 280.774 12.6791C283.414 14.3891 283.954 15.4991 282.854 16.9991C281.674 18.6091 279.844 18.849 278.214 17.509C278.604 17.379 279.034 17.3691 279.234 17.1491C279.794 16.5291 280.254 15.8291 280.754 15.1591C279.974 14.7891 279.194 14.0791 278.424 14.0991C276.124 14.1591 274.784 16.569 275.584 18.889C276.734 22.239 281.144 23.499 284.014 21.299C287.814 18.399 288.534 11.689 285.464 7.75904C282.464 3.90904 276.244 3.18905 272.504 6.51905C269.874 8.85905 267.424 11.4591 265.154 14.1591C262.124 17.7491 258.854 21.0091 254.364 22.5991C252.594 23.2291 250.554 23.5491 248.704 23.3691C244.944 23.0091 242.504 20.7091 241.384 16.8091C239.174 22.6491 234.814 24.7491 229.164 22.9291C224.904 21.5491 221.624 18.789 218.694 15.479C216.014 12.449 213.354 9.36906 210.374 6.65906C206.674 3.27906 200.654 3.80906 197.524 7.43906C194.354 11.1191 194.694 17.6291 198.244 20.8991C200.894 23.3491 205.114 22.7391 206.814 19.6591C207.914 17.6591 207.364 15.2791 205.504 14.3991C204.274 13.8191 202.784 13.5091 202.104 15.0291C201.424 16.5591 202.834 16.939 203.964 17.289C204.144 17.349 204.294 17.489 204.484 17.609C202.824 18.859 201.024 18.589 199.864 16.979C198.784 15.479 199.294 14.4491 201.974 12.6491C199.724 10.5591 199.354 9.17906 200.614 7.55906C201.814 6.01906 204.104 5.57904 205.664 6.69904C207.094 7.71904 207.674 9.03905 206.634 10.769C206.174 9.99905 205.904 8.94906 205.334 8.74906C204.484 8.44906 203.424 8.75906 202.454 8.80906C202.704 9.58906 202.734 10.6491 203.264 11.0891C204.124 11.7991 205.314 12.0891 206.374 12.5591C209.254 13.8391 210.104 16.1291 208.654 18.9291C208.074 20.0391 207.314 21.0591 206.584 22.2191C213.004 21.5291 214.394 20.029 213.664 14.759C214.514 15.559 215.824 16.4991 215.804 17.3991C215.764 19.0491 214.924 20.679 214.514 22.009C217.324 22.409 220.444 22.8391 223.564 23.2791C223.554 23.6091 223.544 23.9491 223.524 24.2791C220.384 24.6791 217.234 25.089 214.194 25.479C216.714 29.639 216.614 30.9591 213.484 32.4991C214.424 27.5191 212.124 25.129 206.644 25.489C207.244 26.3491 207.854 27.139 208.354 27.989C210.264 31.209 209.414 33.6191 205.934 35.0691C205.004 35.4591 203.934 35.729 203.234 36.389C202.714 36.879 202.694 37.8991 202.444 38.6891C203.414 38.7291 204.484 39.0191 205.334 38.7191C205.904 38.5191 206.184 37.4891 206.604 36.8091C207.404 38.6691 207.054 39.9491 205.544 40.8691C203.884 41.8691 201.624 41.3891 200.514 39.8191C199.374 38.1891 199.744 36.8491 201.904 34.8791C199.254 32.9691 198.804 32.039 199.804 30.549C200.874 28.959 202.774 28.6491 204.664 29.9591L204.714 29.9691ZM83.1939 36.729C83.6839 37.519 83.9639 38.5291 84.5239 38.7191C85.3939 39.0091 86.4439 38.739 87.4239 38.699C87.1739 37.909 87.1539 36.879 86.6239 36.389C85.9339 35.729 84.8539 35.459 83.9239 35.079C80.4639 33.649 79.6139 31.1991 81.5239 27.989C82.0439 27.1091 82.6539 26.2891 83.2239 25.4391C83.0839 25.2291 82.9339 25.009 82.7939 24.799C80.8139 25.709 78.4739 26.2291 76.9939 27.6591C76.0039 28.6191 76.2539 30.8491 75.9139 32.6491C75.3439 31.9191 74.0639 31.0091 74.1039 30.1591C74.1839 28.4391 74.9839 26.7591 75.3539 25.489C72.6039 25.1091 69.4939 24.6691 66.3939 24.239V23.2191C69.5239 22.8091 72.6439 22.3991 75.7139 21.9991C73.0839 17.9791 73.1839 16.7891 76.3739 14.8991C75.5739 20.0291 77.7239 22.289 83.2739 22.039C82.6739 21.179 82.0539 20.3891 81.5439 19.5291C79.6239 16.3091 80.4539 13.849 83.9039 12.419C84.7739 12.059 85.7139 11.789 86.4439 11.239C87.0039 10.819 87.4939 10.0591 87.6139 9.37906C87.6739 9.05906 86.7939 8.24905 86.3239 8.23905C85.6339 8.21905 84.8239 8.57905 84.2539 9.01905C83.7839 9.38905 83.6039 10.109 83.1739 10.889C82.2839 8.68904 82.9539 7.33905 84.6439 6.45905C86.2139 5.63905 88.2739 6.19904 89.3039 7.60904C90.5039 9.25904 90.1439 10.549 87.8939 12.669C90.5539 14.369 91.0939 15.479 90.0139 16.979C88.8539 18.589 87.0239 18.849 85.3239 17.509C85.7239 17.379 86.1439 17.3591 86.3439 17.1491C86.9139 16.5291 87.3939 15.839 87.9039 15.169C87.0539 14.799 86.1739 14.0491 85.3639 14.1191C82.8639 14.3291 81.7339 17.2691 83.0739 19.6791C85.0439 23.2191 89.9039 23.3391 92.5239 19.9091C95.4839 16.0191 95.1139 9.89904 91.7139 6.78904C88.1439 3.51904 82.7239 3.52905 78.9639 7.07905C76.3439 9.54905 73.9339 12.269 71.5839 15.009C68.8539 18.179 65.8539 21.009 61.8839 22.449C60.0439 23.119 57.9439 23.579 56.0339 23.419C52.2639 23.089 49.6639 20.8891 48.5339 16.7491C48.2239 17.5291 48.1039 17.8591 47.9739 18.1891C46.4739 21.9991 42.3739 24.1691 38.3639 23.4091C32.8539 22.3691 28.9339 19.009 25.3839 14.949C22.7739 11.959 20.1239 8.95904 17.1439 6.35904C13.4239 3.11904 7.29388 3.99906 4.37388 7.80906C1.38388 11.7091 2.05387 18.239 5.75387 21.199C8.73387 23.579 13.3939 22.179 14.3839 18.609C14.9339 16.629 13.9139 14.449 12.0239 14.2091C11.1039 14.0891 10.0739 14.8591 9.08387 15.2191C9.68387 15.8891 10.2739 16.5691 10.9039 17.2191C11.0739 17.3891 11.3639 17.439 11.6739 17.579C9.97387 18.829 8.26388 18.6591 7.13388 17.0991C5.26388 14.5391 7.81388 13.749 9.20388 12.549C7.04388 10.869 6.60387 9.55904 7.53387 7.91904C8.48387 6.24904 10.7139 5.54906 12.4439 6.46906C14.1339 7.35906 14.6739 8.73905 13.8639 10.8991C13.4239 10.0891 13.2539 9.35905 12.8039 9.04905C12.1539 8.60905 11.3039 8.30905 10.5239 8.26905C10.1439 8.24905 9.34388 9.05904 9.41388 9.32905C9.58388 10.019 9.98388 10.8291 10.5539 11.2091C11.4939 11.8391 12.6439 12.159 13.6939 12.639C16.3439 13.859 17.1839 16.0891 15.8939 18.7091C15.3039 19.8991 14.5039 20.979 13.8039 22.109C13.9139 22.289 14.0139 22.4791 14.1239 22.6591C16.1239 21.7791 18.4739 21.2991 19.9839 19.8991C21.0039 18.9491 20.8239 16.709 21.2139 14.889C21.7839 15.649 23.0439 16.569 22.9939 17.419C22.8939 19.079 22.0739 20.699 21.6539 22.009C24.5039 22.409 27.6339 22.839 30.7539 23.269C30.7439 23.599 30.7339 23.9191 30.7239 24.2491C27.5739 24.6691 24.4139 25.0891 21.3939 25.4991C23.8739 29.8491 23.8239 30.6291 20.7939 32.4691C21.1339 27.2191 19.0239 25.0791 13.8239 25.4991C14.4039 26.3491 15.0139 27.1491 15.5239 27.9991C17.4239 31.2191 16.5839 33.6291 13.0939 35.0691C12.2239 35.4291 11.2839 35.709 10.5539 36.259C10.0039 36.689 9.58387 37.4591 9.42387 38.1491C9.36387 38.4191 10.1339 39.1991 10.5439 39.2191C11.2639 39.2391 12.0939 38.989 12.6839 38.579C13.1839 38.229 13.4239 37.489 13.8739 36.759C14.4539 39.219 14.0039 40.3091 12.2639 41.0591C10.6339 41.7691 8.60388 41.189 7.65388 39.739C6.59388 38.139 6.98388 36.859 8.82388 35.109C8.02388 33.929 6.81388 32.859 6.68388 31.669C6.60388 30.919 8.00388 29.7491 8.99388 29.239C9.67388 28.889 10.7739 29.3591 11.6839 29.4591C11.3839 30.0891 11.1839 30.1391 10.9839 30.2091C9.95388 30.5791 8.56387 31.019 9.28387 32.329C9.64387 32.989 11.2739 33.399 12.1839 33.209C14.3839 32.7491 15.1939 30.1091 14.0439 27.9091C12.2039 24.3791 7.46387 24.0591 4.75387 27.2791C1.64387 30.9791 1.78388 37.089 5.05388 40.419C8.52388 43.949 14.0739 44.129 17.9439 40.509C20.8939 37.749 23.5139 34.6391 26.2039 31.6191C29.0939 28.3791 32.4039 25.7591 36.6139 24.4691C40.8939 23.1591 45.2239 24.4891 47.2239 27.7091C47.7439 28.5491 48.0939 29.489 48.5739 30.479C50.7739 24.859 55.1739 22.749 60.7739 24.579C62.0639 24.999 63.4539 25.469 64.4839 26.299C67.0039 28.319 69.4439 30.469 71.7439 32.729C74.4739 35.409 76.8739 38.449 79.7139 40.989C83.3739 44.259 89.4939 43.5591 92.5239 39.8491C95.6539 36.0091 95.0439 29.2991 91.2939 26.2791C88.6539 24.1491 84.6539 24.919 83.0739 27.859C81.9939 29.859 82.5739 32.289 84.4139 33.109C85.6539 33.659 87.1539 33.9791 87.8139 32.4391C88.4739 30.8991 87.0239 30.5591 85.9239 30.1791C85.7539 30.1191 85.5939 30.0091 85.3939 29.9091C87.0139 28.6391 88.8839 28.909 90.0239 30.509C91.0839 31.999 90.5839 33.059 87.9539 34.829C90.1839 37.009 90.5239 38.309 89.2639 39.959C88.1339 41.439 85.9939 41.879 84.3939 40.889C82.8539 39.939 82.2739 38.639 83.2039 36.739L83.1939 36.729ZM0.293881 11.979C1.32388 6.97904 4.19387 3.91904 9.08387 2.75904C13.9539 1.59904 18.0539 3.07906 21.5939 6.43906C25.5939 -0.760939 28.1539 -1.72094 31.9139 2.77906C31.1339 2.77906 30.5439 2.77906 29.9639 2.77906C26.5839 2.72906 24.5539 4.60905 24.8739 8.01905C25.3539 13.019 28.4539 16.4691 32.5239 18.9691C35.6639 20.8991 39.1339 21.999 42.8439 20.389C44.9439 19.479 46.2039 17.919 46.3139 15.579C46.4239 13.239 45.2839 11.5391 43.3339 10.4091C40.9439 9.02906 37.9939 10.6791 38.1439 13.4291C38.1939 14.3791 39.0739 15.8891 39.8239 16.0591C40.8039 16.2791 42.0339 15.439 43.4539 14.949C43.3139 15.619 43.3839 16.8091 42.8439 17.5591C41.7539 19.0791 40.0339 18.819 38.4739 18.359C36.2139 17.689 35.1939 16.1791 34.8439 13.1291C33.7439 13.1991 32.6139 13.3491 31.5039 13.3191C29.1839 13.2491 27.7039 11.8891 27.5539 9.81907C27.3939 7.64907 28.7139 5.78905 30.7739 5.26905C32.5039 4.83905 33.3039 5.45907 33.5239 7.31907C32.6839 7.18907 31.6539 6.70906 31.0339 7.02906C30.3539 7.37906 29.6639 8.46906 29.6939 9.21906C29.7139 9.90906 30.6539 11.1391 31.2139 11.1491C32.6439 11.1791 34.3539 11.049 35.4839 10.289C37.8139 8.70904 39.9739 7.09905 43.0839 8.14905C41.5439 2.59905 42.9039 0.509044 47.7739 1.10904C42.9439 5.71904 46.1639 9.69905 48.5539 13.5891C50.8339 9.65905 54.1639 5.65906 49.1839 0.999059C54.2739 0.719059 55.4139 2.46905 54.0039 8.14905C56.9939 7.16905 59.1839 8.51905 61.3839 10.2091C62.3439 10.949 63.7839 11.3291 65.0039 11.3391C65.8039 11.3391 66.9639 10.5491 67.2939 9.81907C67.5739 9.20907 67.1139 7.86905 66.5339 7.39905C66.0339 6.98905 64.9039 7.31906 64.0539 7.33906C63.8739 7.33906 63.6939 7.42905 63.3739 7.51905C63.3939 6.02905 63.9939 5.22906 65.3939 5.15906C67.2939 5.06906 69.2139 6.84906 69.5139 8.93906C69.8039 10.9891 68.5139 12.9091 66.4239 13.2191C65.0939 13.4091 63.7139 13.259 62.3239 13.259C61.3739 17.289 58.9939 19.2791 55.8139 18.5691C53.9139 18.1491 53.3739 17.059 53.8139 14.609C53.9439 14.649 54.1239 14.649 54.1939 14.739C55.1339 15.969 56.2039 17.0391 57.8039 15.8791C59.1839 14.8791 59.2339 13.399 58.5339 11.979C57.7539 10.409 56.5039 9.52906 54.6439 10.0291C52.6639 10.5591 50.9139 12.609 50.7039 14.769C50.4939 16.979 51.2739 19.0191 53.2839 19.8391C55.2039 20.6091 57.5239 21.189 59.5039 20.859C65.2939 19.909 69.1339 16.1591 71.5039 10.9291C72.0439 9.73905 72.2539 8.24906 72.1239 6.93906C71.8439 4.10906 70.1239 2.77904 67.2639 2.78904C66.6339 2.78904 65.9939 2.78904 65.3439 2.78904C68.1639 -1.82096 71.2139 -0.750962 75.3839 6.25904C83.0539 -0.930962 95.1439 2.34904 96.7939 12.479C97.7239 7.00904 100.594 3.92905 105.504 2.76905C110.364 1.61905 114.474 3.07905 118.004 6.45905C121.864 -0.66095 124.814 -1.75094 128.254 2.83906C127.704 2.83906 127.324 2.85906 126.954 2.83906C122.634 2.61906 120.334 5.41906 121.394 9.59906C122.794 15.0891 129.184 20.689 134.854 21.039C136.564 21.149 138.464 20.669 140.044 19.949C142.124 18.989 142.964 17.009 142.674 14.699C142.404 12.499 141.184 10.7991 139.084 10.2491C138.044 9.97906 136.314 10.339 135.664 11.079C134.914 11.939 134.554 13.6491 134.844 14.7791C135.394 16.9391 137.404 16.7991 140.034 14.7191C139.724 15.7691 139.704 17.389 139.034 17.729C137.824 18.349 136.124 18.5991 134.804 18.2791C132.364 17.6891 131.244 15.739 131.274 13.139C130.054 13.209 128.914 13.379 127.794 13.329C125.504 13.229 124.024 11.799 123.934 9.72904C123.844 7.57904 125.254 5.65906 127.284 5.27906C128.894 4.97906 129.984 5.43906 129.994 7.37906C129.144 7.19906 128.194 6.68906 127.624 6.96906C126.914 7.31906 126.144 8.28904 126.094 9.03904C126.054 9.72904 126.914 11.0891 127.394 11.0991C128.894 11.1291 130.684 11.069 131.864 10.299C134.204 8.75905 136.354 7.10905 139.474 8.17905C137.954 2.60905 139.294 0.549044 144.204 1.10904C139.284 5.70904 142.584 9.70904 144.934 13.639C147.154 9.72904 150.594 5.75906 145.624 1.09906C150.544 0.569065 151.844 2.55905 150.364 8.20905C153.394 7.13905 155.614 8.46906 157.764 10.2491C158.454 10.8191 159.474 11.3091 160.324 11.2791C161.434 11.2391 162.724 10.8791 163.524 10.1791C163.894 9.84905 163.614 8.03905 163.064 7.57905C162.394 7.01905 161.124 7.15905 159.864 6.95905C159.724 5.58905 160.744 5.01905 162.374 5.23905C164.484 5.51905 166.064 7.59904 165.914 9.75904C165.774 11.839 164.304 13.239 162.014 13.329C160.944 13.369 159.874 13.2191 158.794 13.1491C157.684 17.3291 155.354 19.259 152.224 18.579C150.334 18.169 149.764 17.0691 150.164 14.6191C150.294 14.6491 150.494 14.6191 150.554 14.7091C151.494 15.909 152.514 17.0491 154.154 15.9091C155.564 14.9191 155.604 13.439 154.934 12.019C154.194 10.429 152.904 9.47904 151.074 10.039C148.894 10.709 147.534 12.2591 147.164 14.5291C146.794 16.8291 147.554 18.949 149.644 19.829C151.544 20.629 153.874 21.1891 155.854 20.8691C161.654 19.9391 165.514 16.1891 167.874 10.9691C168.464 9.66906 168.604 7.99906 168.434 6.55906C168.134 4.05906 166.454 2.84906 163.914 2.80906C163.214 2.79906 162.524 2.80906 161.474 2.80906C162.724 1.17906 163.994 -0.0409363 165.854 0.129064C169.434 0.469064 170.294 3.61906 171.744 6.49906C175.314 3.20906 179.364 1.61906 184.204 2.74906C189.194 3.90906 192.124 6.97906 193.114 12.1291C194.104 7.10906 196.924 3.98907 201.874 2.81907C206.744 1.66907 210.834 3.08904 214.374 6.44904C218.674 -0.770959 220.974 -1.63094 224.754 2.83906C224.034 2.83906 223.524 2.84906 223.014 2.83906C219.144 2.72906 216.984 5.26905 217.704 9.11905C218.794 14.9991 226.054 21.189 232.044 21.109C233.624 21.089 235.334 20.539 236.744 19.789C238.604 18.799 239.374 16.9291 239.114 14.8091C238.834 12.5391 237.584 10.759 235.384 10.229C234.354 9.97904 232.634 10.4191 232.004 11.1891C231.284 12.0691 231.044 13.7491 231.294 14.9291C231.634 16.5091 233.514 16.819 234.794 15.759C235.214 15.409 235.554 14.9591 235.984 14.4991C236.504 17.1391 235.884 18.2891 233.844 18.6491C230.664 19.2191 228.184 17.1091 227.584 13.2191C226.414 13.2691 225.214 13.429 224.024 13.359C221.794 13.229 220.344 11.699 220.294 9.60904C220.244 7.43904 221.934 5.40904 224.034 5.22904C225.604 5.08904 226.444 5.81906 226.424 7.30906C225.424 7.20906 224.374 6.77905 223.744 7.11905C223.074 7.48905 222.414 8.60907 222.464 9.34906C222.504 10.0391 223.524 11.2491 224.054 11.2191C225.634 11.1291 227.464 10.9291 228.674 10.0591C230.834 8.50906 232.914 7.32904 235.194 8.00904C235.384 6.01904 235.104 3.90906 235.914 2.37906C236.474 1.33906 238.574 1.11904 239.984 0.539037C240.094 0.719037 240.194 0.889066 240.304 1.06907C240.034 1.53907 239.784 2.01906 239.474 2.46906C237.654 5.13906 237.404 7.75904 239.474 10.479C240.244 11.489 240.704 12.729 241.274 13.789C243.474 9.83904 246.984 5.89905 242.124 1.26905C246.784 0.339048 248.374 2.76904 246.674 8.28904C249.944 7.03904 252.154 8.80906 254.484 10.4691C255.364 11.0991 256.654 11.4591 257.734 11.3991C258.564 11.3591 259.704 10.6491 260.044 9.92905C260.334 9.31905 259.924 7.96904 259.354 7.47904C258.864 7.04904 257.724 7.34904 256.874 7.35904C256.704 7.35904 256.534 7.46906 256.234 7.55906C256.154 5.86906 256.964 5.17906 258.434 5.21906C260.424 5.26906 262.174 7.12904 262.294 9.22904C262.424 11.369 261.134 13.0491 258.964 13.3091C257.704 13.4591 256.404 13.3391 255.094 13.3391C254.294 17.2591 251.754 19.3491 248.554 18.5991C246.674 18.1591 246.064 16.8691 246.714 14.5291C247.074 14.9291 247.374 15.3091 247.724 15.6191C249.154 16.8891 251.104 16.5191 251.424 14.6791C251.624 13.5091 251.254 11.839 250.474 11.009C249.794 10.289 248.094 10.039 247.024 10.289C244.954 10.789 243.534 13.099 243.514 15.259C243.494 17.689 244.644 19.449 246.854 20.359C251.704 22.359 255.894 20.5091 259.454 17.4691C261.524 15.6991 263.244 13.2191 264.384 10.7191C266.514 6.06906 264.014 2.71905 258.944 2.86905C258.684 2.86905 258.434 2.86905 257.804 2.86905C259.184 1.13905 260.514 -0.140947 262.484 0.149053C265.894 0.649053 266.744 3.68904 268.124 6.53904C271.704 3.25904 275.744 1.62906 280.584 2.74906C285.554 3.89906 288.554 6.90906 289.494 12.1291C290.524 7.07906 293.394 3.92906 298.374 2.77906C303.164 1.66906 307.214 3.07906 310.834 6.49906C312.414 3.82906 313.164 0.229041 316.954 0.199041C318.364 0.189041 319.784 1.45904 321.194 2.13904C321.104 2.36904 321.014 2.59905 320.924 2.82905C320.394 2.82905 319.864 2.83905 319.334 2.82905C315.644 2.74905 313.524 5.14904 314.074 8.78904C315.024 15.009 322.744 21.3991 329.004 21.1591C332.284 21.0291 334.744 19.2991 335.434 16.6191C336.004 14.4091 335.034 11.8891 332.874 10.6891C332.004 10.2091 330.534 9.75904 329.894 10.169C328.814 10.859 327.814 12.1391 327.484 13.3691C327.284 14.1291 328.254 15.899 328.934 16.039C330.004 16.249 331.274 15.469 332.464 15.109C332.974 16.909 332.434 18.0991 330.554 18.5691C327.354 19.3691 324.824 17.2991 323.984 13.1891C322.774 13.2391 321.554 13.409 320.354 13.329C318.144 13.169 316.714 11.569 316.734 9.47904C316.744 7.31904 318.544 5.30904 320.594 5.19904C322.094 5.11904 322.824 5.88906 322.944 7.52906C322.104 7.26906 321.204 6.67904 320.744 6.91904C319.954 7.32904 319.014 8.21905 318.934 8.98905C318.864 9.68905 319.864 11.1791 320.354 11.1491C321.994 11.0791 323.914 10.909 325.174 10.019C327.354 8.46905 329.424 7.32906 331.734 8.02906C331.844 6.09906 331.434 3.99905 332.224 2.54905C332.834 1.42905 334.944 1.12905 336.384 0.45905C336.504 0.63905 336.624 0.829038 336.734 1.00904C336.604 1.29904 336.514 1.62906 336.324 1.87906C334.034 4.88906 333.724 7.86905 336.254 10.9591C336.904 11.7591 337.204 12.839 337.674 13.829C339.924 9.76904 343.474 5.86904 338.364 1.13904C338.594 0.959043 338.814 0.779065 339.044 0.599065C340.464 1.16906 342.564 1.34904 343.144 2.38904C343.954 3.84904 343.644 5.93905 343.834 7.95905C346.344 7.14905 348.694 8.68906 350.994 10.5291C351.584 10.9991 352.484 11.3991 353.184 11.3191C354.304 11.1891 355.584 10.8791 356.364 10.1591C356.734 9.81906 356.424 8.00905 355.864 7.54905C355.184 6.99905 353.914 7.19906 352.814 7.05906C352.754 5.68906 353.564 4.91905 355.274 5.23905C357.404 5.63905 358.864 7.59906 358.704 9.84906C358.554 11.9291 357.094 13.289 354.774 13.359C353.704 13.389 352.634 13.2291 351.564 13.1491C350.614 17.2991 348.204 19.3091 345.034 18.5891C343.124 18.1591 342.504 16.909 343.104 14.449C343.514 14.899 343.824 15.329 344.214 15.669C345.574 16.859 347.434 16.549 347.814 14.799C348.064 13.639 347.754 11.969 347.014 11.109C346.364 10.359 344.684 10.009 343.614 10.239C341.514 10.689 340.034 12.9591 339.934 15.0991C339.824 17.4391 341.044 19.4691 343.344 20.3791C348.294 22.3491 352.424 20.339 356.114 17.299C357.694 15.999 358.914 14.1791 360.044 12.4291C361.564 10.0691 362.124 7.45905 360.664 4.82905C359.314 2.39905 356.904 2.80906 354.464 2.90906C355.404 1.13906 356.774 0.0290528 358.574 0.149053C362.294 0.399053 363.144 3.66905 364.554 6.45905C365.274 5.90905 365.934 5.37906 366.624 4.87906C371.154 1.60906 377.534 1.65906 381.834 4.87906C384.254 6.69906 385.064 9.37905 385.994 12.019V16.359C384.944 19.939 382.824 22.559 379.024 23.789C382.834 25.059 384.914 27.6291 385.994 31.1191V35.459C385.104 38.119 384.334 40.819 381.914 42.6491C377.604 45.9191 371.284 46.019 366.734 42.789C365.994 42.269 365.284 41.7091 364.454 41.0891C363.474 43.9191 362.114 46.249 359.524 47.609H357.784C356.604 46.749 355.424 45.899 354.244 45.039C355.074 44.679 355.644 44.7291 356.214 44.7491C359.514 44.8791 361.424 43.1291 361.404 39.8191C361.404 38.6891 361.184 37.4691 360.694 36.4691C358.384 31.7091 354.914 28.2291 349.644 26.8091C347.234 26.1591 344.904 26.2591 342.714 27.4991C340.704 28.6391 339.724 30.419 339.954 32.729C340.184 35.029 341.514 36.599 343.614 37.449C345.244 38.109 346.944 37.329 347.754 35.639C348.494 34.099 348.424 32.5891 346.914 31.5991C345.264 30.5091 344.264 31.729 343.344 32.9291C343.304 32.979 343.134 32.9191 343.024 32.9091C342.574 30.6891 343.164 29.4491 344.894 28.9991C348.034 28.1891 350.464 30.1791 351.584 34.4091C352.824 34.3491 354.054 34.149 355.254 34.259C357.384 34.459 358.684 35.959 358.714 38.009C358.744 40.179 357.274 42.0491 355.224 42.3391C353.544 42.5791 352.624 41.879 352.604 39.959C352.904 40.079 353.064 40.1891 353.224 40.1891C354.074 40.2291 355.204 40.5891 355.714 40.1891C356.294 39.7391 356.754 38.3991 356.494 37.7791C356.184 37.0591 355.074 36.349 354.244 36.259C353.244 36.149 352.004 36.4291 351.174 36.9991C348.744 38.6391 346.494 40.5991 343.044 39.4091C345.004 44.6591 343.484 46.9591 338.494 46.4991C343.324 41.7991 340.114 37.8291 337.684 33.9091C337.074 35.0391 336.544 36.329 335.744 37.419C333.964 39.859 334.114 42.2391 335.634 44.6891C336.004 45.2891 336.384 45.889 336.784 46.539C332.084 46.919 330.974 45.229 332.204 39.489C329.354 40.289 327.224 39.0691 325.014 37.4691C323.854 36.6291 322.074 36.369 320.574 36.389C319.964 36.389 318.844 37.8691 318.914 38.5891C318.994 39.3691 320.084 40.1991 320.924 40.6791C321.304 40.8991 322.144 40.3091 322.924 40.0291C322.774 42.1191 321.674 42.659 319.974 42.289C318.084 41.879 316.614 39.8591 316.714 37.9391C316.814 35.9891 318.244 34.439 320.334 34.259C321.534 34.159 322.764 34.359 323.974 34.419C324.814 30.319 327.284 28.2591 330.504 28.9991C332.344 29.4191 332.934 30.6591 332.364 32.9391C330.144 30.7891 328.264 30.669 327.694 32.789C327.394 33.909 327.734 35.629 328.474 36.489C329.124 37.239 330.854 37.6491 331.884 37.3691C334.064 36.7791 335.324 34.9791 335.554 32.7191C335.784 30.5191 334.894 28.6191 332.914 27.6591C331.464 26.9591 329.744 26.429 328.164 26.479C322.124 26.669 315.444 32.4691 314.174 38.3491C313.324 42.3091 315.494 44.9291 319.494 44.7491C319.964 44.7291 320.434 44.689 320.914 44.669C320.994 44.819 321.074 44.9691 321.154 45.1191C320.054 45.9591 318.954 46.7891 317.864 47.6291H315.694C313.984 45.6091 312.274 43.579 310.484 41.459C307.254 44.529 303.124 45.9491 298.294 44.8091C293.364 43.6491 290.454 40.4991 289.524 35.4091C288.594 40.6291 285.604 43.6891 280.664 44.8391C275.844 45.9591 271.724 44.479 268.684 41.539C266.754 43.679 264.974 45.6491 263.184 47.6291H261.014C259.994 46.7591 258.964 45.899 257.514 44.669C264.144 44.969 266.684 41.5291 264.214 36.3391C261.714 31.0991 257.714 27.409 251.784 26.639C249.924 26.399 247.774 27.009 246.004 27.789C243.944 28.699 243.124 31.1191 243.634 33.3491C244.114 35.4891 245.464 36.9891 247.564 37.5691C249.374 38.0691 250.664 37.109 251.394 35.509C252.064 34.059 251.934 32.589 250.524 31.639C248.874 30.529 247.874 31.7291 246.924 32.8991C246.874 32.9591 246.674 32.8991 246.444 32.8791C246.114 31.0391 246.464 29.559 248.514 29.019C251.614 28.209 253.964 30.1591 255.204 34.4391C256.374 34.3691 257.524 34.1591 258.664 34.2491C260.814 34.4091 262.204 35.8591 262.304 37.8391C262.414 39.9791 260.984 41.8991 258.974 42.3191C257.204 42.6891 256.434 42.019 256.394 40.479C257.444 40.379 258.714 40.6091 259.394 40.0891C259.964 39.6491 260.324 37.8291 259.964 37.4991C259.194 36.7791 257.924 36.439 256.804 36.299C256.104 36.209 255.204 36.5991 254.604 37.0591C252.294 38.8291 249.994 40.5191 246.674 39.4391C248.534 44.7491 247.144 46.8591 241.984 46.5591C246.994 41.8491 243.564 37.819 241.294 33.859C240.704 34.939 240.174 36.2291 239.384 37.3091C237.544 39.8091 237.644 42.249 239.254 44.759C239.624 45.339 239.974 45.9291 240.384 46.5991C235.474 46.7491 234.344 45.0091 235.864 39.4391C232.744 40.4791 230.594 38.829 228.274 37.259C227.144 36.499 225.424 36.3191 223.994 36.3791C222.684 36.4391 222.074 37.6391 222.484 38.9691C222.894 40.2791 223.744 41.1091 225.264 40.5591C225.614 40.4291 225.924 40.189 226.464 39.889C226.384 42.029 225.364 42.5991 223.734 42.3191C221.744 41.9791 220.214 39.9691 220.304 37.8991C220.394 35.9191 221.784 34.409 223.904 34.239C225.094 34.139 226.314 34.3391 227.514 34.4091C228.304 30.3591 230.874 28.239 234.084 28.979C235.914 29.399 236.494 30.639 235.924 33.049C235.494 32.599 235.154 32.149 234.724 31.799C233.434 30.759 231.564 31.119 231.254 32.709C231.024 33.899 231.364 35.419 231.984 36.489C232.734 37.779 234.224 37.9891 235.644 37.3491C237.734 36.4091 238.984 34.7691 239.124 32.4991C239.264 30.2991 238.314 28.469 236.314 27.519C235.044 26.909 233.574 26.4691 232.184 26.4391C226.204 26.3091 218.724 32.619 217.664 38.509C216.964 42.439 219.224 44.9491 223.244 44.7191C223.684 44.6891 224.124 44.7191 225.214 44.7191C223.624 45.9591 222.554 46.779 221.494 47.609H219.324C217.574 45.599 215.824 43.5891 214.084 41.5991C207.204 48.2791 194.794 45.6591 193.064 35.4991C191.384 45.5591 179.074 48.3691 172.084 41.6191C170.334 43.6091 168.574 45.609 166.814 47.609H164.644C163.574 46.739 162.504 45.869 161.104 44.739C167.824 44.829 170.314 41.379 167.664 36.079C165.154 31.049 161.264 27.4391 155.504 26.6491C153.694 26.3991 151.624 26.8791 149.884 27.5691C147.854 28.3691 146.934 30.299 147.074 32.519C147.214 34.819 148.464 36.4391 150.534 37.3791C152.204 38.1291 153.874 37.519 154.764 35.859C155.544 34.389 155.634 32.8591 154.214 31.7491C152.514 30.4291 151.464 31.7791 150.434 32.9291C150.384 32.9891 150.184 32.9191 150.024 32.8991C149.674 31.0491 150.014 29.399 152.104 29.079C153.304 28.889 154.974 28.989 155.794 29.699C157.204 30.909 158.114 32.6891 159.354 34.4091C159.844 34.3691 160.844 34.1891 161.844 34.2191C164.154 34.2891 165.614 35.609 165.844 37.699C166.064 39.669 164.804 41.599 162.874 42.239C161.074 42.829 160.084 42.1391 159.994 40.5891C161.054 40.4391 162.324 40.6191 163.004 40.0591C163.564 39.5991 163.864 37.779 163.494 37.449C162.704 36.749 161.404 36.379 160.294 36.329C159.444 36.289 158.414 36.7591 157.734 37.3191C155.594 39.1091 153.354 40.359 150.384 39.509C151.724 45.129 150.434 47.059 145.574 46.459C150.614 41.799 146.994 37.8391 144.834 33.8191C144.254 34.9091 143.784 36.159 143.014 37.169C141.034 39.799 141.184 42.359 142.924 44.989C143.254 45.489 143.554 46.0091 143.924 46.6191C138.954 46.6991 137.824 44.9291 139.424 39.4291C136.294 40.479 134.144 38.849 131.814 37.289C130.684 36.529 128.964 36.369 127.534 36.4291C126.964 36.4491 125.994 37.839 126.044 38.549C126.094 39.309 127.004 40.2191 127.774 40.6491C128.234 40.909 129.134 40.3591 129.914 40.1491C129.964 42.1091 128.844 42.5791 127.254 42.3191C125.244 41.9991 123.754 40.0191 123.844 37.9091C123.924 35.9191 125.314 34.419 127.434 34.259C128.624 34.169 129.844 34.369 131.044 34.4291C131.824 30.3791 134.384 28.2691 137.604 28.9991C139.454 29.4191 140.064 30.709 139.464 33.079C139.034 32.629 138.694 32.1891 138.274 31.8491C136.984 30.8091 135.124 31.139 134.804 32.729C134.564 33.909 134.904 35.429 135.504 36.509C136.244 37.819 137.744 38.0391 139.154 37.3991C141.134 36.5091 142.394 34.9991 142.614 32.7791C142.834 30.5591 142.014 28.6791 140.044 27.6791C138.674 26.9791 137.034 26.479 135.514 26.479C129.614 26.459 122.404 32.549 121.254 38.299C120.434 42.369 122.664 44.9791 126.764 44.7491C127.204 44.7191 127.654 44.7491 128.674 44.7491C127.194 45.9491 126.154 46.7891 125.124 47.6291H122.954C121.184 45.6491 119.404 43.659 117.634 41.6791C110.224 48.799 98.0039 44.9391 96.5939 35.4391C95.6939 40.4791 92.8239 43.629 87.8639 44.789C83.0039 45.919 78.8139 44.539 75.7139 41.489C73.8139 43.699 72.1239 45.6591 70.4239 47.6191H68.2539C67.1639 46.7791 66.0839 45.9291 64.6439 44.8091C71.5939 44.5991 73.8839 41.0491 70.9939 35.6891C68.3939 30.8691 64.6039 27.3791 59.0139 26.6491C57.1439 26.4091 55.0039 26.9391 53.2139 27.6791C51.1939 28.5191 50.3539 30.5191 50.5839 32.7191C50.8239 34.9791 52.1239 36.5991 54.2439 37.4391C55.9039 38.0991 57.5639 37.3491 58.3839 35.6491C59.0839 34.2091 59.0739 32.759 57.7439 31.729C56.0539 30.409 54.9839 31.719 53.9539 32.889C53.9039 32.939 53.7139 32.8691 53.5639 32.8491C53.2139 30.9991 53.5239 29.349 55.6439 29.049C56.8439 28.879 58.5139 28.9791 59.3339 29.6891C60.7239 30.8991 61.6139 32.679 62.8339 34.389C63.3939 34.349 64.4739 34.159 65.5339 34.209C67.7839 34.319 69.2839 35.769 69.4139 37.829C69.5439 39.779 68.1439 41.7391 66.2539 42.2491C64.4339 42.7391 63.5539 42.0691 63.4539 40.5991C64.5839 40.3891 65.8239 40.4691 66.6239 39.9091C67.1339 39.5491 67.3939 37.769 67.0539 37.489C66.2239 36.799 65.0039 36.4591 63.8839 36.2791C63.2539 36.1791 62.4239 36.519 61.8639 36.919C59.4739 38.609 57.2139 40.5791 53.7839 39.4291C55.5239 44.8091 54.0339 47.019 49.4939 46.489C51.3272 42.9624 50.9639 38.7724 48.4039 33.919C46.0039 37.869 42.8439 41.869 47.4139 46.789C45.6139 46.439 43.5039 46.1991 42.9139 45.1191C42.1139 43.6691 42.4839 41.5691 42.3439 39.6191C39.9939 40.2691 37.8539 39.069 35.6539 37.459C34.5039 36.6091 32.7239 36.419 31.2039 36.359C30.6439 36.339 29.5739 37.5391 29.5739 38.1791C29.5739 38.9991 30.2539 40.109 30.9739 40.539C31.5239 40.869 32.5839 40.319 33.4839 40.1491C33.4639 42.1691 32.2839 42.619 30.6039 42.269C28.5939 41.849 27.2439 39.8691 27.4039 37.7191C27.5539 35.7391 28.9639 34.3391 31.1339 34.2191C32.3139 34.1591 33.5039 34.349 34.7739 34.4291C34.6939 31.739 35.8739 29.839 38.3139 29.269C39.6339 28.959 41.3239 29.2391 42.5239 29.8691C43.1839 30.2191 43.1839 31.8391 43.4639 32.8491C42.0039 32.1791 40.9739 31.399 39.9139 31.359C39.3239 31.339 38.1739 32.529 38.1639 33.1791C38.1439 34.3591 38.4839 35.8591 39.2539 36.6291C39.9439 37.3091 41.5539 37.6291 42.5339 37.3391C44.5939 36.7391 45.8539 35.0691 46.1339 32.8791C46.4239 30.6691 45.6339 28.749 43.6839 27.729C42.2639 26.989 40.5439 26.4491 38.9639 26.4591C33.1539 26.4791 26.2239 32.2491 24.8639 37.9291C23.8239 42.299 26.0939 44.9791 30.5839 44.6891C30.9039 44.6691 31.2239 44.6891 32.1639 44.6891C30.7239 45.9091 29.7239 46.7591 28.7239 47.5991H26.5539C24.7339 45.5991 22.9139 43.5991 21.0939 41.5991C14.1539 48.3091 1.81388 45.5191 0.103878 35.4691C-0.156122 34.2991 0.153882 31.229 0.153882 31.229C0.993882 27.309 3.48388 25.2091 7.48388 23.7791C3.41388 22.3891 0.983883 20.199 0.123883 16.389C0.123883 16.389 -0.0961172 12.939 0.123883 12.019L0.293881 11.979ZM297.054 23.7191C292.824 22.4491 290.504 20.0591 289.534 16.3391C288.774 20.2991 286.154 22.3591 282.274 23.8091C286.334 25.1291 288.714 27.3591 289.604 31.1491C290.464 27.3291 292.924 25.1291 297.054 23.7191ZM185.754 23.759C189.924 25.139 192.324 27.3991 193.164 31.2491C193.964 27.3691 196.464 25.109 200.584 23.759C196.374 22.349 193.994 20.069 193.154 16.259C192.334 20.119 189.904 22.379 185.754 23.769V23.759ZM104.154 23.759C100.044 22.419 97.5639 20.1891 96.7339 16.3191C95.8639 20.1891 93.3839 22.3991 89.3039 23.7791C93.4539 25.1191 95.8539 27.3891 96.7339 31.2091C97.5739 27.3691 99.9939 25.149 104.144 23.759H104.154Z" fill="#27285B"/>
</svg>
