<svg width="56" height="55" viewBox="0 0 56 55" fill="none" xmlns="http://www.w3.org/2000/svg">
<g filter="url(#filter0_f_73_218)">
<circle cx="28.098" cy="27.5882" r="10.4314" fill="#F7C659"/>
</g>
<path d="M31.8672 3H16.1328C9.98453 3 5 7.98453 5 14.1328V29.8672C5 36.0155 9.98453 41 16.1328 41H31.8672C38.0155 41 43 36.0155 43 29.8672V14.1328C43 7.98453 38.0155 3 31.8672 3ZM39.2891 29.8672C39.2891 33.9596 35.9596 37.2891 31.8672 37.2891H16.1328C12.0404 37.2891 8.71094 33.9596 8.71094 29.8672V14.1328C8.71094 10.0404 12.0404 6.71094 16.1328 6.71094H31.8672C35.9596 6.71094 39.2891 10.0404 39.2891 14.1328V29.8672ZM32.1299 12.9327C32.7667 13.5695 32.7667 14.6011 32.1299 15.2379L22.5943 24.7736C21.9575 25.4104 20.9259 25.4104 20.2891 24.7736L15.8701 20.3546C15.2333 19.7178 15.2333 18.6861 15.8701 18.0493C16.5069 17.4125 17.5385 17.4125 18.1753 18.0493L21.4417 21.3157L29.8247 12.9327C30.4615 12.2959 31.4931 12.2959 32.1299 12.9327ZM17.4791 28.2841H30.5201C31.4204 28.2841 32.15 29.0137 32.15 29.9139C32.15 30.8142 31.4204 31.5438 30.5201 31.5438H17.4791C16.5789 31.5438 15.8493 30.8142 15.8493 29.9139C15.8493 29.0137 16.5789 28.2841 17.4791 28.2841Z" fill="#02033B"/>
<defs>
<filter id="filter0_f_73_218" x="0.966625" y="0.45686" width="54.2628" height="54.2627" filterUnits="userSpaceOnUse" color-interpolation-filters="sRGB">
<feFlood flood-opacity="0" result="BackgroundImageFix"/>
<feBlend mode="normal" in="SourceGraphic" in2="BackgroundImageFix" result="shape"/>
<feGaussianBlur stdDeviation="8.35" result="effect1_foregroundBlur_73_218"/>
</filter>
</defs>
</svg>
