<svg width="53" height="53" viewBox="0 0 53 53" fill="none" xmlns="http://www.w3.org/2000/svg">
<g filter="url(#filter0_f_76_2)">
<circle cx="26.8942" cy="26.4861" r="9.20192" fill="#F7C659"/>
</g>
<path d="M32.8031 0.612305H16.5124C15.1237 0.612305 13.8181 1.15245 12.8369 2.13366L6.52136 8.44921C5.54015 9.43042 5 10.7344 5 12.1232V34.6878C5 37.5547 7.33157 39.8863 10.1969 39.8863H32.8031C35.6684 39.8863 38 37.5547 38 34.6878V5.80921C38 2.94388 35.6684 0.612305 32.8031 0.612305ZM34.7272 34.6878C34.7272 35.7489 33.8642 36.6135 32.8031 36.6135H10.1969C9.13579 36.6135 8.27283 35.7489 8.27283 34.6878V12.1232C8.27283 11.6086 8.47259 11.126 8.83535 10.7632L15.1509 4.44766C15.5137 4.0849 15.9979 3.88514 16.5124 3.88514H32.8031C33.8642 3.88514 34.7272 4.74809 34.7272 5.80921V34.6878Z" fill="#02033B"/>
<path d="M29.8196 30.0662H25.353C24.4485 30.0662 23.7166 30.7981 23.7166 31.7026C23.7166 32.6071 24.4485 33.339 25.353 33.339H29.8196C30.7241 33.339 31.456 32.6071 31.456 31.7026C31.456 30.7981 30.7241 30.0662 29.8196 30.0662Z" fill="#02033B"/>
<path d="M17.222 11.9921H25.7796C26.6841 11.9921 27.416 11.2602 27.416 10.3557C27.416 9.45118 26.6841 8.71927 25.7796 8.71927H17.222C16.3175 8.71927 15.5856 9.45118 15.5856 10.3557C15.5856 11.2602 16.3175 11.9921 17.222 11.9921Z" fill="#02033B"/>
<path d="M29.8195 15.4823H13.1821C12.2776 15.4823 11.5457 16.2142 11.5457 17.1187C11.5457 18.0232 12.2776 18.7551 13.1821 18.7551H29.8195C30.724 18.7551 31.4559 18.0232 31.4559 17.1187C31.4559 16.2142 30.724 15.4823 29.8195 15.4823Z" fill="#02033B"/>
<path d="M22.1824 22.2453H13.1821C12.2776 22.2453 11.5457 22.9772 11.5457 23.8817C11.5457 24.7862 12.2776 25.5181 13.1821 25.5181H22.1824C23.0869 25.5181 23.8188 24.7862 23.8188 23.8817C23.8188 22.9772 23.0869 22.2453 22.1824 22.2453Z" fill="#02033B"/>
<path d="M2 41L41 1.5" stroke="#02033B" stroke-width="4"/>
<defs>
<filter id="filter0_f_76_2" x="0.99226" y="0.584209" width="51.8038" height="51.8038" filterUnits="userSpaceOnUse" color-interpolation-filters="sRGB">
<feFlood flood-opacity="0" result="BackgroundImageFix"/>
<feBlend mode="normal" in="SourceGraphic" in2="BackgroundImageFix" result="shape"/>
<feGaussianBlur stdDeviation="8.35" result="effect1_foregroundBlur_76_2"/>
</filter>
</defs>
</svg>
