<svg width="57" height="61" viewBox="0 0 57 61" fill="none" xmlns="http://www.w3.org/2000/svg">
<g filter="url(#filter0_f_73_213)">
<circle cx="26.7857" cy="34.4107" r="9.23214" fill="#F7C659"/>
</g>
<path d="M19.7174 20.7558C20.0759 21.1143 20.5457 21.2935 21.0156 21.2935C21.4855 21.2935 21.9553 21.1143 22.3138 20.7558L25.9857 17.0839C26.7027 16.3669 26.7027 15.2045 25.9857 14.4875C25.2687 13.7706 24.1062 13.7705 23.3893 14.4875L21.0156 16.8612L20.4779 16.3235C19.7608 15.6065 18.5984 15.6065 17.8815 16.3235C17.1646 17.0404 17.1645 18.2029 17.8815 18.9199L19.7174 20.7558Z" fill="#02033B"/>
<path d="M19.7175 29.9355C20.0759 30.2939 20.5457 30.4732 21.0156 30.4732C21.4856 30.4732 21.9554 30.2939 22.3138 29.9355L25.9857 26.2636C26.7027 25.5467 26.7027 24.3842 25.9857 23.6672C25.2687 22.9502 24.1063 22.9502 23.3893 23.6672L21.0156 26.0409L20.4779 25.5032C19.7609 24.7861 18.5985 24.7861 17.8815 25.5032C17.1645 26.2201 17.1645 27.3826 17.8815 28.0995L19.7175 29.9355Z" fill="#02033B"/>
<path d="M19.7175 39.1152C20.0759 39.4736 20.5457 39.6529 21.0156 39.6529C21.4856 39.6529 21.9554 39.4736 22.3138 39.1152L25.9857 35.4433C26.7027 34.7264 26.7027 33.5638 25.9857 32.8469C25.2687 32.1299 24.1063 32.1299 23.3893 32.8469L21.0156 35.2206L20.4779 34.6828C19.7609 33.9658 18.5985 33.9658 17.8815 34.6828C17.1645 35.3998 17.1645 36.5623 17.8815 37.2792L19.7175 39.1152Z" fill="#02033B"/>
<path d="M30.1953 21.2935H33.8672C34.8812 21.2935 35.7031 20.4716 35.7031 19.4576C35.7031 18.4436 34.8812 17.6217 33.8672 17.6217H30.1953C29.1813 17.6217 28.3594 18.4436 28.3594 19.4576C28.3594 20.4716 29.1813 21.2935 30.1953 21.2935Z" fill="#02033B"/>
<path d="M30.1953 28.6373H33.8672C34.8812 28.6373 35.7031 27.8153 35.7031 26.8013C35.7031 25.7874 34.8812 24.9654 33.8672 24.9654H30.1953C29.1813 24.9654 28.3594 25.7874 28.3594 26.8013C28.3594 27.8153 29.1813 28.6373 30.1953 28.6373Z" fill="#02033B"/>
<path d="M30.1953 35.981H33.8672C34.8812 35.981 35.7031 35.1591 35.7031 34.1451C35.7031 33.1311 34.8812 32.3092 33.8672 32.3092H30.1953C29.1813 32.3092 28.3594 33.1311 28.3594 34.1451C28.3594 35.1591 29.1813 35.981 30.1953 35.981Z" fill="#02033B"/>
<path d="M51.4922 10.2779C48.4552 10.2779 45.9844 12.7487 45.9844 15.7857V36.2961C45.9844 40.1351 47.4794 43.7443 50.1939 46.4589C50.5382 46.8032 51.0052 46.9967 51.4922 46.9967C51.9792 46.9967 52.4461 46.8032 52.7905 46.4589C55.505 43.7443 57 40.1351 57 36.2961V15.7857C57 12.7487 54.5292 10.2779 51.4922 10.2779ZM51.4922 13.9498C52.5045 13.9498 53.3281 14.7734 53.3281 15.7857V21.2935H49.6562V15.7857C49.6562 14.7734 50.4799 13.9498 51.4922 13.9498ZM51.4922 42.295C50.2982 40.5386 49.6562 38.4665 49.6562 36.2961V24.9654H53.3281V36.2961C53.3281 38.4666 52.6862 40.5386 51.4922 42.295Z" fill="#02033B"/>
<path d="M40.278 4.40698C39.3987 3.90229 38.2767 4.20604 37.7718 5.08545C37.2671 5.96487 37.5709 7.0869 38.4503 7.59169C39.0207 7.91904 39.375 8.53004 39.375 9.1862V41.4922C39.375 42.5045 38.5514 43.3281 37.5391 43.3281H15.5078C14.4955 43.3281 13.6719 42.5045 13.6719 41.4922V9.1862C13.6719 8.17387 14.4955 7.35027 15.5078 7.35027H19.4977C20.2575 9.48381 22.2966 11.0156 24.6875 11.0156H28.3594C31.3964 11.0156 33.8672 8.54482 33.8672 5.50781C33.8672 2.4708 31.3964 0 28.3594 0H24.6875C22.2917 0 20.2493 1.53815 19.4933 3.67839H15.5078C12.4708 3.67839 10 6.1492 10 9.1862V41.4922C10 44.5292 12.4708 47 15.5078 47H37.5391C40.5761 47 43.0469 44.5292 43.0469 41.4922V9.1862C43.0469 7.21845 41.9859 5.38719 40.278 4.40698ZM24.6875 3.67188H28.3594C29.3717 3.67188 30.1953 4.49548 30.1953 5.50781C30.1953 6.52015 29.3717 7.34375 28.3594 7.34375H24.6875C23.6752 7.34375 22.8516 6.52015 22.8516 5.50781C22.8516 4.49548 23.6752 3.67188 24.6875 3.67188Z" fill="#02033B"/>
<defs>
<filter id="filter0_f_73_213" x="0.853588" y="8.47857" width="51.8642" height="51.8643" filterUnits="userSpaceOnUse" color-interpolation-filters="sRGB">
<feFlood flood-opacity="0" result="BackgroundImageFix"/>
<feBlend mode="normal" in="SourceGraphic" in2="BackgroundImageFix" result="shape"/>
<feGaussianBlur stdDeviation="8.35" result="effect1_foregroundBlur_73_213"/>
</filter>
</defs>
</svg>
