<svg width="31" height="31" viewBox="0 0 31 31" fill="none" xmlns="http://www.w3.org/2000/svg">
<path d="M0 3C0 1.34315 1.34315 0 3 0H28C29.6569 0 31 1.34315 31 3V28C31 29.6569 29.6569 31 28 31H3C1.34315 31 0 29.6569 0 28V3Z" fill="white"/>
<path d="M21.8875 9.29099C21.817 9.10288 21.7464 9.05585 21.6524 9.03233C21.3937 8.93827 20.994 9.07936 20.994 9.07936C20.994 9.07936 6.15625 14.4172 5.30972 15.005C5.1216 15.1226 5.07458 15.2167 5.02755 15.2872C4.88646 15.7105 5.33324 15.8986 5.33324 15.8986L9.16611 17.1449C9.16611 17.1449 9.3072 17.1684 9.35423 17.1449C10.2243 16.604 18.1017 11.6189 18.5484 11.4543C18.619 11.4308 18.666 11.4543 18.666 11.5014C18.4779 12.1363 11.6351 18.2265 11.6351 18.2265C11.6351 18.2265 11.6116 18.2501 11.5881 18.2971L11.2354 22.0829C11.2354 22.0829 11.0943 23.2351 12.2465 22.0829C13.0695 21.2599 13.869 20.578 14.2453 20.2488C15.5621 21.1659 16.973 22.1535 17.5843 22.6943C17.89 22.953 18.1487 23 18.3603 23C18.9482 22.9765 19.1128 22.3416 19.1128 22.3416C19.1128 22.3416 21.817 11.4543 21.911 9.99643C21.911 9.85534 21.9345 9.76128 21.9345 9.66723C21.911 9.50262 21.911 9.36154 21.8875 9.29099Z" fill="black"/>
</svg>
