<svg width="31" height="31" viewBox="0 0 31 31" fill="none" xmlns="http://www.w3.org/2000/svg">
<path d="M0 3C0 1.34315 1.34315 0 3 0H28C29.6569 0 31 1.34315 31 3V28C31 29.6569 29.6569 31 28 31H3C1.34315 31 0 29.6569 0 28V3Z" fill="white"/>
<path d="M21.2351 18.8106C21.0237 19.4045 20.0069 19.9462 19.5198 20.0198C18.9856 20.1114 18.4373 20.0773 17.9186 19.92C17.4265 19.7675 16.9427 19.589 16.4694 19.3855C13.9178 18.2808 12.2525 15.7078 12.1265 15.5463C12.0006 15.3847 11.0883 14.1684 11.0883 12.9187C11.0813 12.5232 11.1567 12.1305 11.3096 11.7657C11.4626 11.4008 11.6898 11.0718 11.9769 10.7996C12.0617 10.7027 12.1656 10.6244 12.2821 10.5696C12.3986 10.5148 12.5252 10.4847 12.654 10.4812C12.8226 10.4812 12.9937 10.4812 13.141 10.4812C13.2883 10.4812 13.5068 10.4218 13.7135 10.9184C13.9202 11.4149 14.4263 12.6788 14.4975 12.8047C14.5371 12.8714 14.5597 12.9467 14.5634 13.0242C14.5671 13.1016 14.5519 13.1788 14.5189 13.249C14.4548 13.4013 14.3692 13.5437 14.2647 13.6718C14.1364 13.8191 13.9986 14.0021 13.8846 14.1161C13.7705 14.2301 13.6256 14.3798 13.7729 14.634C14.1582 15.2882 14.6386 15.8815 15.1984 16.3944C15.801 16.9304 16.4924 17.3573 17.2415 17.6559C17.4957 17.7842 17.643 17.7629 17.7927 17.5918C17.9424 17.4207 18.427 16.8506 18.5981 16.5964C18.7691 16.3422 18.9378 16.3849 19.1706 16.4681C19.4034 16.5512 20.6531 17.1665 20.9073 17.2948C21.1615 17.4231 21.3302 17.4849 21.3943 17.5918C21.4584 17.6987 21.4466 18.2166 21.2327 18.8106H21.2351Z" fill="black"/>
<path fill-rule="evenodd" clip-rule="evenodd" d="M23.4546 7.98881C21.7108 6.24061 19.3908 5.18629 16.9271 5.02244C14.4633 4.85858 12.0241 5.5964 10.0642 7.09829C8.10437 8.60018 6.75764 10.7636 6.27518 13.1852C5.79272 15.6068 6.20746 18.1212 7.44208 20.2595L6 25.5289L11.3929 24.1035C12.8844 24.9155 14.5555 25.341 16.2537 25.3412C18.2655 25.3414 20.2323 24.745 21.9052 23.6275C23.5781 22.51 24.8821 20.9215 25.6524 19.063C26.4226 17.2044 26.6244 15.1592 26.2324 13.1859C25.8403 11.2126 24.872 9.39992 23.4498 7.97694L23.4546 7.98881ZM16.2584 23.6354C14.7437 23.6326 13.2576 23.2223 11.956 22.4476L11.6471 22.2646L8.44702 23.1033L9.30228 19.9839L9.10034 19.6632C8.10379 18.0754 7.66314 16.2015 7.84766 14.336C8.03218 12.4705 8.8314 10.7193 10.1197 9.35751C11.408 7.99575 13.1123 7.10073 14.9647 6.81314C16.8171 6.52555 18.7125 6.8617 20.3531 7.76876C21.9936 8.67581 23.2862 10.1023 24.0276 11.8241C24.7691 13.5458 24.9173 15.4651 24.4491 17.2803C23.9809 19.0954 22.9227 20.7035 21.4409 21.8518C19.9591 23 18.1378 23.6233 16.2632 23.6236L16.2584 23.6354Z" fill="black"/>
</svg>
