<svg width="31" height="25" viewBox="0 0 31 25" fill="none" xmlns="http://www.w3.org/2000/svg">
<path d="M14.5897 18V11.4545H16.405V18H14.5897ZM15.5016 10.6108C15.2317 10.6108 15.0002 10.5213 14.807 10.3423C14.6167 10.1605 14.5215 9.94318 14.5215 9.69034C14.5215 9.44034 14.6167 9.22585 14.807 9.04688C15.0002 8.86506 15.2317 8.77415 15.5016 8.77415C15.7715 8.77415 16.0016 8.86506 16.1919 9.04688C16.3851 9.22585 16.4817 9.44034 16.4817 9.69034C16.4817 9.94318 16.3851 10.1605 16.1919 10.3423C16.0016 10.5213 15.7715 10.6108 15.5016 10.6108Z" fill="#02033B"/>
<circle cx="15.9259" cy="13.9259" r="10.0741" stroke="#02033B" stroke-width="2"/>
</svg>
